<?xml version="1.0" encoding="utf-8"?>
<!-- Generator: Adobe Illustrator 28.1.0, SVG Export Plug-In . SVG Version: 6.00 Build 0)  -->
<svg version="1.1" id="Main_Layer" xmlns="http://www.w3.org/2000/svg" xmlns:xlink="http://www.w3.org/1999/xlink" x="0px" y="0px"
	 viewBox="0 0 963 284" style="enable-background:new 0 0 963 284;" xml:space="preserve">
<style type="text/css">
	.st0{fill:#466646;}
	.st1{fill:#689968;}
</style>
<g id="Hand">
	<path id="Background_Finger" class="st0" d="M167.5,224.6c5.5-0.3,12-1.6,16.3-3.9c4.3-2.3,8.3-5.1,15.9-11.1
		c6.2-4.9,9.3-7.4,11.9-10.2c6.4-7,8.7-12.7,10.9-18.2c1-2.4,2.3-6.1,1-10c-0.4-1.1-0.9-2.9-2.3-3.4c-2.4-0.9-6.5,1.8-9.6,6.7
		c-4.1,6.4-9.1,14.9-13.3,19.2c-4.2,4.3-12.6,12-19,15.4c-4.9,2.6-10.7,5.7-11.6,9.9C166.9,223,167.5,224.6,167.5,224.6z"/>
	<path id="Main_Hand" class="st1" d="M100.8,84.6c12.8-3.4,8.2-3.3-0.6-3.4c-4.2,0-9.7,0-16.5,1c-11.9,1.7-26.2,6.8-35,22.4
		c-6.2,11-12.6,24.3-10.7,49.6s4.9,33.1,12.6,51.5s32.1,41.8,40.8,46.7s38.9,23.8,72.9,18.5c31.1-4.9,46.7-13.6,65.1-30.1
		c12.6-11.3,17.9-23.4,19.7-32.7c0.8-4.2-4.6-6.7-7.2-3.3c-5.1,6.4-11.3,15.1-18.2,18.8c-6.8,3.6-3.8-1-2.4-2.6
		c12.1-14.4,38-47.9,26.4-60.1c-0.2-0.2-0.3-0.3-0.6-0.4c-1.2-0.5-5.1-1.8-8.4,3.1c-3.9,5.8-29.2,50.5-57.4,50.5
		c-27.9,0-36.8-6.7-34.1-23.8c0-0.3,0.2-0.6,0.4-0.8c1.9-2.4,12.5-16,14.3-23.9c1.9-8.7,3.9-22.4-9.7-28.2c0,0-3.9-2.9-4.9,2.9
		c-1,5.8-1.8,22.6-12.6,25.3c-10.7,2.7-26.1,15-33,29.8c-0.5,1.1-2,1.4-2.9,0.5c-6.6-6.5-28.1-30.4-27.3-63.3
		C72.3,103.1,91.5,87.1,100.8,84.6z"/>
</g>
<path id="Stem" class="st1" d="M106.4,20c-4.1,0-3.4,7.1,0,11.5c3.4,4.4,22.8,31.4,23.9,44.8c0,0-2.3-22.1-8-33.1
	C119.2,37,113.3,20,106.4,20z"/>
<g>
	<path class="st1" d="M335.2,139.2l-22.7,39.8h-10.4l-21.6-77.3h10.2l17.9,64.6l21.2-37.1h11l21.1,37.1l18-64.6H390l-21.6,77.3H358
		L335.2,139.2z"/>
	<path class="st1" d="M445.2,152.4v26.7h-9.3v-26.7c0-8.1-6.5-14.9-14.7-14.9c-8,0-14.7,6.7-14.7,14.9v26.7h-9.3V99.4h9.3v34.7
		c4.2-3.3,9.3-5.8,14.7-5.8c6.4,0,12.5,2.4,17,6.9C442.7,139.9,445.2,145.9,445.2,152.4z"/>
	<path class="st1" d="M496.4,129.4h9.3v49.7h-9.3v-5.8c-4.7,3.9-10.5,6.8-16.7,6.8c-6.9,0-13.5-2.6-18.5-7.5
		c-4.9-5-7.6-11.5-7.6-18.5s2.7-13.5,7.6-18.5c5-4.9,11.5-7.5,18.5-7.5c6.2,0,12.1,2.9,16.7,6.8V129.4z M496.4,154.2
		c0-9.2-7.5-16.8-16.7-16.8S463,145,463,154.2s7.5,16.8,16.7,16.8S496.4,163.5,496.4,154.2z"/>
	<path class="st1" d="M522.6,162.6v-24.3h-7.4v-8.9h7.4v-19.2h9.3v19.2h15.3v8.9h-15.3v24.1c0,4,3.5,7.8,7.4,7.8h8.4l2.4,8.9h-11
		C530,179.1,522.6,171.8,522.6,162.6z"/>
	<path class="st1" d="M578.3,179c-8-1.6-16-5.6-23-11.7l6.4-7.3c5.8,5,12.2,8.4,18.6,9.7c5.4,1.2,10.7,0.8,15-1.2
		c2.8-1.3,7.7-4.6,7.7-11.2c0-8.1-8.7-11.1-17.2-12.7c-0.8-0.1-12.9-2.6-17.8-5.4c-6.5-3.9-10-9.8-10-16.9c0-4,1.3-7.8,3.6-11.2
		c2.3-3,5.4-5.5,9.1-7.3c5.4-2.6,11.8-3.4,18.4-2.3c7.1,1.2,14.2,4.6,20.5,9.8l-6.2,7.5c-11.2-9.2-22-9.4-28.6-6.4
		c-4.5,2.1-7.1,5.9-7.1,9.8c0,7.4,6.3,10.2,16.3,12.4c4.1,1,12.7,2.4,17.8,5.3c7.1,3.9,10.8,10,10.8,17.5c0,4.5-1.2,8.6-3.7,12.2
		c-2.3,3.3-5.8,5.8-9.7,7.7c-4.1,2.1-8.4,2.7-13.1,2.7C583.5,179.8,580.9,179.5,578.3,179z"/>
	<path class="st1" d="M623.7,157.8v-28.4h9.3v28.4c0,7.3,6.1,13.2,13.7,13.2c7.5,0,13.7-6,13.7-13.2v-28.4h9.3v28.4
		c0,6.1-2.5,11.7-6.8,16c-4.3,4.2-10.1,6.4-16.2,6.4c-6.2,0-11.9-2.2-16.3-6.4C626.1,169.5,623.7,163.9,623.7,157.8z"/>
	<path class="st1" d="M733.4,154.2c0,6.9-2.7,13.5-7.7,18.5c-4.9,4.9-11.4,7.5-18.3,7.5c-6.2,0-12.1-2.9-16.7-6.8v34.2h-9.3v-78.2
		h9.3v5.8c4.7-3.9,10.5-6.8,16.7-6.8c6.9,0,13.5,2.6,18.3,7.5C730.7,140.8,733.4,147.3,733.4,154.2z M724,154.2
		c0-9.2-7.5-16.8-16.7-16.8s-16.7,7.6-16.7,16.8s7.5,16.8,16.7,16.8S724,163.5,724,154.2z"/>
	<path class="st1" d="M794,154.2c0,6.9-2.7,13.5-7.7,18.5c-4.9,4.9-11.4,7.5-18.3,7.5c-6.2,0-12.1-2.9-16.7-6.8v34.2h-9.3v-78.2h9.3
		v5.8c4.7-3.9,10.5-6.8,16.7-6.8c6.9,0,13.5,2.6,18.3,7.5C791.2,140.8,794,147.3,794,154.2z M784.6,154.2c0-9.2-7.5-16.8-16.7-16.8
		s-16.7,7.6-16.7,16.8s7.5,16.8,16.7,16.8S784.6,163.5,784.6,154.2z"/>
	<path class="st1" d="M848.2,156.5h-38.3v0.2c1.1,8.3,7.3,14.4,14.4,14.6c4.5-0.2,9-2.1,12.2-5.2l7.8,4.7c-2,2.2-4.1,4-6.6,5.5
		c-3.8,2.3-8.5,3.5-13.1,3.7c-6.5,0-12.5-2.7-16.8-7.6c-3.9-4.2-6.3-9.7-6.7-15.6c-0.1-0.8-0.1-1.5-0.1-2.3c0-2,0.2-3.9,0.7-5.9
		c1-4.6,3.1-8.7,6.2-12.1c4.3-4.8,10.4-7.5,16.8-7.5c6.5,0,12.5,2.7,16.9,7.5c3,3.4,5.3,7.5,6.2,12.1
		C848.5,153,848.4,155.5,848.2,156.5z M838.5,148.7l-0.1-0.2c-2.2-6.4-7.7-10.7-13.8-10.7c-6,0-11.5,4.3-13.8,10.7l-0.1,0.2H838.5z"
		/>
	<path class="st1" d="M867.2,134.5c3.1-3.5,12.4-6.2,18.1-6.2l-2.3,9.3c-8.7,0-15.9,6.6-15.9,15v26.5h-9.3v-49.7h9.3V134.5z"/>
</g>
<path id="Leaf" class="st1" d="M183.7,27.6c0,0-3.6,6.8-11.7,8.4c-10,2-14,1-23,8c-9.2,7.1-8.1,19.3-14.4,25.5
	c2.1-0.8,5.5-2.3,10.4-4.5c9-4,12-6,19-11c4.7-3.4,14-14,14-14s-3.2,10.9-12,18c-8.2,6.6-25.8,10.7-31.8,12c1.5,0.1,11.2,0.9,18.8,0
	c8.3-1,14.3-3.7,21-11C184,48,183.7,27.6,183.7,27.6z"/>
</svg>
