<svg width="316" height="424" viewBox="0 0 316 424" fill="none" xmlns="http://www.w3.org/2000/svg">
<g filter="url(#filter0_d_495_1277)">
<rect x="4" y="2" width="308" height="416" rx="30" fill="white"/>
</g>
<path d="M107.791 296.36C106.063 296.36 104.583 295.984 103.351 295.232C102.119 294.472 101.171 293.416 100.507 292.064C99.8511 290.712 99.5231 289.144 99.5231 287.36C99.5231 285.576 99.8511 284.008 100.507 282.656C101.171 281.304 102.119 280.252 103.351 279.5C104.583 278.74 106.063 278.36 107.791 278.36C109.783 278.36 111.443 278.86 112.771 279.86C114.099 280.852 115.031 282.192 115.567 283.88L112.651 284.684C112.315 283.556 111.743 282.676 110.935 282.044C110.127 281.404 109.079 281.084 107.791 281.084C106.631 281.084 105.663 281.344 104.887 281.864C104.119 282.384 103.539 283.116 103.147 284.06C102.763 284.996 102.567 286.096 102.559 287.36C102.559 288.624 102.751 289.728 103.135 290.672C103.527 291.608 104.111 292.336 104.887 292.856C105.663 293.376 106.631 293.636 107.791 293.636C109.079 293.636 110.127 293.316 110.935 292.676C111.743 292.036 112.315 291.156 112.651 290.036L115.567 290.84C115.031 292.528 114.099 293.872 112.771 294.872C111.443 295.864 109.783 296.36 107.791 296.36ZM121.106 296.36C120.17 296.36 119.378 296.184 118.73 295.832C118.082 295.472 117.59 294.996 117.254 294.404C116.926 293.812 116.762 293.16 116.762 292.448C116.762 291.824 116.866 291.264 117.074 290.768C117.282 290.264 117.602 289.832 118.034 289.472C118.466 289.104 119.026 288.804 119.714 288.572C120.234 288.404 120.842 288.252 121.538 288.116C122.242 287.98 123.002 287.856 123.818 287.744C124.642 287.624 125.502 287.496 126.398 287.36L125.366 287.948C125.374 287.052 125.174 286.392 124.766 285.968C124.358 285.544 123.67 285.332 122.702 285.332C122.118 285.332 121.554 285.468 121.01 285.74C120.466 286.012 120.086 286.48 119.87 287.144L117.23 286.316C117.55 285.22 118.158 284.34 119.054 283.676C119.958 283.012 121.174 282.68 122.702 282.68C123.854 282.68 124.866 282.868 125.738 283.244C126.618 283.62 127.27 284.236 127.694 285.092C127.926 285.548 128.066 286.016 128.114 286.496C128.162 286.968 128.186 287.484 128.186 288.044V296H125.654V293.192L126.074 293.648C125.49 294.584 124.806 295.272 124.022 295.712C123.246 296.144 122.274 296.36 121.106 296.36ZM121.682 294.056C122.338 294.056 122.898 293.94 123.362 293.708C123.826 293.476 124.194 293.192 124.466 292.856C124.746 292.52 124.934 292.204 125.03 291.908C125.182 291.54 125.266 291.12 125.282 290.648C125.306 290.168 125.318 289.78 125.318 289.484L126.206 289.748C125.334 289.884 124.586 290.004 123.962 290.108C123.338 290.212 122.802 290.312 122.354 290.408C121.906 290.496 121.51 290.596 121.166 290.708C120.83 290.828 120.546 290.968 120.314 291.128C120.082 291.288 119.902 291.472 119.774 291.68C119.654 291.888 119.594 292.132 119.594 292.412C119.594 292.732 119.674 293.016 119.834 293.264C119.994 293.504 120.226 293.696 120.53 293.84C120.842 293.984 121.226 294.056 121.682 294.056ZM130.59 296V283.04H133.146V286.196L132.834 285.788C132.994 285.356 133.206 284.964 133.47 284.612C133.742 284.252 134.066 283.956 134.442 283.724C134.762 283.508 135.114 283.34 135.498 283.22C135.89 283.092 136.29 283.016 136.698 282.992C137.106 282.96 137.502 282.976 137.886 283.04V285.74C137.502 285.628 137.058 285.592 136.554 285.632C136.058 285.672 135.61 285.812 135.21 286.052C134.81 286.268 134.482 286.544 134.226 286.88C133.978 287.216 133.794 287.6 133.674 288.032C133.554 288.456 133.494 288.916 133.494 289.412V296H130.59ZM144.946 296.36C143.65 296.36 142.518 296.068 141.55 295.484C140.582 294.9 139.83 294.096 139.294 293.072C138.766 292.04 138.502 290.856 138.502 289.52C138.502 288.16 138.774 286.968 139.318 285.944C139.862 284.92 140.618 284.12 141.586 283.544C142.554 282.968 143.674 282.68 144.946 282.68C146.25 282.68 147.386 282.972 148.354 283.556C149.322 284.14 150.074 284.948 150.61 285.98C151.146 287.004 151.414 288.184 151.414 289.52C151.414 290.864 151.142 292.052 150.598 293.084C150.062 294.108 149.31 294.912 148.342 295.496C147.374 296.072 146.242 296.36 144.946 296.36ZM144.946 293.648C146.098 293.648 146.954 293.264 147.514 292.496C148.074 291.728 148.354 290.736 148.354 289.52C148.354 288.264 148.07 287.264 147.502 286.52C146.934 285.768 146.082 285.392 144.946 285.392C144.17 285.392 143.53 285.568 143.026 285.92C142.53 286.264 142.162 286.748 141.922 287.372C141.682 287.988 141.562 288.704 141.562 289.52C141.562 290.776 141.846 291.78 142.414 292.532C142.99 293.276 143.834 293.648 144.946 293.648ZM153.578 296V278.36H156.47V296H153.578ZM159.584 281.072V278.42H162.476V281.072H159.584ZM159.584 296V283.04H162.476V296H159.584ZM174.315 296V289.76C174.315 289.352 174.287 288.9 174.231 288.404C174.175 287.908 174.043 287.432 173.835 286.976C173.635 286.512 173.331 286.132 172.923 285.836C172.523 285.54 171.979 285.392 171.291 285.392C170.923 285.392 170.559 285.452 170.199 285.572C169.839 285.692 169.511 285.9 169.215 286.196C168.927 286.484 168.695 286.884 168.519 287.396C168.343 287.9 168.255 288.548 168.255 289.34L166.539 288.608C166.539 287.504 166.751 286.504 167.175 285.608C167.607 284.712 168.239 284 169.071 283.472C169.903 282.936 170.927 282.668 172.143 282.668C173.103 282.668 173.895 282.828 174.519 283.148C175.143 283.468 175.639 283.876 176.007 284.372C176.375 284.868 176.647 285.396 176.823 285.956C176.999 286.516 177.111 287.048 177.159 287.552C177.215 288.048 177.243 288.452 177.243 288.764V296H174.315ZM165.327 296V283.04H167.907V287.06H168.255V296H165.327ZM183.278 296.36C182.342 296.36 181.55 296.184 180.902 295.832C180.254 295.472 179.762 294.996 179.426 294.404C179.098 293.812 178.934 293.16 178.934 292.448C178.934 291.824 179.038 291.264 179.246 290.768C179.454 290.264 179.774 289.832 180.206 289.472C180.638 289.104 181.198 288.804 181.886 288.572C182.406 288.404 183.014 288.252 183.71 288.116C184.414 287.98 185.174 287.856 185.99 287.744C186.814 287.624 187.674 287.496 188.57 287.36L187.538 287.948C187.546 287.052 187.346 286.392 186.938 285.968C186.53 285.544 185.842 285.332 184.874 285.332C184.29 285.332 183.726 285.468 183.182 285.74C182.638 286.012 182.258 286.48 182.042 287.144L179.402 286.316C179.722 285.22 180.33 284.34 181.226 283.676C182.13 283.012 183.346 282.68 184.874 282.68C186.026 282.68 187.038 282.868 187.91 283.244C188.79 283.62 189.442 284.236 189.866 285.092C190.098 285.548 190.238 286.016 190.286 286.496C190.334 286.968 190.358 287.484 190.358 288.044V296H187.826V293.192L188.246 293.648C187.662 294.584 186.978 295.272 186.194 295.712C185.418 296.144 184.446 296.36 183.278 296.36ZM183.854 294.056C184.51 294.056 185.07 293.94 185.534 293.708C185.998 293.476 186.366 293.192 186.638 292.856C186.918 292.52 187.106 292.204 187.202 291.908C187.354 291.54 187.438 291.12 187.454 290.648C187.478 290.168 187.49 289.78 187.49 289.484L188.378 289.748C187.506 289.884 186.758 290.004 186.134 290.108C185.51 290.212 184.974 290.312 184.526 290.408C184.078 290.496 183.682 290.596 183.338 290.708C183.002 290.828 182.718 290.968 182.486 291.128C182.254 291.288 182.074 291.472 181.946 291.68C181.826 291.888 181.766 292.132 181.766 292.412C181.766 292.732 181.846 293.016 182.006 293.264C182.166 293.504 182.398 293.696 182.702 293.84C183.014 293.984 183.398 294.056 183.854 294.056ZM195.407 296L201.263 287.264L195.575 278.72H199.115L203.051 284.804L206.951 278.72H210.515L204.827 287.264L210.659 296H207.119L203.051 289.724L198.971 296H195.407ZM216.713 296.372C215.753 296.372 214.961 296.212 214.337 295.892C213.713 295.572 213.217 295.164 212.849 294.668C212.481 294.172 212.209 293.644 212.033 293.084C211.857 292.524 211.741 291.996 211.685 291.5C211.637 290.996 211.613 290.588 211.613 290.276V283.04H214.541V289.28C214.541 289.68 214.569 290.132 214.625 290.636C214.681 291.132 214.809 291.612 215.009 292.076C215.217 292.532 215.521 292.908 215.921 293.204C216.329 293.5 216.877 293.648 217.565 293.648C217.933 293.648 218.297 293.588 218.657 293.468C219.017 293.348 219.341 293.144 219.629 292.856C219.925 292.56 220.161 292.156 220.337 291.644C220.513 291.132 220.601 290.484 220.601 289.7L222.317 290.432C222.317 291.536 222.101 292.536 221.669 293.432C221.245 294.328 220.617 295.044 219.785 295.58C218.953 296.108 217.929 296.372 216.713 296.372ZM220.949 296V291.98H220.601V283.04H223.505V296H220.949ZM104.274 333V317.064H98.0822V315.72H111.846V317.064H105.654V333H104.274ZM116.47 333.36C115.23 333.36 114.158 333.084 113.254 332.532C112.35 331.972 111.65 331.184 111.154 330.168C110.658 329.144 110.41 327.936 110.41 326.544C110.41 325.128 110.654 323.908 111.142 322.884C111.638 321.852 112.334 321.06 113.23 320.508C114.134 319.956 115.206 319.68 116.446 319.68C117.702 319.68 118.774 319.968 119.662 320.544C120.558 321.112 121.238 321.936 121.702 323.016C122.174 324.096 122.398 325.396 122.374 326.916H120.934V326.436C120.894 324.66 120.494 323.308 119.734 322.38C118.974 321.452 117.886 320.988 116.47 320.988C115.006 320.988 113.874 321.472 113.074 322.44C112.282 323.4 111.886 324.76 111.886 326.52C111.886 328.264 112.282 329.616 113.074 330.576C113.874 331.536 114.998 332.016 116.446 332.016C117.446 332.016 118.318 331.784 119.062 331.32C119.814 330.848 120.41 330.176 120.85 329.304L122.098 329.856C121.578 330.976 120.826 331.84 119.842 332.448C118.858 333.056 117.734 333.36 116.47 333.36ZM111.358 326.916V325.668H121.594V326.916H111.358ZM127.818 333.36C126.818 333.36 125.986 333.184 125.322 332.832C124.666 332.48 124.174 332.016 123.846 331.44C123.518 330.856 123.354 330.224 123.354 329.544C123.354 328.808 123.506 328.192 123.81 327.696C124.122 327.2 124.534 326.8 125.046 326.496C125.566 326.192 126.138 325.964 126.762 325.812C127.474 325.652 128.242 325.516 129.066 325.404C129.89 325.284 130.674 325.18 131.418 325.092C132.17 325.004 132.782 324.928 133.254 324.864L132.75 325.164C132.782 323.764 132.518 322.724 131.958 322.044C131.406 321.356 130.43 321.012 129.03 321.012C128.046 321.012 127.234 321.236 126.594 321.684C125.962 322.124 125.518 322.808 125.262 323.736L123.846 323.34C124.142 322.164 124.738 321.26 125.634 320.628C126.53 319.996 127.678 319.68 129.078 319.68C130.27 319.68 131.27 319.912 132.078 320.376C132.894 320.84 133.462 321.492 133.782 322.332C133.918 322.676 134.01 323.08 134.058 323.544C134.106 324 134.13 324.46 134.13 324.924V333H132.87V329.592L133.338 329.712C132.946 330.88 132.262 331.78 131.286 332.412C130.31 333.044 129.154 333.36 127.818 333.36ZM127.89 332.088C128.77 332.088 129.542 331.932 130.206 331.62C130.87 331.3 131.406 330.856 131.814 330.288C132.23 329.712 132.494 329.036 132.606 328.26C132.686 327.828 132.73 327.36 132.738 326.856C132.746 326.352 132.75 325.98 132.75 325.74L133.35 326.124C132.83 326.188 132.206 326.256 131.478 326.328C130.758 326.4 130.022 326.488 129.27 326.592C128.518 326.696 127.838 326.828 127.23 326.988C126.854 327.092 126.474 327.244 126.09 327.444C125.714 327.636 125.398 327.904 125.142 328.248C124.894 328.592 124.77 329.028 124.77 329.556C124.77 329.948 124.866 330.34 125.058 330.732C125.258 331.124 125.586 331.448 126.042 331.704C126.498 331.96 127.114 332.088 127.89 332.088ZM151.946 333L151.97 324.288C151.97 323.24 151.67 322.42 151.07 321.828C150.478 321.228 149.738 320.928 148.85 320.928C148.346 320.928 147.846 321.044 147.35 321.276C146.862 321.508 146.454 321.884 146.126 322.404C145.798 322.924 145.634 323.628 145.634 324.516L144.662 324.36C144.63 323.416 144.802 322.596 145.178 321.9C145.562 321.196 146.09 320.652 146.762 320.268C147.442 319.884 148.214 319.692 149.078 319.692C150.35 319.692 151.378 320.084 152.162 320.868C152.954 321.652 153.35 322.724 153.35 324.084L153.326 333H151.946ZM136.526 333V320.04H137.786V322.956H137.906V333H136.526ZM144.242 333L144.266 324.42C144.266 323.348 143.974 322.5 143.39 321.876C142.806 321.244 142.046 320.928 141.11 320.928C140.158 320.928 139.386 321.256 138.794 321.912C138.202 322.56 137.906 323.428 137.906 324.516L136.946 324.036C136.946 323.196 137.138 322.452 137.522 321.804C137.906 321.148 138.43 320.632 139.094 320.256C139.766 319.88 140.534 319.692 141.398 319.692C142.174 319.692 142.882 319.856 143.522 320.184C144.162 320.512 144.674 321.008 145.058 321.672C145.442 322.328 145.634 323.152 145.634 324.144L145.61 333H144.242ZM160.076 333V315.72H161.456V331.656H169.856V333H160.076ZM176.527 333.36C175.287 333.36 174.215 333.084 173.311 332.532C172.407 331.972 171.707 331.184 171.211 330.168C170.715 329.144 170.467 327.936 170.467 326.544C170.467 325.128 170.711 323.908 171.199 322.884C171.695 321.852 172.391 321.06 173.287 320.508C174.191 319.956 175.263 319.68 176.503 319.68C177.759 319.68 178.831 319.968 179.719 320.544C180.615 321.112 181.295 321.936 181.759 323.016C182.231 324.096 182.455 325.396 182.431 326.916H180.991V326.436C180.951 324.66 180.551 323.308 179.791 322.38C179.031 321.452 177.943 320.988 176.527 320.988C175.063 320.988 173.931 321.472 173.131 322.44C172.339 323.4 171.943 324.76 171.943 326.52C171.943 328.264 172.339 329.616 173.131 330.576C173.931 331.536 175.055 332.016 176.503 332.016C177.503 332.016 178.375 331.784 179.119 331.32C179.871 330.848 180.467 330.176 180.907 329.304L182.155 329.856C181.635 330.976 180.883 331.84 179.899 332.448C178.915 333.056 177.791 333.36 176.527 333.36ZM171.415 326.916V325.668H181.651V326.916H171.415ZM187.875 333.36C186.875 333.36 186.043 333.184 185.379 332.832C184.723 332.48 184.231 332.016 183.903 331.44C183.575 330.856 183.411 330.224 183.411 329.544C183.411 328.808 183.563 328.192 183.867 327.696C184.179 327.2 184.591 326.8 185.103 326.496C185.623 326.192 186.195 325.964 186.819 325.812C187.531 325.652 188.299 325.516 189.123 325.404C189.947 325.284 190.731 325.18 191.475 325.092C192.227 325.004 192.839 324.928 193.311 324.864L192.807 325.164C192.839 323.764 192.575 322.724 192.015 322.044C191.463 321.356 190.487 321.012 189.087 321.012C188.103 321.012 187.291 321.236 186.651 321.684C186.019 322.124 185.575 322.808 185.319 323.736L183.903 323.34C184.199 322.164 184.795 321.26 185.691 320.628C186.587 319.996 187.735 319.68 189.135 319.68C190.327 319.68 191.327 319.912 192.135 320.376C192.951 320.84 193.519 321.492 193.839 322.332C193.975 322.676 194.067 323.08 194.115 323.544C194.163 324 194.187 324.46 194.187 324.924V333H192.927V329.592L193.395 329.712C193.003 330.88 192.319 331.78 191.343 332.412C190.367 333.044 189.211 333.36 187.875 333.36ZM187.947 332.088C188.827 332.088 189.599 331.932 190.263 331.62C190.927 331.3 191.463 330.856 191.871 330.288C192.287 329.712 192.551 329.036 192.663 328.26C192.743 327.828 192.787 327.36 192.795 326.856C192.803 326.352 192.807 325.98 192.807 325.74L193.407 326.124C192.887 326.188 192.263 326.256 191.535 326.328C190.815 326.4 190.079 326.488 189.327 326.592C188.575 326.696 187.895 326.828 187.287 326.988C186.911 327.092 186.531 327.244 186.147 327.444C185.771 327.636 185.455 327.904 185.199 328.248C184.951 328.592 184.827 329.028 184.827 329.556C184.827 329.948 184.923 330.34 185.115 330.732C185.315 331.124 185.643 331.448 186.099 331.704C186.555 331.96 187.171 332.088 187.947 332.088ZM201.562 333.36C200.338 333.36 199.302 333.06 198.454 332.46C197.614 331.852 196.97 331.032 196.522 330C196.082 328.96 195.862 327.792 195.862 326.496C195.862 325.216 196.082 324.06 196.522 323.028C196.962 321.996 197.594 321.18 198.418 320.58C199.25 319.98 200.254 319.68 201.43 319.68C202.638 319.68 203.658 319.976 204.49 320.568C205.322 321.16 205.95 321.972 206.374 323.004C206.798 324.028 207.01 325.192 207.01 326.496C207.01 327.792 206.798 328.956 206.374 329.988C205.95 331.02 205.334 331.84 204.526 332.448C203.718 333.056 202.73 333.36 201.562 333.36ZM201.646 332.04C202.614 332.04 203.418 331.8 204.058 331.32C204.706 330.832 205.186 330.172 205.498 329.34C205.818 328.5 205.978 327.552 205.978 326.496C205.978 325.432 205.818 324.484 205.498 323.652C205.178 322.82 204.698 322.172 204.058 321.708C203.418 321.236 202.622 321 201.67 321C200.686 321 199.874 321.244 199.234 321.732C198.594 322.212 198.118 322.868 197.806 323.7C197.494 324.524 197.338 325.456 197.338 326.496C197.338 327.544 197.498 328.488 197.818 329.328C198.146 330.16 198.626 330.82 199.258 331.308C199.898 331.796 200.694 332.04 201.646 332.04ZM205.978 333V323.016H205.858V315.72H207.238V333H205.978ZM218.595 329.856V324.984H213.723V323.724H218.595V318.864H219.855V323.724H224.727V324.984H219.855V329.856H218.595ZM92.45 370.36C91.154 370.36 90.002 370.092 88.994 369.556C87.994 369.012 87.206 368.252 86.63 367.276C86.062 366.292 85.778 365.14 85.778 363.82V352.72H87.17V363.532C87.17 364.516 87.334 365.36 87.662 366.064C87.998 366.76 88.43 367.328 88.958 367.768C89.494 368.208 90.066 368.532 90.674 368.74C91.29 368.948 91.882 369.052 92.45 369.052C93.018 369.052 93.61 368.948 94.226 368.74C94.842 368.532 95.414 368.208 95.942 367.768C96.47 367.328 96.898 366.76 97.226 366.064C97.562 365.36 97.73 364.516 97.73 363.532V352.72H99.122V363.82C99.122 365.132 98.834 366.28 98.258 367.264C97.69 368.24 96.902 369 95.894 369.544C94.894 370.088 93.746 370.36 92.45 370.36ZM100.329 370L106.353 361.24L100.473 352.72H102.141L107.157 360.1L112.185 352.72H113.853L107.973 361.24L113.997 370H112.329L107.157 362.404L101.997 370H100.329ZM120.534 352.72H121.974L117.366 370H115.926L120.534 352.72ZM131.048 370.36C129.752 370.36 128.6 370.092 127.592 369.556C126.592 369.012 125.804 368.252 125.228 367.276C124.66 366.292 124.376 365.14 124.376 363.82V352.72H125.768V363.532C125.768 364.516 125.932 365.36 126.26 366.064C126.596 366.76 127.028 367.328 127.556 367.768C128.092 368.208 128.664 368.532 129.272 368.74C129.888 368.948 130.48 369.052 131.048 369.052C131.616 369.052 132.208 368.948 132.824 368.74C133.44 368.532 134.012 368.208 134.54 367.768C135.068 367.328 135.496 366.76 135.824 366.064C136.16 365.36 136.328 364.516 136.328 363.532V352.72H137.72V363.82C137.72 365.132 137.432 366.28 136.856 367.264C136.288 368.24 135.5 369 134.492 369.544C133.492 370.088 132.344 370.36 131.048 370.36ZM140.607 370V352.72H141.987V370H140.607ZM148.958 370V352.72H154.106C154.306 352.72 154.63 352.724 155.078 352.732C155.534 352.74 155.966 352.776 156.374 352.84C157.67 353.016 158.746 353.504 159.602 354.304C160.458 355.096 161.098 356.104 161.522 357.328C161.946 358.544 162.158 359.888 162.158 361.36C162.158 362.84 161.946 364.192 161.522 365.416C161.098 366.632 160.458 367.636 159.602 368.428C158.746 369.22 157.67 369.704 156.374 369.88C155.966 369.936 155.53 369.972 155.066 369.988C154.61 369.996 154.29 370 154.106 370H148.958ZM150.41 368.644H154.106C154.466 368.644 154.838 368.636 155.222 368.62C155.606 368.596 155.934 368.56 156.206 368.512C157.278 368.32 158.142 367.896 158.798 367.24C159.454 366.576 159.93 365.74 160.226 364.732C160.53 363.716 160.682 362.592 160.682 361.36C160.682 360.12 160.53 358.996 160.226 357.988C159.922 356.972 159.442 356.136 158.786 355.48C158.13 354.816 157.27 354.392 156.206 354.208C155.934 354.16 155.598 354.128 155.198 354.112C154.806 354.088 154.442 354.076 154.106 354.076H150.41V368.644ZM169.445 370.36C168.205 370.36 167.133 370.084 166.229 369.532C165.325 368.972 164.625 368.184 164.129 367.168C163.633 366.144 163.385 364.936 163.385 363.544C163.385 362.128 163.629 360.908 164.117 359.884C164.613 358.852 165.309 358.06 166.205 357.508C167.109 356.956 168.181 356.68 169.421 356.68C170.677 356.68 171.749 356.968 172.637 357.544C173.533 358.112 174.213 358.936 174.677 360.016C175.149 361.096 175.373 362.396 175.349 363.916H173.909V363.436C173.869 361.66 173.469 360.308 172.709 359.38C171.949 358.452 170.861 357.988 169.445 357.988C167.981 357.988 166.849 358.472 166.049 359.44C165.257 360.4 164.861 361.76 164.861 363.52C164.861 365.264 165.257 366.616 166.049 367.576C166.849 368.536 167.973 369.016 169.421 369.016C170.421 369.016 171.293 368.784 172.037 368.32C172.789 367.848 173.385 367.176 173.825 366.304L175.073 366.856C174.553 367.976 173.801 368.84 172.817 369.448C171.833 370.056 170.709 370.36 169.445 370.36ZM164.333 363.916V362.668H174.569V363.916H164.333ZM182.072 370.336C180.576 370.336 179.34 370.02 178.364 369.388C177.396 368.756 176.796 367.876 176.564 366.748L177.98 366.508C178.18 367.276 178.652 367.888 179.396 368.344C180.14 368.8 181.052 369.028 182.132 369.028C183.204 369.028 184.056 368.8 184.688 368.344C185.32 367.888 185.636 367.264 185.636 366.472C185.636 366.04 185.536 365.688 185.336 365.416C185.144 365.136 184.76 364.88 184.184 364.648C183.608 364.416 182.752 364.144 181.616 363.832C180.416 363.512 179.476 363.192 178.796 362.872C178.124 362.552 177.648 362.188 177.368 361.78C177.096 361.372 176.96 360.872 176.96 360.28C176.96 359.568 177.164 358.944 177.572 358.408C177.98 357.864 178.548 357.44 179.276 357.136C180.012 356.832 180.86 356.68 181.82 356.68C182.78 356.68 183.644 356.84 184.412 357.16C185.18 357.472 185.8 357.912 186.272 358.48C186.744 359.04 187.016 359.692 187.088 360.436L185.672 360.7C185.536 359.868 185.116 359.212 184.412 358.732C183.708 358.244 182.828 357.996 181.772 357.988C180.772 357.972 179.956 358.172 179.324 358.588C178.692 358.996 178.376 359.536 178.376 360.208C178.376 360.592 178.484 360.92 178.7 361.192C178.924 361.456 179.316 361.7 179.876 361.924C180.436 362.148 181.228 362.388 182.252 362.644C183.5 362.964 184.472 363.292 185.168 363.628C185.872 363.964 186.368 364.36 186.656 364.816C186.944 365.264 187.088 365.82 187.088 366.484C187.088 367.684 186.64 368.628 185.744 369.316C184.856 369.996 183.632 370.336 182.072 370.336ZM189.272 354.424V352.66H190.652V354.424H189.272ZM189.272 370V357.04H190.652V370H189.272ZM198.579 376.12C197.939 376.12 197.299 376.024 196.659 375.832C196.027 375.648 195.435 375.344 194.883 374.92C194.331 374.504 193.863 373.948 193.479 373.252L194.727 372.508C195.119 373.308 195.675 373.88 196.395 374.224C197.115 374.568 197.847 374.74 198.591 374.74C199.639 374.74 200.467 374.544 201.075 374.152C201.691 373.768 202.131 373.188 202.395 372.412C202.659 371.644 202.791 370.688 202.791 369.544V366.148H202.935V357.04H204.195V369.544C204.195 369.928 204.187 370.296 204.171 370.648C204.155 371 204.119 371.352 204.063 371.704C203.919 372.704 203.623 373.528 203.175 374.176C202.727 374.832 202.119 375.32 201.351 375.64C200.591 375.96 199.667 376.12 198.579 376.12ZM198.519 370.36C197.295 370.36 196.259 370.06 195.411 369.46C194.571 368.852 193.927 368.032 193.479 367C193.039 365.96 192.819 364.792 192.819 363.496C192.819 362.216 193.039 361.06 193.479 360.028C193.919 358.996 194.551 358.18 195.375 357.58C196.207 356.98 197.211 356.68 198.387 356.68C199.595 356.68 200.615 356.976 201.447 357.568C202.279 358.16 202.907 358.972 203.331 360.004C203.755 361.028 203.967 362.192 203.967 363.496C203.967 364.792 203.755 365.956 203.331 366.988C202.907 368.02 202.291 368.84 201.483 369.448C200.675 370.056 199.687 370.36 198.519 370.36ZM198.603 369.04C199.571 369.04 200.375 368.8 201.015 368.32C201.663 367.832 202.143 367.172 202.455 366.34C202.775 365.5 202.935 364.552 202.935 363.496C202.935 362.432 202.775 361.484 202.455 360.652C202.135 359.82 201.655 359.172 201.015 358.708C200.375 358.236 199.579 358 198.627 358C197.643 358 196.831 358.244 196.191 358.732C195.551 359.212 195.075 359.868 194.763 360.7C194.451 361.524 194.295 362.456 194.295 363.496C194.295 364.544 194.455 365.488 194.775 366.328C195.103 367.16 195.583 367.82 196.215 368.308C196.855 368.796 197.651 369.04 198.603 369.04ZM216.327 370V363.256C216.327 362.44 216.243 361.712 216.075 361.072C215.915 360.432 215.667 359.888 215.331 359.44C215.003 358.992 214.587 358.652 214.083 358.42C213.587 358.188 212.999 358.072 212.319 358.072C211.615 358.072 211.003 358.196 210.483 358.444C209.971 358.684 209.547 359.024 209.211 359.464C208.883 359.904 208.635 360.428 208.467 361.036C208.307 361.636 208.227 362.292 208.227 363.004L207.135 362.872C207.135 361.472 207.371 360.32 207.843 359.416C208.323 358.504 208.967 357.832 209.775 357.4C210.583 356.96 211.491 356.74 212.499 356.74C213.211 356.74 213.847 356.844 214.407 357.052C214.975 357.26 215.467 357.556 215.883 357.94C216.299 358.316 216.643 358.764 216.915 359.284C217.187 359.796 217.387 360.36 217.515 360.976C217.651 361.592 217.719 362.236 217.719 362.908V370H216.327ZM206.835 370V357.04H208.095V359.956H208.227V370H206.835ZM225.4 370.36C224.16 370.36 223.088 370.084 222.184 369.532C221.28 368.972 220.58 368.184 220.084 367.168C219.588 366.144 219.34 364.936 219.34 363.544C219.34 362.128 219.584 360.908 220.072 359.884C220.568 358.852 221.264 358.06 222.16 357.508C223.064 356.956 224.136 356.68 225.376 356.68C226.632 356.68 227.704 356.968 228.592 357.544C229.488 358.112 230.168 358.936 230.632 360.016C231.104 361.096 231.328 362.396 231.304 363.916H229.864V363.436C229.824 361.66 229.424 360.308 228.664 359.38C227.904 358.452 226.816 357.988 225.4 357.988C223.936 357.988 222.804 358.472 222.004 359.44C221.212 360.4 220.816 361.76 220.816 363.52C220.816 365.264 221.212 366.616 222.004 367.576C222.804 368.536 223.928 369.016 225.376 369.016C226.376 369.016 227.248 368.784 227.992 368.32C228.744 367.848 229.34 367.176 229.78 366.304L231.028 366.856C230.508 367.976 229.756 368.84 228.772 369.448C227.788 370.056 226.664 370.36 225.4 370.36ZM220.288 363.916V362.668H230.524V363.916H220.288ZM233.238 370V357.04H234.498V360.148L234.186 359.74C234.33 359.372 234.51 359.032 234.726 358.72C234.95 358.4 235.178 358.14 235.41 357.94C235.754 357.62 236.158 357.38 236.622 357.22C237.086 357.052 237.554 356.956 238.026 356.932C238.498 356.9 238.926 356.936 239.31 357.04V358.348C238.798 358.228 238.254 358.204 237.678 358.276C237.102 358.348 236.562 358.596 236.058 359.02C235.618 359.404 235.298 359.852 235.098 360.364C234.898 360.868 234.77 361.4 234.714 361.96C234.658 362.512 234.63 363.052 234.63 363.58V370H233.238Z" fill="black"/>
<g clip-path="url(#clip0_495_1277)">
<path d="M192.209 156.55C203.749 137.27 215.449 119.25 196.739 103.3C183.819 93.25 171.319 91.83 157.809 80.66C99.5594 112.54 107.669 134.67 123.809 155.78C131.989 163.58 144.099 171.59 159.349 171.59C171.599 171.59 182.889 165.69 192.219 156.55H192.209ZM191.009 132.95C189.659 135.71 186.269 136.97 181.809 136.97C177.349 136.97 173.349 135.95 174.059 132.9C174.699 130.15 177.599 127.16 182.269 126.83C193.659 126.04 192.889 129.09 191.009 132.95ZM184.599 110.94C191.619 110.94 195.859 112.14 196.329 114.49C196.779 116.75 193.659 116.07 183.489 117.33C176.579 118.19 169.979 118.38 169.699 116.01C169.319 112.77 175.639 110.94 184.589 110.94H184.599ZM158.859 138.24C159.079 137.89 159.539 137.78 159.889 138C160.239 138.22 160.349 138.68 160.129 139.03C158.509 141.63 159.139 145.33 161.549 147.28C161.869 147.54 161.919 148.01 161.659 148.34C161.509 148.52 161.299 148.62 161.079 148.62C160.909 148.62 160.749 148.57 160.609 148.45C157.639 146.04 156.849 141.46 158.869 138.24H158.859ZM119.239 115.11C119.409 112.54 127.769 110.88 134.759 110.95C144.989 111.05 145.439 112.98 145.269 115.55C145.099 118.12 139.459 117.87 132.479 117.43C125.499 117 119.069 117.68 119.239 115.11ZM137.329 137C132.899 136.79 129.589 135.39 128.389 132.6C126.709 128.7 126.099 125.65 137.379 126.97C142.009 127.51 144.739 130.61 145.239 133.35C145.789 136.4 141.759 137.21 137.329 137ZM153.459 159.63C153.619 159.1 154.169 158.79 154.699 158.95C157.979 159.91 161.579 159.86 164.839 158.8C165.359 158.63 165.929 158.92 166.099 159.44C166.269 159.96 165.979 160.53 165.459 160.7C163.549 161.32 161.539 161.63 159.529 161.63C157.709 161.63 155.889 161.38 154.149 160.87C153.619 160.72 153.319 160.16 153.469 159.63H153.459Z" fill="white"/>
<path d="M159.341 171.59C144.091 171.59 131.981 163.58 123.801 155.78C126.441 159.24 129.301 162.67 132.121 166.11C140.791 171.64 150.101 174.59 159.341 174.59C169.611 174.59 179.221 170.71 187.661 164.35C189.121 161.73 190.661 159.13 192.201 156.55C182.871 165.68 171.581 171.59 159.331 171.59H159.341Z" fill="#221F1F"/>
<path d="M183.49 117.33C193.65 116.07 196.78 116.75 196.33 114.49C195.86 112.14 191.61 110.94 184.6 110.94C175.65 110.94 169.33 112.78 169.71 116.01C169.98 118.38 176.59 118.18 183.5 117.33H183.49Z" fill="#221F1F"/>
<path d="M137.381 126.96C126.101 125.64 126.711 128.69 128.391 132.59C129.591 135.38 132.901 136.78 137.331 136.99C141.761 137.2 145.791 136.38 145.241 133.34C144.741 130.6 142.011 127.5 137.381 126.96Z" fill="#221F1F"/>
<path d="M182.271 126.83C177.601 127.15 174.701 130.15 174.061 132.9C173.351 135.95 177.351 136.97 181.811 136.97C186.271 136.97 189.661 135.71 191.011 132.95C192.901 129.09 193.661 126.04 182.271 126.83Z" fill="#221F1F"/>
<path d="M145.26 115.54C145.43 112.97 144.98 111.04 134.75 110.94C127.76 110.87 119.4 112.53 119.23 115.1C119.06 117.67 125.49 116.99 132.47 117.42C139.45 117.85 145.09 118.11 145.26 115.54Z" fill="#221F1F"/>
<path d="M160.6 148.45C160.74 148.56 160.91 148.62 161.07 148.62C161.29 148.62 161.5 148.53 161.65 148.34C161.91 148.02 161.86 147.55 161.54 147.28C159.13 145.33 158.5 141.63 160.12 139.03C160.34 138.68 160.23 138.22 159.88 138C159.53 137.78 159.07 137.89 158.85 138.24C156.84 141.46 157.62 146.04 160.59 148.45H160.6Z" fill="#221F1F"/>
<path d="M165.45 160.7C165.98 160.53 166.26 159.97 166.09 159.44C165.92 158.91 165.35 158.63 164.83 158.8C161.58 159.86 157.98 159.91 154.69 158.95C154.16 158.79 153.6 159.1 153.45 159.63C153.29 160.16 153.6 160.72 154.13 160.87C155.87 161.38 157.69 161.63 159.51 161.63C161.52 161.63 163.54 161.32 165.44 160.7H165.45Z" fill="#221F1F"/>
<path d="M231.44 107.69C229.86 106.84 227.41 106.77 225.25 107.1C224.56 107.2 223.9 107.35 223.31 107.52C220.88 108.22 217.37 110.34 217.17 112.2C216.77 116.03 216.7 119.77 216.75 123.43C219.48 121.74 221.92 119.78 223.98 117.54C224.46 117.02 225.26 117.02 225.76 117.54C226.26 118.06 226.28 118.91 225.79 119.43C223.26 122.16 220.24 124.53 216.81 126.49C216.86 128.04 216.92 129.58 216.99 131.1C217.06 132.76 217.13 134.4 217.18 136.04C223.07 132.17 230.5 126.46 233.97 118.99C234.77 117.27 235.13 115.91 235.11 114.69C235.07 112.25 233.9 109.01 231.42 107.68L231.44 107.69Z" fill="white"/>
<path d="M232.551 105.31C232.48 105.27 232.401 105.25 232.331 105.21C230.521 92.63 225.781 80.49 218.51 68.99C185.201 11.85 118.861 27.45 97.1005 71.55C89.1805 84.19 86.4605 98.5 86.5705 113.11C86.1105 114.54 85.9305 116.03 86.0205 117.36C86.1005 118.51 86.4505 119.58 86.8505 120.52C87.4705 129.72 89.0405 138.94 90.9905 147.87C101.571 188.02 132.82 195.65 146.881 212.11C154.751 194.77 143.78 180.35 132.12 166.11C129.3 162.67 126.44 159.24 123.8 155.78C107.66 134.67 99.5505 112.54 157.801 80.66C171.311 91.84 183.811 93.26 196.731 103.3C215.441 119.25 203.741 137.27 192.201 156.55C190.66 159.13 189.121 161.73 187.661 164.35C179.661 178.67 173.931 193.61 182.381 208.84C191.73 196.28 206.061 181.68 220.201 162.68C227.221 150.31 231.261 138.04 232.631 126.06C234.041 124.25 235.29 122.3 236.26 120.22C236.88 118.89 237.691 116.88 237.661 114.7C237.601 111.36 236.001 107.16 232.561 105.3L232.551 105.31ZM89.8805 121.08C89.0005 119.55 88.5505 118.31 88.4605 117.18C88.3005 114.92 89.1205 111.86 91.3005 110.47C92.8805 109.47 95.5905 109.33 97.7805 109.63C98.1105 109.68 98.4305 109.73 98.7405 109.79C101.041 110.27 104.461 111.99 104.791 113.7C105.391 116.75 105.751 119.76 106.001 122.72C103.391 121.54 100.991 120.06 98.9005 118.28C98.4205 117.87 97.7305 117.98 97.3705 118.51C97.0005 119.05 97.1005 119.82 97.5805 120.22C100.101 122.37 103.001 124.12 106.201 125.45C106.321 127.34 106.411 129.22 106.501 131.07C106.571 132.58 106.641 134.08 106.731 135.57C100.971 132.41 93.6905 127.67 89.8805 121.07V121.08ZM233.991 119C230.521 126.47 223.09 132.18 217.201 136.05C217.15 134.42 217.081 132.77 217.01 131.11C216.951 129.59 216.881 128.05 216.831 126.5C220.251 124.54 223.281 122.18 225.811 119.44C226.29 118.92 226.281 118.07 225.781 117.55C225.281 117.03 224.48 117.03 224.001 117.55C221.93 119.79 219.491 121.75 216.771 123.44C216.711 119.78 216.791 116.04 217.191 112.21C217.391 110.35 220.901 108.23 223.331 107.53C223.921 107.36 224.581 107.22 225.271 107.11C227.431 106.78 229.871 106.85 231.461 107.7C233.941 109.03 235.111 112.27 235.15 114.71C235.171 115.93 234.811 117.29 234.01 119.01L233.991 119Z" fill="#221F1F"/>
<path d="M106.731 135.58C106.641 134.09 106.571 132.59 106.501 131.08C106.411 129.23 106.321 127.35 106.201 125.46C103.001 124.14 100.101 122.38 97.5808 120.23C97.1008 119.82 97.0108 119.05 97.3708 118.52C97.7408 117.98 98.4208 117.88 98.9008 118.29C100.991 120.07 103.391 121.55 106.001 122.73C105.751 119.77 105.391 116.76 104.791 113.71C104.461 112.01 101.041 110.29 98.7408 109.8C98.4408 109.74 98.1208 109.68 97.7808 109.64C95.5808 109.34 92.8808 109.48 91.3008 110.48C89.1208 111.86 88.3008 114.93 88.4608 117.19C88.5408 118.32 88.9908 119.56 89.8808 121.09C93.6908 127.69 100.971 132.42 106.731 135.59V135.58Z" fill="white"/>
</g>
<defs>
<filter id="filter0_d_495_1277" x="0" y="0" width="316" height="424" filterUnits="userSpaceOnUse" color-interpolation-filters="sRGB">
<feFlood flood-opacity="0" result="BackgroundImageFix"/>
<feColorMatrix in="SourceAlpha" type="matrix" values="0 0 0 0 0 0 0 0 0 0 0 0 0 0 0 0 0 0 127 0" result="hardAlpha"/>
<feOffset dy="2"/>
<feGaussianBlur stdDeviation="2"/>
<feComposite in2="hardAlpha" operator="out"/>
<feColorMatrix type="matrix" values="0 0 0 0 0 0 0 0 0 0 0 0 0 0 0 0 0 0 0.25 0"/>
<feBlend mode="normal" in2="BackgroundImageFix" result="effect1_dropShadow_495_1277"/>
<feBlend mode="normal" in="SourceGraphic" in2="effect1_dropShadow_495_1277" result="shape"/>
</filter>
<clipPath id="clip0_495_1277">
<rect width="151.65" height="180.11" fill="white" transform="translate(86 32)"/>
</clipPath>
</defs>
</svg>
