<svg width="316" height="424" viewBox="0 0 316 424" fill="none" xmlns="http://www.w3.org/2000/svg">
<g filter="url(#filter0_d_495_1194)">
<rect x="4" y="2" width="308" height="416" rx="30" fill="white"/>
</g>
<path d="M97.7636 137.121C93.7836 100.721 124.924 72.0714 162.524 72.0714C200.124 72.0714 234.844 103.971 229.504 140.201C221.914 191.721 203.994 198.061 164.584 200.251C126.974 200.251 103.104 185.991 97.7636 137.111V137.121Z" fill="white" stroke="#221F1F" stroke-width="3" stroke-miterlimit="10"/>
<path d="M230.122 136.381C227.102 126.101 217.622 118.561 207.972 112.651C198.322 106.741 190.822 98.0215 183.502 89.7615C184.522 95.8715 185.252 102.401 189.132 107.461C180.642 102.881 172.812 98.9115 169.562 90.3815C166.132 95.6515 165.742 101.891 156.542 104.561C159.392 101.351 158.802 91.4015 160.922 87.4115C155.272 93.0315 147.542 103.751 138.602 105.901C141.862 101.741 139.632 97.0415 143.672 90.5915C128.572 98.6015 122.692 113.461 113.062 118.561C115.152 113.831 114.482 106.171 119.192 98.3015C109.272 103.561 104.142 113.561 101.132 125.071C99.0219 133.151 98.6919 135.931 96.7419 139.311C89.8819 128.001 90.0019 108.481 95.4419 93.6715C93.5519 96.4115 91.3719 101.591 88.9519 106.241C87.9219 91.8215 95.6319 77.5115 105.162 67.4815C111.612 60.7015 120.362 56.0915 129.402 52.6115C150.652 44.4315 175.242 42.0115 196.792 49.5015C218.342 56.9915 238.602 77.0215 236.732 98.6715C234.812 95.6215 235.382 94.6915 230.982 89.5315C236.592 103.281 236.592 120.341 230.102 136.391L230.122 136.381Z" fill="#221F1F"/>
<path d="M127.503 148.161C125.733 141.821 126.193 140.301 138.753 141.071C146.803 141.571 153.123 145.591 149.343 150.591C147.093 153.571 143.523 155.571 138.093 155.251C132.663 154.931 128.543 151.901 127.503 148.161Z" fill="#221F1F"/>
<path d="M201.032 149.311C203.452 143.201 204.172 140.171 191.082 141.041C183.302 141.561 175.782 143.511 178.822 148.891C180.632 152.101 184.502 154.271 189.732 154.541C194.962 154.811 199.612 152.911 201.032 149.311Z" fill="#221F1F"/>
<path d="M210.383 122.711C211.443 126.961 205.593 128.291 194.933 129.291C181.783 130.521 177.243 130.301 178.273 125.991C178.913 123.281 182.543 121.261 193.723 119.411C203.093 117.861 209.713 120.031 210.383 122.711Z" fill="#221F1F"/>
<path d="M148.273 127.181C148.383 131.601 142.283 131.811 131.483 130.781C118.163 129.511 113.713 128.421 115.683 124.341C116.923 121.771 120.963 120.461 132.473 120.741C142.113 120.981 148.203 124.391 148.273 127.181Z" fill="#221F1F"/>
<path d="M162.984 149.361C163.654 151.901 162.694 154.501 161.724 156.991C160.754 159.481 159.734 162.061 160.284 164.611C160.834 167.161 163.394 169.701 167.074 170.091" stroke="#221F1F" stroke-width="2" stroke-linecap="round" stroke-linejoin="round"/>
<path d="M155.232 180.451C162.362 181.461 162.552 185.731 173.862 181.711" stroke="#221F1F" stroke-width="2" stroke-linecap="round" stroke-linejoin="round"/>
<path d="M95.3327 124.171C92.4027 120.821 86.7227 120.671 83.2027 123.381C79.6827 126.091 78.3527 131.001 79.2927 135.321C80.2327 139.641 83.1726 143.361 86.7526 146.021C90.3326 148.681 94.5326 150.401 98.7526 151.861C96.7826 143.191 95.7527 134.321 95.3327 124.171Z" fill="white" stroke="#221F1F" stroke-width="3" stroke-miterlimit="10"/>
<path d="M231.913 118.791C234.853 115.171 241.043 114.501 245.073 116.871C249.113 119.241 250.923 124.021 250.213 128.421C249.503 132.821 246.573 136.801 242.873 139.791C239.173 142.781 234.723 144.891 230.223 146.741C231.733 137.911 232.203 128.961 231.913 118.791Z" fill="white" stroke="#221F1F" stroke-width="3" stroke-miterlimit="10"/>
<path d="M96.2728 139.801C92.5628 138.241 88.9428 135.771 85.6328 132.531L96.2728 139.801Z" fill="#221F1F"/>
<path d="M96.2728 139.801C92.5628 138.241 88.9428 135.771 85.6328 132.531" stroke="#221F1F" stroke-width="3" stroke-miterlimit="10" stroke-linecap="round"/>
<path d="M239.503 125.751C237.223 129.061 234.063 132.111 230.223 134.691L239.503 125.751Z" fill="#221F1F"/>
<path d="M239.503 125.751C237.223 129.061 234.063 132.111 230.223 134.691" stroke="#221F1F" stroke-width="3" stroke-miterlimit="10" stroke-linecap="round"/>
<path d="M118.302 296V278.72H129.462V281.432H121.194V285.692H128.022V288.404H121.194V293.288H129.462V296H118.302ZM131.621 296V283.04H134.177V286.196L133.865 285.788C134.025 285.356 134.237 284.964 134.501 284.612C134.773 284.252 135.097 283.956 135.473 283.724C135.793 283.508 136.145 283.34 136.529 283.22C136.921 283.092 137.321 283.016 137.729 282.992C138.137 282.96 138.533 282.976 138.917 283.04V285.74C138.533 285.628 138.089 285.592 137.585 285.632C137.089 285.672 136.641 285.812 136.241 286.052C135.841 286.268 135.513 286.544 135.257 286.88C135.009 287.216 134.825 287.6 134.705 288.032C134.585 288.456 134.525 288.916 134.525 289.412V296H131.621ZM140.727 281.072V278.42H143.619V281.072H140.727ZM140.727 296V283.04H143.619V296H140.727ZM152.122 296.36C150.786 296.36 149.646 296.064 148.702 295.472C147.758 294.872 147.034 294.056 146.53 293.024C146.034 291.992 145.782 290.824 145.774 289.52C145.782 288.192 146.042 287.016 146.554 285.992C147.074 284.96 147.81 284.152 148.762 283.568C149.714 282.976 150.846 282.68 152.158 282.68C153.63 282.68 154.874 283.052 155.89 283.796C156.914 284.532 157.582 285.54 157.894 286.82L155.014 287.6C154.79 286.904 154.418 286.364 153.898 285.98C153.378 285.588 152.786 285.392 152.122 285.392C151.37 285.392 150.75 285.572 150.262 285.932C149.774 286.284 149.414 286.772 149.182 287.396C148.95 288.02 148.834 288.728 148.834 289.52C148.834 290.752 149.11 291.748 149.662 292.508C150.214 293.268 151.034 293.648 152.122 293.648C152.89 293.648 153.494 293.472 153.934 293.12C154.382 292.768 154.718 292.26 154.942 291.596L157.894 292.256C157.494 293.576 156.794 294.592 155.794 295.304C154.794 296.008 153.57 296.36 152.122 296.36ZM177.187 296.36L172.255 291.452L174.067 289.64L178.975 294.548L177.187 296.36ZM170.971 296.36C169.243 296.36 167.763 295.984 166.531 295.232C165.299 294.472 164.351 293.416 163.687 292.064C163.031 290.712 162.703 289.144 162.703 287.36C162.703 285.576 163.031 284.008 163.687 282.656C164.351 281.304 165.299 280.252 166.531 279.5C167.763 278.74 169.243 278.36 170.971 278.36C172.699 278.36 174.179 278.74 175.411 279.5C176.651 280.252 177.599 281.304 178.255 282.656C178.919 284.008 179.251 285.576 179.251 287.36C179.251 289.144 178.919 290.712 178.255 292.064C177.599 293.416 176.651 294.472 175.411 295.232C174.179 295.984 172.699 296.36 170.971 296.36ZM170.971 293.636C172.131 293.644 173.095 293.388 173.863 292.868C174.639 292.348 175.219 291.616 175.603 290.672C175.995 289.728 176.191 288.624 176.191 287.36C176.191 286.096 175.995 285 175.603 284.072C175.219 283.136 174.639 282.408 173.863 281.888C173.095 281.368 172.131 281.1 170.971 281.084C169.811 281.076 168.847 281.332 168.079 281.852C167.311 282.372 166.731 283.104 166.339 284.048C165.955 284.992 165.763 286.096 165.763 287.36C165.763 288.624 165.955 289.724 166.339 290.66C166.723 291.588 167.299 292.312 168.067 292.832C168.843 293.352 169.811 293.62 170.971 293.636ZM181.16 281.072V278.42H184.052V281.072H181.16ZM181.16 296V283.04H184.052V296H181.16ZM190.55 296.36C189.614 296.36 188.822 296.184 188.174 295.832C187.526 295.472 187.034 294.996 186.698 294.404C186.37 293.812 186.206 293.16 186.206 292.448C186.206 291.824 186.31 291.264 186.518 290.768C186.726 290.264 187.046 289.832 187.478 289.472C187.91 289.104 188.47 288.804 189.158 288.572C189.678 288.404 190.286 288.252 190.982 288.116C191.686 287.98 192.446 287.856 193.262 287.744C194.086 287.624 194.946 287.496 195.842 287.36L194.81 287.948C194.818 287.052 194.618 286.392 194.21 285.968C193.802 285.544 193.114 285.332 192.146 285.332C191.562 285.332 190.998 285.468 190.454 285.74C189.91 286.012 189.53 286.48 189.314 287.144L186.674 286.316C186.994 285.22 187.602 284.34 188.498 283.676C189.402 283.012 190.618 282.68 192.146 282.68C193.298 282.68 194.31 282.868 195.182 283.244C196.062 283.62 196.714 284.236 197.138 285.092C197.37 285.548 197.51 286.016 197.558 286.496C197.606 286.968 197.63 287.484 197.63 288.044V296H195.098V293.192L195.518 293.648C194.934 294.584 194.25 295.272 193.466 295.712C192.69 296.144 191.718 296.36 190.55 296.36ZM191.126 294.056C191.782 294.056 192.342 293.94 192.806 293.708C193.27 293.476 193.638 293.192 193.91 292.856C194.19 292.52 194.378 292.204 194.474 291.908C194.626 291.54 194.71 291.12 194.726 290.648C194.75 290.168 194.762 289.78 194.762 289.484L195.65 289.748C194.778 289.884 194.03 290.004 193.406 290.108C192.782 290.212 192.246 290.312 191.798 290.408C191.35 290.496 190.954 290.596 190.61 290.708C190.274 290.828 189.99 290.968 189.758 291.128C189.526 291.288 189.346 291.472 189.218 291.68C189.098 291.888 189.038 292.132 189.038 292.412C189.038 292.732 189.118 293.016 189.278 293.264C189.438 293.504 189.67 293.696 189.974 293.84C190.286 293.984 190.67 294.056 191.126 294.056ZM208.998 296V289.76C208.998 289.352 208.97 288.9 208.914 288.404C208.858 287.908 208.726 287.432 208.518 286.976C208.318 286.512 208.014 286.132 207.606 285.836C207.206 285.54 206.662 285.392 205.974 285.392C205.606 285.392 205.242 285.452 204.882 285.572C204.522 285.692 204.194 285.9 203.898 286.196C203.61 286.484 203.378 286.884 203.202 287.396C203.026 287.9 202.938 288.548 202.938 289.34L201.222 288.608C201.222 287.504 201.434 286.504 201.858 285.608C202.29 284.712 202.922 284 203.754 283.472C204.586 282.936 205.61 282.668 206.826 282.668C207.786 282.668 208.578 282.828 209.202 283.148C209.826 283.468 210.322 283.876 210.69 284.372C211.058 284.868 211.33 285.396 211.506 285.956C211.682 286.516 211.794 287.048 211.842 287.552C211.898 288.048 211.926 288.452 211.926 288.764V296H208.998ZM200.01 296V283.04H202.59V287.06H202.938V296H200.01ZM88.4272 333.36C87.1312 333.36 85.9792 333.092 84.9712 332.556C83.9712 332.012 83.1832 331.252 82.6072 330.276C82.0392 329.292 81.7552 328.14 81.7552 326.82V315.72H83.1472V326.532C83.1472 327.516 83.3112 328.36 83.6392 329.064C83.9752 329.76 84.4072 330.328 84.9352 330.768C85.4712 331.208 86.0432 331.532 86.6512 331.74C87.2672 331.948 87.8592 332.052 88.4272 332.052C88.9952 332.052 89.5872 331.948 90.2032 331.74C90.8192 331.532 91.3912 331.208 91.9192 330.768C92.4472 330.328 92.8752 329.76 93.2032 329.064C93.5392 328.36 93.7072 327.516 93.7072 326.532V315.72H95.0992V326.82C95.0992 328.132 94.8112 329.28 94.2352 330.264C93.6672 331.24 92.8792 332 91.8712 332.544C90.8712 333.088 89.7232 333.36 88.4272 333.36ZM96.3061 333L102.33 324.24L96.4501 315.72H98.1181L103.134 323.1L108.162 315.72H109.83L103.95 324.24L109.974 333H108.306L103.134 325.404L97.9741 333H96.3061ZM115.267 333V315.72H121.783C121.951 315.72 122.131 315.728 122.323 315.744C122.523 315.752 122.731 315.776 122.947 315.816C123.811 315.952 124.551 316.264 125.167 316.752C125.791 317.232 126.267 317.84 126.595 318.576C126.923 319.304 127.087 320.108 127.087 320.988C127.087 322.26 126.747 323.368 126.067 324.312C125.387 325.256 124.439 325.856 123.223 326.112L122.827 326.268H116.647V333H115.267ZM125.911 333L122.503 325.968L123.787 325.32L127.531 333H125.911ZM116.647 324.912H121.759C121.903 324.912 122.067 324.904 122.251 324.888C122.443 324.872 122.635 324.848 122.827 324.816C123.451 324.688 123.971 324.436 124.387 324.06C124.803 323.676 125.115 323.216 125.323 322.68C125.531 322.144 125.635 321.58 125.635 320.988C125.635 320.396 125.531 319.836 125.323 319.308C125.115 318.772 124.803 318.316 124.387 317.94C123.971 317.556 123.451 317.3 122.827 317.172C122.635 317.132 122.443 317.104 122.251 317.088C122.067 317.072 121.903 317.064 121.759 317.064H116.647V324.912ZM134.793 333.36C133.553 333.36 132.481 333.084 131.577 332.532C130.673 331.972 129.973 331.184 129.477 330.168C128.981 329.144 128.733 327.936 128.733 326.544C128.733 325.128 128.977 323.908 129.465 322.884C129.961 321.852 130.657 321.06 131.553 320.508C132.457 319.956 133.529 319.68 134.769 319.68C136.025 319.68 137.097 319.968 137.985 320.544C138.881 321.112 139.561 321.936 140.025 323.016C140.497 324.096 140.721 325.396 140.697 326.916H139.257V326.436C139.217 324.66 138.817 323.308 138.057 322.38C137.297 321.452 136.209 320.988 134.793 320.988C133.329 320.988 132.197 321.472 131.397 322.44C130.605 323.4 130.209 324.76 130.209 326.52C130.209 328.264 130.605 329.616 131.397 330.576C132.197 331.536 133.321 332.016 134.769 332.016C135.769 332.016 136.641 331.784 137.385 331.32C138.137 330.848 138.733 330.176 139.173 329.304L140.421 329.856C139.901 330.976 139.149 331.84 138.165 332.448C137.181 333.056 136.057 333.36 134.793 333.36ZM129.681 326.916V325.668H139.917V326.916H129.681ZM147.42 333.336C145.924 333.336 144.688 333.02 143.712 332.388C142.744 331.756 142.144 330.876 141.912 329.748L143.328 329.508C143.528 330.276 144 330.888 144.744 331.344C145.488 331.8 146.4 332.028 147.48 332.028C148.552 332.028 149.404 331.8 150.036 331.344C150.668 330.888 150.984 330.264 150.984 329.472C150.984 329.04 150.884 328.688 150.684 328.416C150.492 328.136 150.108 327.88 149.532 327.648C148.956 327.416 148.1 327.144 146.964 326.832C145.764 326.512 144.824 326.192 144.144 325.872C143.472 325.552 142.996 325.188 142.716 324.78C142.444 324.372 142.308 323.872 142.308 323.28C142.308 322.568 142.512 321.944 142.92 321.408C143.328 320.864 143.896 320.44 144.624 320.136C145.36 319.832 146.208 319.68 147.168 319.68C148.128 319.68 148.992 319.84 149.76 320.16C150.528 320.472 151.148 320.912 151.62 321.48C152.092 322.04 152.364 322.692 152.436 323.436L151.02 323.7C150.884 322.868 150.464 322.212 149.76 321.732C149.056 321.244 148.176 320.996 147.12 320.988C146.12 320.972 145.304 321.172 144.672 321.588C144.04 321.996 143.724 322.536 143.724 323.208C143.724 323.592 143.832 323.92 144.048 324.192C144.272 324.456 144.664 324.7 145.224 324.924C145.784 325.148 146.576 325.388 147.6 325.644C148.848 325.964 149.82 326.292 150.516 326.628C151.22 326.964 151.716 327.36 152.004 327.816C152.292 328.264 152.436 328.82 152.436 329.484C152.436 330.684 151.988 331.628 151.092 332.316C150.204 332.996 148.98 333.336 147.42 333.336ZM159.72 333.36C158.48 333.36 157.408 333.084 156.504 332.532C155.6 331.972 154.9 331.184 154.404 330.168C153.908 329.144 153.66 327.936 153.66 326.544C153.66 325.128 153.904 323.908 154.392 322.884C154.888 321.852 155.584 321.06 156.48 320.508C157.384 319.956 158.456 319.68 159.696 319.68C160.952 319.68 162.024 319.968 162.912 320.544C163.808 321.112 164.488 321.936 164.952 323.016C165.424 324.096 165.648 325.396 165.624 326.916H164.184V326.436C164.144 324.66 163.744 323.308 162.984 322.38C162.224 321.452 161.136 320.988 159.72 320.988C158.256 320.988 157.124 321.472 156.324 322.44C155.532 323.4 155.136 324.76 155.136 326.52C155.136 328.264 155.532 329.616 156.324 330.576C157.124 331.536 158.248 332.016 159.696 332.016C160.696 332.016 161.568 331.784 162.312 331.32C163.064 330.848 163.66 330.176 164.1 329.304L165.348 329.856C164.828 330.976 164.076 331.84 163.092 332.448C162.108 333.056 160.984 333.36 159.72 333.36ZM154.608 326.916V325.668H164.844V326.916H154.608ZM171.069 333.36C170.069 333.36 169.237 333.184 168.573 332.832C167.917 332.48 167.425 332.016 167.097 331.44C166.769 330.856 166.605 330.224 166.605 329.544C166.605 328.808 166.757 328.192 167.061 327.696C167.373 327.2 167.785 326.8 168.297 326.496C168.817 326.192 169.389 325.964 170.013 325.812C170.725 325.652 171.493 325.516 172.317 325.404C173.141 325.284 173.925 325.18 174.669 325.092C175.421 325.004 176.033 324.928 176.505 324.864L176.001 325.164C176.033 323.764 175.769 322.724 175.209 322.044C174.657 321.356 173.681 321.012 172.281 321.012C171.297 321.012 170.485 321.236 169.845 321.684C169.213 322.124 168.769 322.808 168.513 323.736L167.097 323.34C167.393 322.164 167.989 321.26 168.885 320.628C169.781 319.996 170.929 319.68 172.329 319.68C173.521 319.68 174.521 319.912 175.329 320.376C176.145 320.84 176.713 321.492 177.033 322.332C177.169 322.676 177.261 323.08 177.309 323.544C177.357 324 177.381 324.46 177.381 324.924V333H176.121V329.592L176.589 329.712C176.197 330.88 175.513 331.78 174.537 332.412C173.561 333.044 172.405 333.36 171.069 333.36ZM171.141 332.088C172.021 332.088 172.793 331.932 173.457 331.62C174.121 331.3 174.657 330.856 175.065 330.288C175.481 329.712 175.745 329.036 175.857 328.26C175.937 327.828 175.981 327.36 175.989 326.856C175.997 326.352 176.001 325.98 176.001 325.74L176.601 326.124C176.081 326.188 175.457 326.256 174.729 326.328C174.009 326.4 173.273 326.488 172.521 326.592C171.769 326.696 171.089 326.828 170.481 326.988C170.105 327.092 169.725 327.244 169.341 327.444C168.965 327.636 168.649 327.904 168.393 328.248C168.145 328.592 168.021 329.028 168.021 329.556C168.021 329.948 168.117 330.34 168.309 330.732C168.509 331.124 168.837 331.448 169.293 331.704C169.749 331.96 170.365 332.088 171.141 332.088ZM179.776 333V320.04H181.036V323.148L180.724 322.74C180.868 322.372 181.048 322.032 181.264 321.72C181.488 321.4 181.716 321.14 181.948 320.94C182.292 320.62 182.696 320.38 183.16 320.22C183.624 320.052 184.092 319.956 184.564 319.932C185.036 319.9 185.464 319.936 185.848 320.04V321.348C185.336 321.228 184.792 321.204 184.216 321.276C183.64 321.348 183.1 321.596 182.596 322.02C182.156 322.404 181.836 322.852 181.636 323.364C181.436 323.868 181.308 324.4 181.252 324.96C181.196 325.512 181.168 326.052 181.168 326.58V333H179.776ZM192.458 333.36C191.162 333.36 190.07 333.072 189.182 332.496C188.294 331.912 187.618 331.108 187.154 330.084C186.698 329.052 186.462 327.864 186.446 326.52C186.462 325.152 186.702 323.956 187.166 322.932C187.638 321.9 188.318 321.1 189.206 320.532C190.094 319.964 191.182 319.68 192.47 319.68C193.726 319.68 194.83 319.984 195.782 320.592C196.742 321.192 197.406 322.02 197.774 323.076L196.43 323.568C196.102 322.76 195.586 322.136 194.882 321.696C194.178 321.248 193.37 321.024 192.458 321.024C191.434 321.024 190.59 321.26 189.926 321.732C189.262 322.196 188.766 322.84 188.438 323.664C188.11 324.488 187.938 325.44 187.922 326.52C187.946 328.176 188.334 329.508 189.086 330.516C189.846 331.516 190.97 332.016 192.458 332.016C193.378 332.016 194.174 331.804 194.846 331.38C195.526 330.956 196.046 330.34 196.406 329.532L197.774 330C197.27 331.096 196.566 331.932 195.662 332.508C194.758 333.076 193.69 333.36 192.458 333.36ZM209.063 333V326.256C209.063 325.44 208.979 324.712 208.811 324.072C208.651 323.432 208.403 322.888 208.067 322.44C207.739 321.992 207.323 321.652 206.819 321.42C206.323 321.188 205.735 321.072 205.055 321.072C204.351 321.072 203.739 321.196 203.219 321.444C202.707 321.684 202.283 322.024 201.947 322.464C201.619 322.904 201.371 323.428 201.203 324.036C201.043 324.636 200.963 325.292 200.963 326.004L199.871 325.872C199.871 324.472 200.107 323.32 200.579 322.416C201.059 321.504 201.703 320.832 202.511 320.4C203.319 319.96 204.227 319.74 205.235 319.74C205.947 319.74 206.583 319.844 207.143 320.052C207.711 320.26 208.203 320.556 208.619 320.94C209.035 321.316 209.379 321.764 209.651 322.284C209.923 322.796 210.123 323.36 210.251 323.976C210.387 324.592 210.455 325.236 210.455 325.908V333H209.063ZM199.571 333V315.72H200.831V325.704H200.963V333H199.571ZM218.183 333.36C216.943 333.36 215.871 333.084 214.967 332.532C214.063 331.972 213.363 331.184 212.867 330.168C212.371 329.144 212.123 327.936 212.123 326.544C212.123 325.128 212.367 323.908 212.855 322.884C213.351 321.852 214.047 321.06 214.943 320.508C215.847 319.956 216.919 319.68 218.159 319.68C219.415 319.68 220.487 319.968 221.375 320.544C222.271 321.112 222.951 321.936 223.415 323.016C223.887 324.096 224.111 325.396 224.087 326.916H222.647V326.436C222.607 324.66 222.207 323.308 221.447 322.38C220.687 321.452 219.599 320.988 218.183 320.988C216.719 320.988 215.587 321.472 214.787 322.44C213.995 323.4 213.599 324.76 213.599 326.52C213.599 328.264 213.995 329.616 214.787 330.576C215.587 331.536 216.711 332.016 218.159 332.016C219.159 332.016 220.031 331.784 220.775 331.32C221.527 330.848 222.123 330.176 222.563 329.304L223.811 329.856C223.291 330.976 222.539 331.84 221.555 332.448C220.571 333.056 219.447 333.36 218.183 333.36ZM213.071 326.916V325.668H223.307V326.916H213.071ZM226.021 333V320.04H227.281V323.148L226.969 322.74C227.113 322.372 227.293 322.032 227.509 321.72C227.733 321.4 227.961 321.14 228.193 320.94C228.537 320.62 228.941 320.38 229.405 320.22C229.869 320.052 230.337 319.956 230.809 319.932C231.281 319.9 231.709 319.936 232.093 320.04V321.348C231.581 321.228 231.037 321.204 230.461 321.276C229.885 321.348 229.345 321.596 228.841 322.02C228.401 322.404 228.081 322.852 227.881 323.364C227.681 323.868 227.553 324.4 227.497 324.96C227.441 325.512 227.413 326.052 227.413 326.58V333H226.021ZM242.362 329.856V324.984H237.49V323.724H242.362V318.864H243.622V323.724H248.494V324.984H243.622V329.856H242.362ZM98.4319 370.36C96.7119 370.36 95.2679 369.98 94.0999 369.22C92.9319 368.452 92.0519 367.392 91.4599 366.04C90.8679 364.688 90.5719 363.128 90.5719 361.36C90.5719 359.592 90.8679 358.032 91.4599 356.68C92.0519 355.328 92.9319 354.272 94.0999 353.512C95.2679 352.744 96.7119 352.36 98.4319 352.36C100.44 352.36 102.068 352.88 103.316 353.92C104.572 354.96 105.424 356.352 105.872 358.096L104.444 358.444C104.076 356.996 103.388 355.848 102.38 355C101.38 354.144 100.064 353.716 98.4319 353.716C97.0159 353.716 95.8359 354.04 94.8919 354.688C93.9559 355.336 93.2479 356.236 92.7679 357.388C92.2959 358.54 92.0559 359.864 92.0479 361.36C92.0319 362.856 92.2599 364.18 92.7319 365.332C93.2119 366.476 93.9279 367.376 94.8799 368.032C95.8319 368.68 97.0159 369.004 98.4319 369.004C100.064 369.004 101.38 368.576 102.38 367.72C103.388 366.864 104.076 365.716 104.444 364.276L105.872 364.624C105.424 366.368 104.572 367.76 103.316 368.8C102.068 369.84 100.44 370.36 98.4319 370.36ZM113.097 370.36C111.809 370.36 110.717 370.068 109.821 369.484C108.925 368.9 108.241 368.092 107.769 367.06C107.297 366.028 107.061 364.84 107.061 363.496C107.061 362.144 107.301 360.956 107.781 359.932C108.261 358.9 108.949 358.1 109.845 357.532C110.749 356.964 111.833 356.68 113.097 356.68C114.385 356.68 115.477 356.972 116.373 357.556C117.277 358.132 117.961 358.932 118.425 359.956C118.897 360.98 119.133 362.16 119.133 363.496C119.133 364.864 118.897 366.064 118.425 367.096C117.953 368.12 117.265 368.92 116.361 369.496C115.457 370.072 114.369 370.36 113.097 370.36ZM113.097 369.016C114.625 369.016 115.765 368.504 116.517 367.48C117.277 366.456 117.657 365.128 117.657 363.496C117.657 361.832 117.277 360.504 116.517 359.512C115.757 358.52 114.617 358.024 113.097 358.024C112.065 358.024 111.213 358.26 110.541 358.732C109.869 359.196 109.365 359.84 109.029 360.664C108.701 361.48 108.537 362.424 108.537 363.496C108.537 365.16 108.921 366.496 109.689 367.504C110.465 368.512 111.601 369.016 113.097 369.016ZM130.545 370V363.256C130.545 362.44 130.461 361.712 130.293 361.072C130.133 360.432 129.885 359.888 129.549 359.44C129.221 358.992 128.805 358.652 128.301 358.42C127.805 358.188 127.217 358.072 126.537 358.072C125.833 358.072 125.221 358.196 124.701 358.444C124.189 358.684 123.765 359.024 123.429 359.464C123.101 359.904 122.853 360.428 122.685 361.036C122.525 361.636 122.445 362.292 122.445 363.004L121.353 362.872C121.353 361.472 121.589 360.32 122.061 359.416C122.541 358.504 123.185 357.832 123.993 357.4C124.801 356.96 125.709 356.74 126.717 356.74C127.429 356.74 128.065 356.844 128.625 357.052C129.193 357.26 129.685 357.556 130.101 357.94C130.517 358.316 130.861 358.764 131.133 359.284C131.405 359.796 131.605 360.36 131.733 360.976C131.869 361.592 131.937 362.236 131.937 362.908V370H130.545ZM121.053 370V357.04H122.313V359.956H122.445V370H121.053ZM141.201 370C140.513 370.152 139.833 370.208 139.161 370.168C138.489 370.136 137.889 369.988 137.361 369.724C136.841 369.452 136.449 369.036 136.185 368.476C135.969 368.02 135.849 367.56 135.825 367.096C135.801 366.632 135.789 366.1 135.789 365.5V353.44H137.181V365.476C137.181 366.02 137.185 366.472 137.193 366.832C137.209 367.184 137.293 367.508 137.445 367.804C137.733 368.356 138.189 368.692 138.813 368.812C139.437 368.924 140.233 368.904 141.201 368.752V370ZM132.885 358.3V357.04H141.201V358.3H132.885ZM147.875 370.36C146.635 370.36 145.563 370.084 144.659 369.532C143.755 368.972 143.055 368.184 142.559 367.168C142.063 366.144 141.815 364.936 141.815 363.544C141.815 362.128 142.059 360.908 142.547 359.884C143.043 358.852 143.739 358.06 144.635 357.508C145.539 356.956 146.611 356.68 147.851 356.68C149.107 356.68 150.179 356.968 151.067 357.544C151.963 358.112 152.643 358.936 153.107 360.016C153.579 361.096 153.803 362.396 153.779 363.916H152.339V363.436C152.299 361.66 151.899 360.308 151.139 359.38C150.379 358.452 149.291 357.988 147.875 357.988C146.411 357.988 145.279 358.472 144.479 359.44C143.687 360.4 143.291 361.76 143.291 363.52C143.291 365.264 143.687 366.616 144.479 367.576C145.279 368.536 146.403 369.016 147.851 369.016C148.851 369.016 149.723 368.784 150.467 368.32C151.219 367.848 151.815 367.176 152.255 366.304L153.503 366.856C152.983 367.976 152.231 368.84 151.247 369.448C150.263 370.056 149.139 370.36 147.875 370.36ZM142.763 363.916V362.668H152.999V363.916H142.763ZM164.854 370V363.256C164.854 362.44 164.77 361.712 164.602 361.072C164.442 360.432 164.194 359.888 163.858 359.44C163.53 358.992 163.114 358.652 162.61 358.42C162.114 358.188 161.526 358.072 160.846 358.072C160.142 358.072 159.53 358.196 159.01 358.444C158.498 358.684 158.074 359.024 157.738 359.464C157.41 359.904 157.162 360.428 156.994 361.036C156.834 361.636 156.754 362.292 156.754 363.004L155.662 362.872C155.662 361.472 155.898 360.32 156.37 359.416C156.85 358.504 157.494 357.832 158.302 357.4C159.11 356.96 160.018 356.74 161.026 356.74C161.738 356.74 162.374 356.844 162.934 357.052C163.502 357.26 163.994 357.556 164.41 357.94C164.826 358.316 165.17 358.764 165.442 359.284C165.714 359.796 165.914 360.36 166.042 360.976C166.178 361.592 166.246 362.236 166.246 362.908V370H164.854ZM155.362 370V357.04H156.622V359.956H156.754V370H155.362ZM175.51 370C174.822 370.152 174.142 370.208 173.47 370.168C172.798 370.136 172.198 369.988 171.67 369.724C171.15 369.452 170.758 369.036 170.494 368.476C170.278 368.02 170.158 367.56 170.134 367.096C170.11 366.632 170.098 366.1 170.098 365.5V353.44H171.49V365.476C171.49 366.02 171.494 366.472 171.502 366.832C171.518 367.184 171.602 367.508 171.754 367.804C172.042 368.356 172.498 368.692 173.122 368.812C173.746 368.924 174.542 368.904 175.51 368.752V370ZM167.194 358.3V357.04H175.51V358.3H167.194ZM181.35 370V352.72H192.03V354.064H182.73V360.628H190.59V361.972H182.73V368.656H192.03V370H181.35ZM199.18 370.36C197.956 370.36 196.92 370.06 196.072 369.46C195.232 368.852 194.588 368.032 194.14 367C193.7 365.96 193.48 364.792 193.48 363.496C193.48 362.216 193.7 361.06 194.14 360.028C194.58 358.996 195.212 358.18 196.036 357.58C196.868 356.98 197.872 356.68 199.048 356.68C200.256 356.68 201.276 356.976 202.108 357.568C202.94 358.16 203.568 358.972 203.992 360.004C204.416 361.028 204.628 362.192 204.628 363.496C204.628 364.792 204.416 365.956 203.992 366.988C203.568 368.02 202.952 368.84 202.144 369.448C201.336 370.056 200.348 370.36 199.18 370.36ZM199.264 369.04C200.232 369.04 201.036 368.8 201.676 368.32C202.324 367.832 202.804 367.172 203.116 366.34C203.436 365.5 203.596 364.552 203.596 363.496C203.596 362.432 203.436 361.484 203.116 360.652C202.796 359.82 202.316 359.172 201.676 358.708C201.036 358.236 200.24 358 199.288 358C198.304 358 197.492 358.244 196.852 358.732C196.212 359.212 195.736 359.868 195.424 360.7C195.112 361.524 194.956 362.456 194.956 363.496C194.956 364.544 195.116 365.488 195.436 366.328C195.764 367.16 196.244 367.82 196.876 368.308C197.516 368.796 198.312 369.04 199.264 369.04ZM203.596 370V360.016H203.476V352.72H204.856V370H203.596ZM207.736 354.424V352.66H209.116V354.424H207.736ZM207.736 370V357.04H209.116V370H207.736ZM218.879 370C218.191 370.152 217.511 370.208 216.839 370.168C216.167 370.136 215.567 369.988 215.039 369.724C214.519 369.452 214.127 369.036 213.863 368.476C213.647 368.02 213.527 367.56 213.503 367.096C213.479 366.632 213.467 366.1 213.467 365.5V353.44H214.859V365.476C214.859 366.02 214.863 366.472 214.871 366.832C214.887 367.184 214.971 367.508 215.123 367.804C215.411 368.356 215.867 368.692 216.491 368.812C217.115 368.924 217.911 368.904 218.879 368.752V370ZM210.563 358.3V357.04H218.879V358.3H210.563ZM225.528 370.36C224.24 370.36 223.148 370.068 222.252 369.484C221.356 368.9 220.672 368.092 220.2 367.06C219.728 366.028 219.492 364.84 219.492 363.496C219.492 362.144 219.732 360.956 220.212 359.932C220.692 358.9 221.38 358.1 222.276 357.532C223.18 356.964 224.264 356.68 225.528 356.68C226.816 356.68 227.908 356.972 228.804 357.556C229.708 358.132 230.392 358.932 230.856 359.956C231.328 360.98 231.564 362.16 231.564 363.496C231.564 364.864 231.328 366.064 230.856 367.096C230.384 368.12 229.696 368.92 228.792 369.496C227.888 370.072 226.8 370.36 225.528 370.36ZM225.528 369.016C227.056 369.016 228.196 368.504 228.948 367.48C229.708 366.456 230.088 365.128 230.088 363.496C230.088 361.832 229.708 360.504 228.948 359.512C228.188 358.52 227.048 358.024 225.528 358.024C224.496 358.024 223.644 358.26 222.972 358.732C222.3 359.196 221.796 359.84 221.46 360.664C221.132 361.48 220.968 362.424 220.968 363.496C220.968 365.16 221.352 366.496 222.12 367.504C222.896 368.512 224.032 369.016 225.528 369.016ZM233.484 370V357.04H234.744V360.148L234.432 359.74C234.576 359.372 234.756 359.032 234.972 358.72C235.196 358.4 235.424 358.14 235.656 357.94C236 357.62 236.404 357.38 236.868 357.22C237.332 357.052 237.8 356.956 238.272 356.932C238.744 356.9 239.172 356.936 239.556 357.04V358.348C239.044 358.228 238.5 358.204 237.924 358.276C237.348 358.348 236.808 358.596 236.304 359.02C235.864 359.404 235.544 359.852 235.344 360.364C235.144 360.868 235.016 361.4 234.96 361.96C234.904 362.512 234.876 363.052 234.876 363.58V370H233.484Z" fill="black"/>
<defs>
<filter id="filter0_d_495_1194" x="0" y="0" width="316" height="424" filterUnits="userSpaceOnUse" color-interpolation-filters="sRGB">
<feFlood flood-opacity="0" result="BackgroundImageFix"/>
<feColorMatrix in="SourceAlpha" type="matrix" values="0 0 0 0 0 0 0 0 0 0 0 0 0 0 0 0 0 0 127 0" result="hardAlpha"/>
<feOffset dy="2"/>
<feGaussianBlur stdDeviation="2"/>
<feComposite in2="hardAlpha" operator="out"/>
<feColorMatrix type="matrix" values="0 0 0 0 0 0 0 0 0 0 0 0 0 0 0 0 0 0 0.25 0"/>
<feBlend mode="normal" in2="BackgroundImageFix" result="effect1_dropShadow_495_1194"/>
<feBlend mode="normal" in="SourceGraphic" in2="effect1_dropShadow_495_1194" result="shape"/>
</filter>
</defs>
</svg>
