<svg width="316" height="424" viewBox="0 0 316 424" fill="none" xmlns="http://www.w3.org/2000/svg">
<g filter="url(#filter0_d_495_1258)">
<rect x="4" y="2" width="308" height="416" rx="30" fill="white"/>
</g>
<path d="M226.64 140.426C228.47 191.076 202.7 209.716 163.32 209.716C112.44 207.846 110.57 190.416 100.17 140.426C90.0103 59.2556 232.76 52.5356 226.64 140.426Z" fill="white" stroke="#221F1F" stroke-width="2.5" stroke-miterlimit="10"/>
<path d="M225.251 152.756C225.221 144.066 225.201 135.376 225.121 126.296C210.491 119.596 203.781 112.726 193.671 99.6056C191.671 107.076 184.591 111.266 176.201 114.066C179.451 109.326 180.851 102.276 182.091 97.6656C178.111 108.426 166.921 117.596 156.101 117.426C160.351 112.956 160.161 108.416 162.501 102.616C151.621 113.626 135.491 127.436 128.041 124.266C133.791 119.466 136.031 110.196 139.071 106.276C127.921 111.436 113.831 134.126 106.191 132.496C110.561 119.966 109.641 117.326 110.571 111.766C104.261 121.496 100.511 151.456 101.421 162.406C89.3408 149.486 85.4208 118.976 91.6908 101.256L83.7908 113.706C83.5308 114.126 82.9108 113.846 83.0108 113.356C90.5508 75.4456 117.841 61.5456 144.761 53.3256C169.501 48.8856 184.641 50.8556 201.721 58.7856C223.691 68.9856 240.161 90.4256 236.241 115.856C236.161 116.356 235.511 116.426 235.331 115.956C232.131 107.566 230.681 105.776 227.431 101.376C235.541 116.256 235.561 135.816 225.221 152.766L225.251 152.756Z" fill="#221F1F"/>
<path d="M229.181 129.746C231.861 126.276 237.351 125.896 240.871 128.456C244.391 131.016 245.901 135.866 245.191 140.216C244.481 144.566 241.801 148.406 238.461 151.216C235.121 154.026 231.141 155.906 227.121 157.546C228.631 148.806 229.231 139.906 229.181 129.746Z" fill="white" stroke="#221F1F" stroke-width="3" stroke-miterlimit="10"/>
<path d="M101.212 135.936C98.2816 132.586 92.6016 132.436 89.0816 135.146C85.5616 137.856 84.2316 142.766 85.1716 147.086C86.1116 151.406 89.0516 155.126 92.6316 157.786C96.2116 160.446 100.412 162.166 104.632 163.626C102.662 154.956 101.632 146.086 101.212 135.936Z" fill="white" stroke="#221F1F" stroke-width="3" stroke-miterlimit="10"/>
<path d="M172.77 143.816C171.04 167.056 181.24 171.756 202.81 172.826C221.4 173.756 225.38 154.896 227.6 141.256" stroke="#221F1F" stroke-width="1.8" stroke-linecap="round" stroke-linejoin="round"/>
<path d="M148.59 155.606C156.13 152.426 164.68 151.926 172.64 154.136" stroke="#221F1F" stroke-width="1.8" stroke-linecap="round" stroke-linejoin="round"/>
<path d="M147.74 143.816C148.4 157.686 151.35 170.586 135.14 174.136C111.33 179.706 104.75 167.346 101.52 145.786" stroke="#221F1F" stroke-width="1.8" stroke-linecap="round" stroke-linejoin="round"/>
<path d="M161.45 164.086C163.62 166.676 161.62 169.466 160.26 171.916C158.9 174.366 158.25 176.786 157.84 179.456C157.43 182.136 159.17 185.446 163.18 186.846" stroke="#221F1F" stroke-width="1.8" stroke-linecap="round" stroke-linejoin="round"/>
<path d="M153.291 197.906C154.091 199.836 156.291 200.496 158.181 200.286C160.081 200.076 161.901 199.246 163.811 199.106C165.811 198.966 167.781 199.596 169.781 199.686C171.781 199.776 174.041 199.146 175.101 197.216" stroke="#221F1F" stroke-width="2" stroke-linecap="round" stroke-linejoin="round"/>
<path d="M181.141 137.536C180.111 132.976 185.691 131.536 195.861 130.456C208.411 129.126 212.741 129.356 211.791 133.986C211.191 136.896 207.731 139.066 197.071 141.066C188.131 142.746 181.791 140.406 181.141 137.536Z" fill="#221F1F"/>
<path d="M111.272 137.676C110.952 133.236 116.192 131.706 127.622 133.396C140.662 135.316 146.612 134.826 143.492 139.246C141.802 141.636 138.402 142.556 127.142 143.526C116.952 144.406 111.472 140.476 111.272 137.676Z" fill="#221F1F"/>
<path d="M185.381 160.946C185.631 161.136 185.801 161.446 186.071 161.596C189.651 163.626 193.451 163.816 196.991 162.576C200.131 161.476 205.461 159.446 204.691 153.086C204.561 152.016 204.361 150.916 203.451 150.866C198.001 150.586 192.791 150.856 186.251 151.506C186.001 151.526 185.751 151.636 185.561 151.816C183.281 154.046 182.701 158.946 185.391 160.936L185.381 160.946Z" fill="#221F1F"/>
<path d="M138.581 163.006C138.341 163.206 138.191 163.526 137.931 163.696C134.471 165.926 130.691 166.326 127.091 165.286C123.891 164.366 118.071 162.386 118.891 156.246C119.031 155.176 119.101 154.056 120.001 153.966C125.421 153.376 130.641 153.356 137.201 153.636C137.451 153.646 137.711 153.736 137.911 153.906C140.311 155.996 141.161 160.866 138.591 163.006H138.581Z" fill="#221F1F"/>
<path d="M227.602 146.076C230.942 144.106 234.012 141.376 236.622 138.066L227.602 146.076Z" fill="#221F1F"/>
<path d="M227.602 146.076C230.942 144.106 234.012 141.376 236.622 138.066" stroke="#221F1F" stroke-width="3" stroke-miterlimit="10" stroke-linecap="round"/>
<path d="M101.182 150.846C98.2319 149.456 95.3319 147.286 92.6719 144.466L101.182 150.846Z" fill="#221F1F"/>
<path d="M101.182 150.846C98.2319 149.456 95.3319 147.286 92.6719 144.466" stroke="#221F1F" stroke-width="3" stroke-miterlimit="10" stroke-linecap="round"/>
<path d="M87.0615 287.36C85.7415 287.36 84.6415 287.016 83.7615 286.328C82.8895 285.64 82.2775 284.712 81.9255 283.544L84.7815 282.86C84.8695 283.348 85.1255 283.768 85.5495 284.12C85.9735 284.472 86.4415 284.648 86.9535 284.648C87.2895 284.648 87.6455 284.56 88.0215 284.384C88.3975 284.2 88.6775 283.908 88.8615 283.508C88.9735 283.252 89.0375 282.948 89.0535 282.596C89.0775 282.236 89.0895 281.82 89.0895 281.348V269.72H92.0175V281.348C92.0175 281.884 92.0135 282.356 92.0055 282.764C92.0055 283.164 91.9655 283.544 91.8855 283.904C91.8135 284.256 91.6655 284.62 91.4415 284.996C90.9695 285.812 90.3535 286.412 89.5935 286.796C88.8335 287.172 87.9895 287.36 87.0615 287.36ZM100.633 287.36C99.3369 287.36 98.2049 287.068 97.2369 286.484C96.2689 285.9 95.5169 285.096 94.9809 284.072C94.4529 283.04 94.1889 281.856 94.1889 280.52C94.1889 279.16 94.4609 277.968 95.0049 276.944C95.5489 275.92 96.3049 275.12 97.2729 274.544C98.2409 273.968 99.3609 273.68 100.633 273.68C101.937 273.68 103.073 273.972 104.041 274.556C105.009 275.14 105.761 275.948 106.297 276.98C106.833 278.004 107.101 279.184 107.101 280.52C107.101 281.864 106.829 283.052 106.285 284.084C105.749 285.108 104.997 285.912 104.029 286.496C103.061 287.072 101.929 287.36 100.633 287.36ZM100.633 284.648C101.785 284.648 102.641 284.264 103.201 283.496C103.761 282.728 104.041 281.736 104.041 280.52C104.041 279.264 103.757 278.264 103.189 277.52C102.621 276.768 101.769 276.392 100.633 276.392C99.8569 276.392 99.2169 276.568 98.7129 276.92C98.2169 277.264 97.8489 277.748 97.6089 278.372C97.3689 278.988 97.2489 279.704 97.2489 280.52C97.2489 281.776 97.5329 282.78 98.1009 283.532C98.6769 284.276 99.5209 284.648 100.633 284.648ZM109.025 287V274.04H111.581V277.196L111.269 276.788C111.429 276.356 111.641 275.964 111.905 275.612C112.177 275.252 112.501 274.956 112.877 274.724C113.197 274.508 113.549 274.34 113.933 274.22C114.325 274.092 114.725 274.016 115.133 273.992C115.541 273.96 115.937 273.976 116.321 274.04V276.74C115.937 276.628 115.493 276.592 114.989 276.632C114.493 276.672 114.045 276.812 113.645 277.052C113.245 277.268 112.917 277.544 112.661 277.88C112.413 278.216 112.229 278.6 112.109 279.032C111.989 279.456 111.929 279.916 111.929 280.412V287H109.025ZM122.852 287.36C121.66 287.36 120.62 287.06 119.732 286.46C118.844 285.86 118.156 285.044 117.668 284.012C117.18 282.98 116.936 281.816 116.936 280.52C116.936 279.208 117.18 278.04 117.668 277.016C118.164 275.984 118.864 275.172 119.768 274.58C120.672 273.98 121.736 273.68 122.96 273.68C124.192 273.68 125.224 273.98 126.056 274.58C126.896 275.172 127.532 275.984 127.964 277.016C128.396 278.048 128.612 279.216 128.612 280.52C128.612 281.808 128.396 282.972 127.964 284.012C127.532 285.044 126.888 285.86 126.032 286.46C125.176 287.06 124.116 287.36 122.852 287.36ZM123.296 284.768C124.072 284.768 124.696 284.592 125.168 284.24C125.648 283.88 125.996 283.38 126.212 282.74C126.436 282.1 126.548 281.36 126.548 280.52C126.548 279.672 126.436 278.932 126.212 278.3C125.996 277.66 125.656 277.164 125.192 276.812C124.728 276.452 124.128 276.272 123.392 276.272C122.616 276.272 121.976 276.464 121.472 276.848C120.968 277.224 120.596 277.736 120.356 278.384C120.116 279.024 119.996 279.736 119.996 280.52C119.996 281.312 120.112 282.032 120.344 282.68C120.584 283.32 120.948 283.828 121.436 284.204C121.924 284.58 122.544 284.768 123.296 284.768ZM126.548 287V277.904H126.188V269.72H129.104V287H126.548ZM135.373 287.36C134.437 287.36 133.645 287.184 132.997 286.832C132.349 286.472 131.857 285.996 131.521 285.404C131.193 284.812 131.029 284.16 131.029 283.448C131.029 282.824 131.133 282.264 131.341 281.768C131.549 281.264 131.869 280.832 132.301 280.472C132.733 280.104 133.293 279.804 133.981 279.572C134.501 279.404 135.109 279.252 135.805 279.116C136.509 278.98 137.269 278.856 138.085 278.744C138.909 278.624 139.769 278.496 140.665 278.36L139.633 278.948C139.641 278.052 139.441 277.392 139.033 276.968C138.625 276.544 137.937 276.332 136.969 276.332C136.385 276.332 135.821 276.468 135.277 276.74C134.733 277.012 134.353 277.48 134.137 278.144L131.497 277.316C131.817 276.22 132.425 275.34 133.321 274.676C134.225 274.012 135.441 273.68 136.969 273.68C138.121 273.68 139.133 273.868 140.005 274.244C140.885 274.62 141.537 275.236 141.961 276.092C142.193 276.548 142.333 277.016 142.381 277.496C142.429 277.968 142.453 278.484 142.453 279.044V287H139.921V284.192L140.341 284.648C139.757 285.584 139.073 286.272 138.289 286.712C137.513 287.144 136.541 287.36 135.373 287.36ZM135.949 285.056C136.605 285.056 137.165 284.94 137.629 284.708C138.093 284.476 138.461 284.192 138.733 283.856C139.013 283.52 139.201 283.204 139.297 282.908C139.449 282.54 139.533 282.12 139.549 281.648C139.573 281.168 139.585 280.78 139.585 280.484L140.473 280.748C139.601 280.884 138.853 281.004 138.229 281.108C137.605 281.212 137.069 281.312 136.621 281.408C136.173 281.496 135.777 281.596 135.433 281.708C135.097 281.828 134.813 281.968 134.581 282.128C134.349 282.288 134.169 282.472 134.041 282.68C133.921 282.888 133.861 283.132 133.861 283.412C133.861 283.732 133.941 284.016 134.101 284.264C134.261 284.504 134.493 284.696 134.797 284.84C135.109 284.984 135.493 285.056 135.949 285.056ZM153.821 287V280.76C153.821 280.352 153.793 279.9 153.737 279.404C153.681 278.908 153.549 278.432 153.341 277.976C153.141 277.512 152.837 277.132 152.429 276.836C152.029 276.54 151.485 276.392 150.797 276.392C150.429 276.392 150.065 276.452 149.705 276.572C149.345 276.692 149.017 276.9 148.721 277.196C148.433 277.484 148.201 277.884 148.025 278.396C147.849 278.9 147.761 279.548 147.761 280.34L146.045 279.608C146.045 278.504 146.257 277.504 146.681 276.608C147.113 275.712 147.745 275 148.577 274.472C149.409 273.936 150.433 273.668 151.649 273.668C152.609 273.668 153.401 273.828 154.025 274.148C154.649 274.468 155.145 274.876 155.513 275.372C155.881 275.868 156.153 276.396 156.329 276.956C156.505 277.516 156.617 278.048 156.665 278.552C156.721 279.048 156.749 279.452 156.749 279.764V287H153.821ZM144.833 287V274.04H147.413V278.06H147.761V287H144.833ZM163.245 287V269.72H166.173L174.189 281.9V269.72H177.117V287H174.189L166.173 274.82V287H163.245ZM185.2 293.12C184.48 293.12 183.788 293.008 183.124 292.784C182.468 292.56 181.876 292.236 181.348 291.812C180.82 291.396 180.388 290.892 180.052 290.3L182.716 288.98C182.964 289.452 183.312 289.8 183.76 290.024C184.216 290.256 184.7 290.372 185.212 290.372C185.812 290.372 186.348 290.264 186.82 290.048C187.292 289.84 187.656 289.528 187.912 289.112C188.176 288.704 188.3 288.192 188.284 287.576V283.892H188.644V274.04H191.176V287.624C191.176 287.952 191.16 288.264 191.128 288.56C191.104 288.864 191.06 289.16 190.996 289.448C190.804 290.288 190.436 290.976 189.892 291.512C189.348 292.056 188.672 292.46 187.864 292.724C187.064 292.988 186.176 293.12 185.2 293.12ZM184.948 287.36C183.756 287.36 182.716 287.06 181.828 286.46C180.94 285.86 180.252 285.044 179.764 284.012C179.276 282.98 179.032 281.816 179.032 280.52C179.032 279.208 179.276 278.04 179.764 277.016C180.26 275.984 180.96 275.172 181.864 274.58C182.768 273.98 183.832 273.68 185.056 273.68C186.288 273.68 187.32 273.98 188.152 274.58C188.992 275.172 189.628 275.984 190.06 277.016C190.492 278.048 190.708 279.216 190.708 280.52C190.708 281.808 190.492 282.972 190.06 284.012C189.628 285.044 188.984 285.86 188.128 286.46C187.272 287.06 186.212 287.36 184.948 287.36ZM185.392 284.768C186.168 284.768 186.792 284.592 187.264 284.24C187.744 283.88 188.092 283.38 188.308 282.74C188.532 282.1 188.644 281.36 188.644 280.52C188.644 279.672 188.532 278.932 188.308 278.3C188.092 277.66 187.752 277.164 187.288 276.812C186.824 276.452 186.224 276.272 185.488 276.272C184.712 276.272 184.072 276.464 183.568 276.848C183.064 277.224 182.692 277.736 182.452 278.384C182.212 279.024 182.092 279.736 182.092 280.52C182.092 281.312 182.208 282.032 182.44 282.68C182.68 283.32 183.044 283.828 183.532 284.204C184.02 284.58 184.64 284.768 185.392 284.768ZM198.681 287.372C197.721 287.372 196.929 287.212 196.305 286.892C195.681 286.572 195.185 286.164 194.817 285.668C194.449 285.172 194.177 284.644 194.001 284.084C193.825 283.524 193.709 282.996 193.653 282.5C193.605 281.996 193.581 281.588 193.581 281.276V274.04H196.509V280.28C196.509 280.68 196.537 281.132 196.593 281.636C196.649 282.132 196.777 282.612 196.977 283.076C197.185 283.532 197.489 283.908 197.889 284.204C198.297 284.5 198.845 284.648 199.533 284.648C199.901 284.648 200.265 284.588 200.625 284.468C200.985 284.348 201.309 284.144 201.597 283.856C201.893 283.56 202.129 283.156 202.305 282.644C202.481 282.132 202.569 281.484 202.569 280.7L204.285 281.432C204.285 282.536 204.069 283.536 203.637 284.432C203.213 285.328 202.585 286.044 201.753 286.58C200.921 287.108 199.897 287.372 198.681 287.372ZM202.917 287V282.98H202.569V274.04H205.473V287H202.917ZM209.828 292.76L212.324 285.908L212.372 287.924L206.72 274.04H209.732L213.74 284.312H212.972L216.872 274.04H219.764L212.54 292.76H209.828ZM226.257 287.36C224.945 287.36 223.793 287.076 222.801 286.508C221.809 285.94 221.033 285.152 220.473 284.144C219.921 283.136 219.645 281.976 219.645 280.664C219.645 279.248 219.917 278.02 220.461 276.98C221.005 275.932 221.761 275.12 222.729 274.544C223.697 273.968 224.817 273.68 226.089 273.68C227.433 273.68 228.573 273.996 229.509 274.628C230.453 275.252 231.153 276.136 231.609 277.28C232.065 278.424 232.237 279.772 232.125 281.324H229.257V280.268C229.249 278.86 229.001 277.832 228.513 277.184C228.025 276.536 227.257 276.212 226.209 276.212C225.025 276.212 224.145 276.58 223.569 277.316C222.993 278.044 222.705 279.112 222.705 280.52C222.705 281.832 222.993 282.848 223.569 283.568C224.145 284.288 224.985 284.648 226.089 284.648C226.801 284.648 227.413 284.492 227.925 284.18C228.445 283.86 228.845 283.4 229.125 282.8L231.981 283.664C231.485 284.832 230.717 285.74 229.677 286.388C228.645 287.036 227.505 287.36 226.257 287.36ZM221.793 281.324V279.14H230.709V281.324H221.793ZM242.695 287V280.76C242.695 280.352 242.667 279.9 242.611 279.404C242.555 278.908 242.423 278.432 242.215 277.976C242.015 277.512 241.711 277.132 241.303 276.836C240.903 276.54 240.359 276.392 239.671 276.392C239.303 276.392 238.939 276.452 238.579 276.572C238.219 276.692 237.891 276.9 237.595 277.196C237.307 277.484 237.075 277.884 236.899 278.396C236.723 278.9 236.635 279.548 236.635 280.34L234.919 279.608C234.919 278.504 235.131 277.504 235.555 276.608C235.987 275.712 236.619 275 237.451 274.472C238.283 273.936 239.307 273.668 240.523 273.668C241.483 273.668 242.275 273.828 242.899 274.148C243.523 274.468 244.019 274.876 244.387 275.372C244.755 275.868 245.027 276.396 245.203 276.956C245.379 277.516 245.491 278.048 245.539 278.552C245.595 279.048 245.623 279.452 245.623 279.764V287H242.695ZM233.707 287V274.04H236.287V278.06H236.635V287H233.707ZM60.7577 324V306.72H70.5137V308.1H62.1377V314.664H69.0737V316.056H62.1377V324H60.7577ZM71.9439 324V311.04H73.2039V314.148L72.8919 313.74C73.0359 313.372 73.2159 313.032 73.4319 312.72C73.6559 312.4 73.8839 312.14 74.1159 311.94C74.4599 311.62 74.8639 311.38 75.3279 311.22C75.7919 311.052 76.2599 310.956 76.7319 310.932C77.2039 310.9 77.6319 310.936 78.0159 311.04V312.348C77.5039 312.228 76.9599 312.204 76.3839 312.276C75.8079 312.348 75.2679 312.596 74.7639 313.02C74.3239 313.404 74.0039 313.852 73.8039 314.364C73.6039 314.868 73.4759 315.4 73.4199 315.96C73.3639 316.512 73.3359 317.052 73.3359 317.58V324H71.9439ZM84.6493 324.36C83.3613 324.36 82.2693 324.068 81.3733 323.484C80.4773 322.9 79.7933 322.092 79.3213 321.06C78.8493 320.028 78.6133 318.84 78.6133 317.496C78.6133 316.144 78.8533 314.956 79.3333 313.932C79.8133 312.9 80.5013 312.1 81.3973 311.532C82.3013 310.964 83.3853 310.68 84.6493 310.68C85.9373 310.68 87.0293 310.972 87.9253 311.556C88.8293 312.132 89.5133 312.932 89.9773 313.956C90.4493 314.98 90.6853 316.16 90.6853 317.496C90.6853 318.864 90.4493 320.064 89.9773 321.096C89.5053 322.12 88.8173 322.92 87.9133 323.496C87.0093 324.072 85.9213 324.36 84.6493 324.36ZM84.6493 323.016C86.1773 323.016 87.3173 322.504 88.0693 321.48C88.8293 320.456 89.2093 319.128 89.2093 317.496C89.2093 315.832 88.8293 314.504 88.0693 313.512C87.3093 312.52 86.1693 312.024 84.6493 312.024C83.6173 312.024 82.7653 312.26 82.0933 312.732C81.4213 313.196 80.9173 313.84 80.5813 314.664C80.2533 315.48 80.0893 316.424 80.0893 317.496C80.0893 319.16 80.4733 320.496 81.2413 321.504C82.0173 322.512 83.1533 323.016 84.6493 323.016ZM102.097 324V317.256C102.097 316.44 102.013 315.712 101.845 315.072C101.685 314.432 101.437 313.888 101.101 313.44C100.773 312.992 100.357 312.652 99.8535 312.42C99.3575 312.188 98.7695 312.072 98.0895 312.072C97.3855 312.072 96.7735 312.196 96.2535 312.444C95.7415 312.684 95.3175 313.024 94.9815 313.464C94.6535 313.904 94.4055 314.428 94.2375 315.036C94.0775 315.636 93.9975 316.292 93.9975 317.004L92.9055 316.872C92.9055 315.472 93.1415 314.32 93.6135 313.416C94.0935 312.504 94.7375 311.832 95.5455 311.4C96.3535 310.96 97.2615 310.74 98.2695 310.74C98.9815 310.74 99.6175 310.844 100.177 311.052C100.745 311.26 101.237 311.556 101.653 311.94C102.069 312.316 102.413 312.764 102.685 313.284C102.957 313.796 103.157 314.36 103.285 314.976C103.421 315.592 103.489 316.236 103.489 316.908V324H102.097ZM92.6055 324V311.04H93.8655V313.956H93.9975V324H92.6055ZM112.754 324C112.066 324.152 111.386 324.208 110.714 324.168C110.042 324.136 109.442 323.988 108.914 323.724C108.394 323.452 108.002 323.036 107.738 322.476C107.522 322.02 107.402 321.56 107.378 321.096C107.354 320.632 107.342 320.1 107.342 319.5V307.44H108.734V319.476C108.734 320.02 108.738 320.472 108.746 320.832C108.762 321.184 108.846 321.508 108.998 321.804C109.286 322.356 109.742 322.692 110.366 322.812C110.99 322.924 111.786 322.904 112.754 322.752V324ZM104.438 312.3V311.04H112.754V312.3H104.438ZM114.269 317.064V315.804H121.469V317.064H114.269ZM123.867 324V306.72H134.547V308.064H125.247V314.628H133.107V315.972H125.247V322.656H134.547V324H123.867ZM146.21 324V317.256C146.21 316.44 146.126 315.712 145.958 315.072C145.798 314.432 145.55 313.888 145.214 313.44C144.886 312.992 144.47 312.652 143.966 312.42C143.47 312.188 142.882 312.072 142.202 312.072C141.498 312.072 140.886 312.196 140.366 312.444C139.854 312.684 139.43 313.024 139.094 313.464C138.766 313.904 138.518 314.428 138.35 315.036C138.19 315.636 138.11 316.292 138.11 317.004L137.018 316.872C137.018 315.472 137.254 314.32 137.726 313.416C138.206 312.504 138.85 311.832 139.658 311.4C140.466 310.96 141.374 310.74 142.382 310.74C143.094 310.74 143.73 310.844 144.29 311.052C144.858 311.26 145.35 311.556 145.766 311.94C146.182 312.316 146.526 312.764 146.798 313.284C147.07 313.796 147.27 314.36 147.398 314.976C147.534 315.592 147.602 316.236 147.602 316.908V324H146.21ZM136.718 324V311.04H137.978V313.956H138.11V324H136.718ZM154.923 324.36C153.699 324.36 152.663 324.06 151.815 323.46C150.975 322.852 150.331 322.032 149.883 321C149.443 319.96 149.223 318.792 149.223 317.496C149.223 316.216 149.443 315.06 149.883 314.028C150.323 312.996 150.955 312.18 151.779 311.58C152.611 310.98 153.615 310.68 154.791 310.68C155.999 310.68 157.019 310.976 157.851 311.568C158.683 312.16 159.311 312.972 159.735 314.004C160.159 315.028 160.371 316.192 160.371 317.496C160.371 318.792 160.159 319.956 159.735 320.988C159.311 322.02 158.695 322.84 157.887 323.448C157.079 324.056 156.091 324.36 154.923 324.36ZM155.007 323.04C155.975 323.04 156.779 322.8 157.419 322.32C158.067 321.832 158.547 321.172 158.859 320.34C159.179 319.5 159.339 318.552 159.339 317.496C159.339 316.432 159.179 315.484 158.859 314.652C158.539 313.82 158.059 313.172 157.419 312.708C156.779 312.236 155.983 312 155.031 312C154.047 312 153.235 312.244 152.595 312.732C151.955 313.212 151.479 313.868 151.167 314.7C150.855 315.524 150.699 316.456 150.699 317.496C150.699 318.544 150.859 319.488 151.179 320.328C151.507 321.16 151.987 321.82 152.619 322.308C153.259 322.796 154.055 323.04 155.007 323.04ZM159.339 324V314.016H159.219V306.72H160.599V324H159.339ZM167.323 324V306.72H172.471C172.671 306.72 172.995 306.724 173.443 306.732C173.899 306.74 174.331 306.776 174.739 306.84C176.035 307.016 177.111 307.504 177.967 308.304C178.823 309.096 179.463 310.104 179.887 311.328C180.311 312.544 180.523 313.888 180.523 315.36C180.523 316.84 180.311 318.192 179.887 319.416C179.463 320.632 178.823 321.636 177.967 322.428C177.111 323.22 176.035 323.704 174.739 323.88C174.331 323.936 173.895 323.972 173.431 323.988C172.975 323.996 172.655 324 172.471 324H167.323ZM168.775 322.644H172.471C172.831 322.644 173.203 322.636 173.587 322.62C173.971 322.596 174.299 322.56 174.571 322.512C175.643 322.32 176.507 321.896 177.163 321.24C177.819 320.576 178.295 319.74 178.591 318.732C178.895 317.716 179.047 316.592 179.047 315.36C179.047 314.12 178.895 312.996 178.591 311.988C178.287 310.972 177.807 310.136 177.151 309.48C176.495 308.816 175.635 308.392 174.571 308.208C174.299 308.16 173.963 308.128 173.563 308.112C173.171 308.088 172.807 308.076 172.471 308.076H168.775V322.644ZM187.81 324.36C186.57 324.36 185.498 324.084 184.594 323.532C183.69 322.972 182.99 322.184 182.494 321.168C181.998 320.144 181.75 318.936 181.75 317.544C181.75 316.128 181.994 314.908 182.482 313.884C182.978 312.852 183.674 312.06 184.57 311.508C185.474 310.956 186.546 310.68 187.786 310.68C189.042 310.68 190.114 310.968 191.002 311.544C191.898 312.112 192.578 312.936 193.042 314.016C193.514 315.096 193.738 316.396 193.714 317.916H192.274V317.436C192.234 315.66 191.834 314.308 191.074 313.38C190.314 312.452 189.226 311.988 187.81 311.988C186.346 311.988 185.214 312.472 184.414 313.44C183.622 314.4 183.226 315.76 183.226 317.52C183.226 319.264 183.622 320.616 184.414 321.576C185.214 322.536 186.338 323.016 187.786 323.016C188.786 323.016 189.658 322.784 190.402 322.32C191.154 321.848 191.75 321.176 192.19 320.304L193.438 320.856C192.918 321.976 192.166 322.84 191.182 323.448C190.198 324.056 189.074 324.36 187.81 324.36ZM182.698 317.916V316.668H192.934V317.916H182.698ZM198.684 324L193.98 311.04H195.408L199.416 322.116L203.412 311.04H204.852L200.148 324H198.684ZM211.167 324.36C209.927 324.36 208.855 324.084 207.951 323.532C207.047 322.972 206.347 322.184 205.851 321.168C205.355 320.144 205.107 318.936 205.107 317.544C205.107 316.128 205.351 314.908 205.839 313.884C206.335 312.852 207.031 312.06 207.927 311.508C208.831 310.956 209.903 310.68 211.143 310.68C212.399 310.68 213.471 310.968 214.359 311.544C215.255 312.112 215.935 312.936 216.399 314.016C216.871 315.096 217.095 316.396 217.071 317.916H215.631V317.436C215.591 315.66 215.191 314.308 214.431 313.38C213.671 312.452 212.583 311.988 211.167 311.988C209.703 311.988 208.571 312.472 207.771 313.44C206.979 314.4 206.583 315.76 206.583 317.52C206.583 319.264 206.979 320.616 207.771 321.576C208.571 322.536 209.695 323.016 211.143 323.016C212.143 323.016 213.015 322.784 213.759 322.32C214.511 321.848 215.107 321.176 215.547 320.304L216.795 320.856C216.275 321.976 215.523 322.84 214.539 323.448C213.555 324.056 212.431 324.36 211.167 324.36ZM206.055 317.916V316.668H216.291V317.916H206.055ZM219.246 324V306.36H220.626V324H219.246ZM228.828 324.36C227.54 324.36 226.448 324.068 225.552 323.484C224.656 322.9 223.972 322.092 223.5 321.06C223.028 320.028 222.792 318.84 222.792 317.496C222.792 316.144 223.032 314.956 223.512 313.932C223.992 312.9 224.68 312.1 225.576 311.532C226.48 310.964 227.564 310.68 228.828 310.68C230.116 310.68 231.208 310.972 232.104 311.556C233.008 312.132 233.692 312.932 234.156 313.956C234.628 314.98 234.864 316.16 234.864 317.496C234.864 318.864 234.628 320.064 234.156 321.096C233.684 322.12 232.996 322.92 232.092 323.496C231.188 324.072 230.1 324.36 228.828 324.36ZM228.828 323.016C230.356 323.016 231.496 322.504 232.248 321.48C233.008 320.456 233.388 319.128 233.388 317.496C233.388 315.832 233.008 314.504 232.248 313.512C231.488 312.52 230.348 312.024 228.828 312.024C227.796 312.024 226.944 312.26 226.272 312.732C225.6 313.196 225.096 313.84 224.76 314.664C224.432 315.48 224.268 316.424 224.268 317.496C224.268 319.16 224.652 320.496 225.42 321.504C226.196 322.512 227.332 323.016 228.828 323.016ZM242.461 324.36C241.293 324.36 240.305 324.056 239.497 323.448C238.689 322.84 238.073 322.02 237.649 320.988C237.225 319.956 237.013 318.792 237.013 317.496C237.013 316.192 237.225 315.028 237.649 314.004C238.073 312.972 238.701 312.16 239.533 311.568C240.365 310.976 241.385 310.68 242.593 310.68C243.769 310.68 244.773 310.98 245.605 311.58C246.437 312.18 247.069 312.996 247.501 314.028C247.941 315.06 248.161 316.216 248.161 317.496C248.161 318.792 247.937 319.96 247.489 321C247.049 322.032 246.405 322.852 245.557 323.46C244.717 324.06 243.685 324.36 242.461 324.36ZM236.785 329.76V311.04H238.045V321.024H238.165V329.76H236.785ZM242.377 323.04C243.329 323.04 244.121 322.796 244.753 322.308C245.393 321.82 245.873 321.16 246.193 320.328C246.521 319.488 246.685 318.544 246.685 317.496C246.685 316.456 246.525 315.524 246.205 314.7C245.893 313.868 245.417 313.212 244.777 312.732C244.145 312.244 243.337 312 242.353 312C241.401 312 240.605 312.236 239.965 312.708C239.325 313.172 238.845 313.82 238.525 314.652C238.205 315.484 238.045 316.432 238.045 317.496C238.045 318.552 238.201 319.5 238.513 320.34C238.833 321.172 239.313 321.832 239.953 322.32C240.601 322.8 241.409 323.04 242.377 323.04ZM255.42 324.36C254.18 324.36 253.108 324.084 252.204 323.532C251.3 322.972 250.6 322.184 250.104 321.168C249.608 320.144 249.36 318.936 249.36 317.544C249.36 316.128 249.604 314.908 250.092 313.884C250.588 312.852 251.284 312.06 252.18 311.508C253.084 310.956 254.156 310.68 255.396 310.68C256.652 310.68 257.724 310.968 258.612 311.544C259.508 312.112 260.188 312.936 260.652 314.016C261.124 315.096 261.348 316.396 261.324 317.916H259.884V317.436C259.844 315.66 259.444 314.308 258.684 313.38C257.924 312.452 256.836 311.988 255.42 311.988C253.956 311.988 252.824 312.472 252.024 313.44C251.232 314.4 250.836 315.76 250.836 317.52C250.836 319.264 251.232 320.616 252.024 321.576C252.824 322.536 253.948 323.016 255.396 323.016C256.396 323.016 257.268 322.784 258.012 322.32C258.764 321.848 259.36 321.176 259.8 320.304L261.048 320.856C260.528 321.976 259.776 322.84 258.792 323.448C257.808 324.056 256.684 324.36 255.42 324.36ZM250.308 317.916V316.668H260.544V317.916H250.308ZM263.259 324V311.04H264.519V314.148L264.207 313.74C264.351 313.372 264.531 313.032 264.747 312.72C264.971 312.4 265.199 312.14 265.431 311.94C265.775 311.62 266.179 311.38 266.643 311.22C267.107 311.052 267.575 310.956 268.047 310.932C268.519 310.9 268.947 310.936 269.331 311.04V312.348C268.819 312.228 268.275 312.204 267.699 312.276C267.123 312.348 266.583 312.596 266.079 313.02C265.639 313.404 265.319 313.852 265.119 314.364C264.919 314.868 264.791 315.4 264.735 315.96C264.679 316.512 264.651 317.052 264.651 317.58V324H263.259Z" fill="black"/>
<defs>
<filter id="filter0_d_495_1258" x="0" y="0" width="316" height="424" filterUnits="userSpaceOnUse" color-interpolation-filters="sRGB">
<feFlood flood-opacity="0" result="BackgroundImageFix"/>
<feColorMatrix in="SourceAlpha" type="matrix" values="0 0 0 0 0 0 0 0 0 0 0 0 0 0 0 0 0 0 127 0" result="hardAlpha"/>
<feOffset dy="2"/>
<feGaussianBlur stdDeviation="2"/>
<feComposite in2="hardAlpha" operator="out"/>
<feColorMatrix type="matrix" values="0 0 0 0 0 0 0 0 0 0 0 0 0 0 0 0 0 0 0.25 0"/>
<feBlend mode="normal" in2="BackgroundImageFix" result="effect1_dropShadow_495_1258"/>
<feBlend mode="normal" in="SourceGraphic" in2="effect1_dropShadow_495_1258" result="shape"/>
</filter>
</defs>
</svg>
