<svg width="316" height="424" viewBox="0 0 316 424" fill="none" xmlns="http://www.w3.org/2000/svg">
<g filter="url(#filter0_d_502_1392)">
<rect x="4" y="2" width="308" height="416" rx="30" fill="white"/>
</g>
<path d="M88.9823 151.463C91.0523 120.373 120.842 97.0526 155.522 99.3626C190.202 101.673 219.512 128.943 217.442 160.023C215.372 191.113 182.692 211.063 148.722 210.103C113.992 209.123 86.9123 182.543 88.9823 151.463Z" fill="white" stroke="#221F1F" stroke-width="3" stroke-miterlimit="10"/>
<path d="M213.542 174.363C221.662 154.253 204.962 125.763 188.312 110.993C188.142 110.843 187.882 110.893 187.782 111.093C185.672 115.253 183.362 119.313 185.862 124.383C185.972 124.613 187.382 125.833 187.132 125.813C180.862 125.193 173.572 113.973 171.292 107.863C171.162 107.503 170.612 107.623 170.642 108.003C171.042 113.483 173.122 122.343 175.532 127.043C175.662 127.293 175.432 127.593 175.152 127.513C166.972 125.333 158.742 115.673 154.592 107.803C154.492 107.613 154.242 107.563 154.082 107.703C151.022 110.463 153.862 117.723 156.912 123.993C157.012 124.193 156.872 124.443 156.642 124.463C147.852 125.303 137.472 116.853 133.402 108.563C133.242 108.243 132.762 108.363 132.772 108.713C133.002 115.923 133.532 121.403 135.952 125.203C136.442 125.983 135.622 126.893 134.782 126.493C129.822 124.113 126.572 121.713 123.582 111.573C123.502 111.293 123.112 111.243 122.962 111.493C113.552 127.263 111.522 125.313 105.802 138.433C105.702 138.673 105.342 138.713 105.202 138.493C102.312 133.953 103.632 126.843 105.392 121.673C105.502 121.343 105.062 121.083 104.822 121.353C90.0218 137.463 87.9318 162.393 98.3618 181.623C71.9818 133.493 70.0218 94.1826 113.662 72.6726C114.002 72.5026 113.842 71.9926 113.462 72.0526C105.892 73.3526 98.3718 78.6426 91.0618 81.7226C90.7518 81.8526 90.4618 81.4826 90.6518 81.2126C107.062 58.6326 125.832 52.7726 158.542 60.2826C158.612 60.3026 158.682 60.2826 158.752 60.2626C188.932 47.0726 214.482 61.4626 217.992 72.9526C218.082 73.2426 217.772 73.4826 217.502 73.3326C210.182 68.9826 198.962 66.1126 193.212 65.6026C192.812 65.5726 192.712 66.1126 193.092 66.2326C210.022 71.6126 222.012 86.9226 227.822 106.613C231.032 117.493 231.732 128.913 230.442 140.143C228.882 153.683 223.752 162.863 214.112 174.693C213.872 174.993 213.392 174.723 213.542 174.373V174.363Z" fill="#221F1F"/>
<path d="M160.543 145.993C160.953 142.553 169.533 143.213 179.653 141.933C198.063 139.603 197.703 146.893 197.293 150.333C196.883 153.773 189.853 152.973 178.963 152.423C168.763 151.913 160.133 149.443 160.543 145.993Z" fill="#221F1F"/>
<path d="M136.964 145.943C136.454 142.643 128.374 143.413 118.764 142.333C101.284 140.373 101.884 147.373 102.394 150.673C102.904 153.973 109.514 153.093 119.794 152.403C129.424 151.753 137.484 149.253 136.974 145.953L136.964 145.943Z" fill="#221F1F"/>
<path d="M167.082 167.363C169.352 164.203 172.802 162.813 179.282 161.643C189.472 159.803 191.672 162.173 190.622 168.933C190.072 172.483 184.342 173.063 177.592 173.383C168.772 173.793 165.122 170.083 167.082 167.363Z" fill="#221F1F"/>
<path d="M136.493 167.893C134.253 164.453 130.823 162.843 124.353 161.353C114.183 159.003 111.963 161.443 112.933 168.653C113.443 172.443 119.163 173.283 125.913 173.873C134.733 174.653 138.413 170.843 136.493 167.883V167.893Z" fill="#221F1F"/>
<path d="M150.113 163.903C151.443 168.083 151.313 172.613 149.763 176.693C149.243 178.053 148.563 179.463 148.883 180.883C149.203 182.303 151.133 183.503 152.393 182.633" stroke="#221F1F" stroke-width="2" stroke-miterlimit="10" stroke-linecap="round"/>
<path d="M143.523 192.853C147.953 194.783 153.153 194.813 157.593 192.933" stroke="#221F1F" stroke-width="2" stroke-miterlimit="10" stroke-linecap="round"/>
<path d="M87.3326 142.163C84.4026 138.813 78.7226 138.663 75.2026 141.373C71.6826 144.083 70.3527 148.993 71.2927 153.313C72.2327 157.633 75.1726 161.353 78.7526 164.013C82.3326 166.673 86.5326 168.393 90.7526 169.853C88.7826 161.183 87.7526 152.313 87.3326 142.163Z" fill="white" stroke="#221F1F" stroke-width="3" stroke-miterlimit="10"/>
<path d="M88.2728 157.793C84.5628 156.233 80.9428 153.763 77.6328 150.523L88.2728 157.793Z" fill="#221F1F"/>
<path d="M88.2728 157.793C84.5628 156.233 80.9428 153.763 77.6328 150.523" stroke="#221F1F" stroke-width="3" stroke-miterlimit="10" stroke-linecap="round"/>
<path d="M219.223 144.273C222.163 140.653 228.353 139.983 232.383 142.353C236.423 144.723 238.233 149.503 237.523 153.903C236.813 158.303 233.883 162.283 230.183 165.273C226.483 168.263 222.033 170.373 217.533 172.223C219.043 163.393 219.513 154.443 219.223 144.273Z" fill="white" stroke="#221F1F" stroke-width="3" stroke-miterlimit="10"/>
<path d="M227.623 152.563C225.043 155.643 221.613 158.373 217.533 160.583L227.623 152.563Z" fill="#221F1F"/>
<path d="M227.623 152.563C225.043 155.643 221.613 158.373 217.533 160.583" stroke="#221F1F" stroke-width="3" stroke-miterlimit="10" stroke-linecap="round"/>
<path d="M91.9759 289V271.72H94.8679V279.736L101.768 271.72H105.32L97.8919 280.192L105.824 289H102.152L94.8679 280.936V289H91.9759ZM115.759 289V282.76C115.759 282.352 115.731 281.9 115.675 281.404C115.619 280.908 115.487 280.432 115.279 279.976C115.079 279.512 114.775 279.132 114.367 278.836C113.967 278.54 113.423 278.392 112.735 278.392C112.367 278.392 112.003 278.452 111.643 278.572C111.283 278.692 110.955 278.9 110.659 279.196C110.371 279.484 110.139 279.884 109.963 280.396C109.787 280.9 109.699 281.548 109.699 282.34L107.983 281.608C107.983 280.504 108.195 279.504 108.619 278.608C109.051 277.712 109.683 277 110.515 276.472C111.347 275.936 112.371 275.668 113.587 275.668C114.547 275.668 115.339 275.828 115.963 276.148C116.587 276.468 117.083 276.876 117.451 277.372C117.819 277.868 118.091 278.396 118.267 278.956C118.443 279.516 118.555 280.048 118.603 280.552C118.659 281.048 118.687 281.452 118.687 281.764V289H115.759ZM106.771 289V271.72H109.351V280.816H109.699V289H106.771ZM124.722 289.36C123.786 289.36 122.994 289.184 122.346 288.832C121.698 288.472 121.206 287.996 120.87 287.404C120.542 286.812 120.378 286.16 120.378 285.448C120.378 284.824 120.482 284.264 120.69 283.768C120.898 283.264 121.218 282.832 121.65 282.472C122.082 282.104 122.642 281.804 123.33 281.572C123.85 281.404 124.458 281.252 125.154 281.116C125.858 280.98 126.618 280.856 127.434 280.744C128.258 280.624 129.118 280.496 130.014 280.36L128.982 280.948C128.99 280.052 128.79 279.392 128.382 278.968C127.974 278.544 127.286 278.332 126.318 278.332C125.734 278.332 125.17 278.468 124.626 278.74C124.082 279.012 123.702 279.48 123.486 280.144L120.846 279.316C121.166 278.22 121.774 277.34 122.67 276.676C123.574 276.012 124.79 275.68 126.318 275.68C127.47 275.68 128.482 275.868 129.354 276.244C130.234 276.62 130.886 277.236 131.31 278.092C131.542 278.548 131.682 279.016 131.73 279.496C131.778 279.968 131.802 280.484 131.802 281.044V289H129.27V286.192L129.69 286.648C129.106 287.584 128.422 288.272 127.638 288.712C126.862 289.144 125.89 289.36 124.722 289.36ZM125.298 287.056C125.954 287.056 126.514 286.94 126.978 286.708C127.442 286.476 127.81 286.192 128.082 285.856C128.362 285.52 128.55 285.204 128.646 284.908C128.798 284.54 128.882 284.12 128.898 283.648C128.922 283.168 128.934 282.78 128.934 282.484L129.822 282.748C128.95 282.884 128.202 283.004 127.578 283.108C126.954 283.212 126.418 283.312 125.97 283.408C125.522 283.496 125.126 283.596 124.782 283.708C124.446 283.828 124.162 283.968 123.93 284.128C123.698 284.288 123.518 284.472 123.39 284.68C123.27 284.888 123.21 285.132 123.21 285.412C123.21 285.732 123.29 286.016 123.45 286.264C123.61 286.504 123.842 286.696 124.146 286.84C124.458 286.984 124.842 287.056 125.298 287.056ZM134.447 289V271.36H137.339V289H134.447ZM140.453 274.072V271.42H143.345V274.072H140.453ZM140.453 289V276.04H143.345V289H140.453ZM146.46 289V271.36H149.352V289H146.46ZM163.619 289.36C161.891 289.36 160.411 288.984 159.179 288.232C157.947 287.472 156.999 286.416 156.335 285.064C155.679 283.712 155.351 282.144 155.351 280.36C155.351 278.576 155.679 277.008 156.335 275.656C156.999 274.304 157.947 273.252 159.179 272.5C160.411 271.74 161.891 271.36 163.619 271.36C165.347 271.36 166.827 271.74 168.059 272.5C169.299 273.252 170.247 274.304 170.903 275.656C171.567 277.008 171.899 278.576 171.899 280.36C171.899 282.144 171.567 283.712 170.903 285.064C170.247 286.416 169.299 287.472 168.059 288.232C166.827 288.984 165.347 289.36 163.619 289.36ZM163.619 286.636C164.779 286.644 165.743 286.388 166.511 285.868C167.287 285.348 167.867 284.616 168.251 283.672C168.643 282.728 168.839 281.624 168.839 280.36C168.839 279.096 168.643 278 168.251 277.072C167.867 276.136 167.287 275.408 166.511 274.888C165.743 274.368 164.779 274.1 163.619 274.084C162.459 274.076 161.495 274.332 160.727 274.852C159.959 275.372 159.379 276.104 158.987 277.048C158.603 277.992 158.411 279.096 158.411 280.36C158.411 281.624 158.603 282.724 158.987 283.66C159.371 284.588 159.947 285.312 160.715 285.832C161.491 286.352 162.459 286.62 163.619 286.636ZM173.807 289V271.36H176.699V289H173.807ZM183.198 289.36C182.262 289.36 181.47 289.184 180.822 288.832C180.174 288.472 179.682 287.996 179.346 287.404C179.018 286.812 178.854 286.16 178.854 285.448C178.854 284.824 178.958 284.264 179.166 283.768C179.374 283.264 179.694 282.832 180.126 282.472C180.558 282.104 181.118 281.804 181.806 281.572C182.326 281.404 182.934 281.252 183.63 281.116C184.334 280.98 185.094 280.856 185.91 280.744C186.734 280.624 187.594 280.496 188.49 280.36L187.458 280.948C187.466 280.052 187.266 279.392 186.858 278.968C186.45 278.544 185.762 278.332 184.794 278.332C184.21 278.332 183.646 278.468 183.102 278.74C182.558 279.012 182.178 279.48 181.962 280.144L179.322 279.316C179.642 278.22 180.25 277.34 181.146 276.676C182.05 276.012 183.266 275.68 184.794 275.68C185.946 275.68 186.958 275.868 187.83 276.244C188.71 276.62 189.362 277.236 189.786 278.092C190.018 278.548 190.158 279.016 190.206 279.496C190.254 279.968 190.278 280.484 190.278 281.044V289H187.746V286.192L188.166 286.648C187.582 287.584 186.898 288.272 186.114 288.712C185.338 289.144 184.366 289.36 183.198 289.36ZM183.774 287.056C184.43 287.056 184.99 286.94 185.454 286.708C185.918 286.476 186.286 286.192 186.558 285.856C186.838 285.52 187.026 285.204 187.122 284.908C187.274 284.54 187.358 284.12 187.374 283.648C187.398 283.168 187.41 282.78 187.41 282.484L188.298 282.748C187.426 282.884 186.678 283.004 186.054 283.108C185.43 283.212 184.894 283.312 184.446 283.408C183.998 283.496 183.602 283.596 183.258 283.708C182.922 283.828 182.638 283.968 182.406 284.128C182.174 284.288 181.994 284.472 181.866 284.68C181.746 284.888 181.686 285.132 181.686 285.412C181.686 285.732 181.766 286.016 181.926 286.264C182.086 286.504 182.318 286.696 182.622 286.84C182.934 286.984 183.318 287.056 183.774 287.056ZM198.574 289.36C197.262 289.36 196.11 289.076 195.118 288.508C194.126 287.94 193.35 287.152 192.79 286.144C192.238 285.136 191.962 283.976 191.962 282.664C191.962 281.248 192.234 280.02 192.778 278.98C193.322 277.932 194.078 277.12 195.046 276.544C196.014 275.968 197.134 275.68 198.406 275.68C199.75 275.68 200.89 275.996 201.826 276.628C202.77 277.252 203.47 278.136 203.926 279.28C204.382 280.424 204.554 281.772 204.442 283.324H201.574V282.268C201.566 280.86 201.318 279.832 200.83 279.184C200.342 278.536 199.574 278.212 198.526 278.212C197.342 278.212 196.462 278.58 195.886 279.316C195.31 280.044 195.022 281.112 195.022 282.52C195.022 283.832 195.31 284.848 195.886 285.568C196.462 286.288 197.302 286.648 198.406 286.648C199.118 286.648 199.73 286.492 200.242 286.18C200.762 285.86 201.162 285.4 201.442 284.8L204.298 285.664C203.802 286.832 203.034 287.74 201.994 288.388C200.962 289.036 199.822 289.36 198.574 289.36ZM194.11 283.324V281.14H203.026V283.324H194.11ZM211.404 289.36C209.804 289.36 208.504 289 207.504 288.28C206.504 287.56 205.896 286.548 205.68 285.244L208.632 284.788C208.784 285.428 209.12 285.932 209.64 286.3C210.16 286.668 210.816 286.852 211.608 286.852C212.304 286.852 212.84 286.716 213.216 286.444C213.6 286.164 213.792 285.784 213.792 285.304C213.792 285.008 213.72 284.772 213.576 284.596C213.44 284.412 213.136 284.236 212.664 284.068C212.192 283.9 211.468 283.688 210.492 283.432C209.404 283.144 208.54 282.836 207.9 282.508C207.26 282.172 206.8 281.776 206.52 281.32C206.24 280.864 206.1 280.312 206.1 279.664C206.1 278.856 206.312 278.152 206.736 277.552C207.16 276.952 207.752 276.492 208.512 276.172C209.272 275.844 210.168 275.68 211.2 275.68C212.208 275.68 213.1 275.836 213.876 276.148C214.66 276.46 215.292 276.904 215.772 277.48C216.252 278.056 216.548 278.732 216.66 279.508L213.708 280.036C213.636 279.484 213.384 279.048 212.952 278.728C212.528 278.408 211.96 278.228 211.248 278.188C210.568 278.148 210.02 278.252 209.604 278.5C209.188 278.74 208.98 279.08 208.98 279.52C208.98 279.768 209.064 279.98 209.232 280.156C209.4 280.332 209.736 280.508 210.24 280.684C210.752 280.86 211.512 281.076 212.52 281.332C213.552 281.596 214.376 281.9 214.992 282.244C215.616 282.58 216.064 282.984 216.336 283.456C216.616 283.928 216.756 284.5 216.756 285.172C216.756 286.476 216.28 287.5 215.328 288.244C214.384 288.988 213.076 289.36 211.404 289.36ZM86.407 326.36C85.111 326.36 83.959 326.092 82.951 325.556C81.951 325.012 81.163 324.252 80.587 323.276C80.019 322.292 79.735 321.14 79.735 319.82V308.72H81.127V319.532C81.127 320.516 81.291 321.36 81.619 322.064C81.955 322.76 82.387 323.328 82.915 323.768C83.451 324.208 84.023 324.532 84.631 324.74C85.247 324.948 85.839 325.052 86.407 325.052C86.975 325.052 87.567 324.948 88.183 324.74C88.799 324.532 89.371 324.208 89.899 323.768C90.427 323.328 90.855 322.76 91.183 322.064C91.519 321.36 91.687 320.516 91.687 319.532V308.72H93.079V319.82C93.079 321.132 92.791 322.28 92.215 323.264C91.647 324.24 90.859 325 89.851 325.544C88.851 326.088 87.703 326.36 86.407 326.36ZM94.2859 326L100.31 317.24L94.4299 308.72H96.0979L101.114 316.1L106.142 308.72H107.81L101.93 317.24L107.954 326H106.286L101.114 318.404L95.9539 326H94.2859ZM113.247 326V308.72H119.763C119.931 308.72 120.111 308.728 120.303 308.744C120.503 308.752 120.711 308.776 120.927 308.816C121.791 308.952 122.531 309.264 123.147 309.752C123.771 310.232 124.247 310.84 124.575 311.576C124.903 312.304 125.067 313.108 125.067 313.988C125.067 315.26 124.727 316.368 124.047 317.312C123.367 318.256 122.419 318.856 121.203 319.112L120.807 319.268H114.627V326H113.247ZM123.891 326L120.483 318.968L121.767 318.32L125.511 326H123.891ZM114.627 317.912H119.739C119.883 317.912 120.047 317.904 120.231 317.888C120.423 317.872 120.615 317.848 120.807 317.816C121.431 317.688 121.951 317.436 122.367 317.06C122.783 316.676 123.095 316.216 123.303 315.68C123.511 315.144 123.615 314.58 123.615 313.988C123.615 313.396 123.511 312.836 123.303 312.308C123.095 311.772 122.783 311.316 122.367 310.94C121.951 310.556 121.431 310.3 120.807 310.172C120.615 310.132 120.423 310.104 120.231 310.088C120.047 310.072 119.883 310.064 119.739 310.064H114.627V317.912ZM132.773 326.36C131.533 326.36 130.461 326.084 129.557 325.532C128.653 324.972 127.953 324.184 127.457 323.168C126.961 322.144 126.713 320.936 126.713 319.544C126.713 318.128 126.957 316.908 127.445 315.884C127.941 314.852 128.637 314.06 129.533 313.508C130.437 312.956 131.509 312.68 132.749 312.68C134.005 312.68 135.077 312.968 135.965 313.544C136.861 314.112 137.541 314.936 138.005 316.016C138.477 317.096 138.701 318.396 138.677 319.916H137.237V319.436C137.197 317.66 136.797 316.308 136.037 315.38C135.277 314.452 134.189 313.988 132.773 313.988C131.309 313.988 130.177 314.472 129.377 315.44C128.585 316.4 128.189 317.76 128.189 319.52C128.189 321.264 128.585 322.616 129.377 323.576C130.177 324.536 131.301 325.016 132.749 325.016C133.749 325.016 134.621 324.784 135.365 324.32C136.117 323.848 136.713 323.176 137.153 322.304L138.401 322.856C137.881 323.976 137.129 324.84 136.145 325.448C135.161 326.056 134.037 326.36 132.773 326.36ZM127.661 319.916V318.668H137.897V319.916H127.661ZM145.4 326.336C143.904 326.336 142.668 326.02 141.692 325.388C140.724 324.756 140.124 323.876 139.892 322.748L141.308 322.508C141.508 323.276 141.98 323.888 142.724 324.344C143.468 324.8 144.38 325.028 145.46 325.028C146.532 325.028 147.384 324.8 148.016 324.344C148.648 323.888 148.964 323.264 148.964 322.472C148.964 322.04 148.864 321.688 148.664 321.416C148.472 321.136 148.088 320.88 147.512 320.648C146.936 320.416 146.08 320.144 144.944 319.832C143.744 319.512 142.804 319.192 142.124 318.872C141.452 318.552 140.976 318.188 140.696 317.78C140.424 317.372 140.288 316.872 140.288 316.28C140.288 315.568 140.492 314.944 140.9 314.408C141.308 313.864 141.876 313.44 142.604 313.136C143.34 312.832 144.188 312.68 145.148 312.68C146.108 312.68 146.972 312.84 147.74 313.16C148.508 313.472 149.128 313.912 149.6 314.48C150.072 315.04 150.344 315.692 150.416 316.436L149 316.7C148.864 315.868 148.444 315.212 147.74 314.732C147.036 314.244 146.156 313.996 145.1 313.988C144.1 313.972 143.284 314.172 142.652 314.588C142.02 314.996 141.704 315.536 141.704 316.208C141.704 316.592 141.812 316.92 142.028 317.192C142.252 317.456 142.644 317.7 143.204 317.924C143.764 318.148 144.556 318.388 145.58 318.644C146.828 318.964 147.8 319.292 148.496 319.628C149.2 319.964 149.696 320.36 149.984 320.816C150.272 321.264 150.416 321.82 150.416 322.484C150.416 323.684 149.968 324.628 149.072 325.316C148.184 325.996 146.96 326.336 145.4 326.336ZM157.7 326.36C156.46 326.36 155.388 326.084 154.484 325.532C153.58 324.972 152.88 324.184 152.384 323.168C151.888 322.144 151.64 320.936 151.64 319.544C151.64 318.128 151.884 316.908 152.372 315.884C152.868 314.852 153.564 314.06 154.46 313.508C155.364 312.956 156.436 312.68 157.676 312.68C158.932 312.68 160.004 312.968 160.892 313.544C161.788 314.112 162.468 314.936 162.932 316.016C163.404 317.096 163.628 318.396 163.604 319.916H162.164V319.436C162.124 317.66 161.724 316.308 160.964 315.38C160.204 314.452 159.116 313.988 157.7 313.988C156.236 313.988 155.104 314.472 154.304 315.44C153.512 316.4 153.116 317.76 153.116 319.52C153.116 321.264 153.512 322.616 154.304 323.576C155.104 324.536 156.228 325.016 157.676 325.016C158.676 325.016 159.548 324.784 160.292 324.32C161.044 323.848 161.64 323.176 162.08 322.304L163.328 322.856C162.808 323.976 162.056 324.84 161.072 325.448C160.088 326.056 158.964 326.36 157.7 326.36ZM152.588 319.916V318.668H162.824V319.916H152.588ZM169.048 326.36C168.048 326.36 167.216 326.184 166.552 325.832C165.896 325.48 165.404 325.016 165.076 324.44C164.748 323.856 164.584 323.224 164.584 322.544C164.584 321.808 164.736 321.192 165.04 320.696C165.352 320.2 165.764 319.8 166.276 319.496C166.796 319.192 167.368 318.964 167.992 318.812C168.704 318.652 169.472 318.516 170.296 318.404C171.12 318.284 171.904 318.18 172.648 318.092C173.4 318.004 174.012 317.928 174.484 317.864L173.98 318.164C174.012 316.764 173.748 315.724 173.188 315.044C172.636 314.356 171.66 314.012 170.26 314.012C169.276 314.012 168.464 314.236 167.824 314.684C167.192 315.124 166.748 315.808 166.492 316.736L165.076 316.34C165.372 315.164 165.968 314.26 166.864 313.628C167.76 312.996 168.908 312.68 170.308 312.68C171.5 312.68 172.5 312.912 173.308 313.376C174.124 313.84 174.692 314.492 175.012 315.332C175.148 315.676 175.24 316.08 175.288 316.544C175.336 317 175.36 317.46 175.36 317.924V326H174.1V322.592L174.568 322.712C174.176 323.88 173.492 324.78 172.516 325.412C171.54 326.044 170.384 326.36 169.048 326.36ZM169.12 325.088C170 325.088 170.772 324.932 171.436 324.62C172.1 324.3 172.636 323.856 173.044 323.288C173.46 322.712 173.724 322.036 173.836 321.26C173.916 320.828 173.96 320.36 173.968 319.856C173.976 319.352 173.98 318.98 173.98 318.74L174.58 319.124C174.06 319.188 173.436 319.256 172.708 319.328C171.988 319.4 171.252 319.488 170.5 319.592C169.748 319.696 169.068 319.828 168.46 319.988C168.084 320.092 167.704 320.244 167.32 320.444C166.944 320.636 166.628 320.904 166.372 321.248C166.124 321.592 166 322.028 166 322.556C166 322.948 166.096 323.34 166.288 323.732C166.488 324.124 166.816 324.448 167.272 324.704C167.728 324.96 168.344 325.088 169.12 325.088ZM177.756 326V313.04H179.016V316.148L178.704 315.74C178.848 315.372 179.028 315.032 179.244 314.72C179.468 314.4 179.696 314.14 179.928 313.94C180.272 313.62 180.676 313.38 181.14 313.22C181.604 313.052 182.072 312.956 182.544 312.932C183.016 312.9 183.444 312.936 183.828 313.04V314.348C183.316 314.228 182.772 314.204 182.196 314.276C181.62 314.348 181.08 314.596 180.576 315.02C180.136 315.404 179.816 315.852 179.616 316.364C179.416 316.868 179.288 317.4 179.232 317.96C179.176 318.512 179.148 319.052 179.148 319.58V326H177.756ZM190.438 326.36C189.142 326.36 188.05 326.072 187.162 325.496C186.274 324.912 185.598 324.108 185.134 323.084C184.678 322.052 184.442 320.864 184.426 319.52C184.442 318.152 184.682 316.956 185.146 315.932C185.618 314.9 186.298 314.1 187.186 313.532C188.074 312.964 189.162 312.68 190.45 312.68C191.706 312.68 192.81 312.984 193.762 313.592C194.722 314.192 195.386 315.02 195.754 316.076L194.41 316.568C194.082 315.76 193.566 315.136 192.862 314.696C192.158 314.248 191.35 314.024 190.438 314.024C189.414 314.024 188.57 314.26 187.906 314.732C187.242 315.196 186.746 315.84 186.418 316.664C186.09 317.488 185.918 318.44 185.902 319.52C185.926 321.176 186.314 322.508 187.066 323.516C187.826 324.516 188.95 325.016 190.438 325.016C191.358 325.016 192.154 324.804 192.826 324.38C193.506 323.956 194.026 323.34 194.386 322.532L195.754 323C195.25 324.096 194.546 324.932 193.642 325.508C192.738 326.076 191.67 326.36 190.438 326.36ZM207.043 326V319.256C207.043 318.44 206.959 317.712 206.791 317.072C206.631 316.432 206.383 315.888 206.047 315.44C205.719 314.992 205.303 314.652 204.799 314.42C204.303 314.188 203.715 314.072 203.035 314.072C202.331 314.072 201.719 314.196 201.199 314.444C200.687 314.684 200.263 315.024 199.927 315.464C199.599 315.904 199.351 316.428 199.183 317.036C199.023 317.636 198.943 318.292 198.943 319.004L197.851 318.872C197.851 317.472 198.087 316.32 198.559 315.416C199.039 314.504 199.683 313.832 200.491 313.4C201.299 312.96 202.207 312.74 203.215 312.74C203.927 312.74 204.563 312.844 205.123 313.052C205.691 313.26 206.183 313.556 206.599 313.94C207.015 314.316 207.359 314.764 207.631 315.284C207.903 315.796 208.103 316.36 208.231 316.976C208.367 317.592 208.435 318.236 208.435 318.908V326H207.043ZM197.551 326V308.72H198.811V318.704H198.943V326H197.551ZM216.163 326.36C214.923 326.36 213.851 326.084 212.947 325.532C212.043 324.972 211.343 324.184 210.847 323.168C210.351 322.144 210.103 320.936 210.103 319.544C210.103 318.128 210.347 316.908 210.835 315.884C211.331 314.852 212.027 314.06 212.923 313.508C213.827 312.956 214.899 312.68 216.139 312.68C217.395 312.68 218.467 312.968 219.355 313.544C220.251 314.112 220.931 314.936 221.395 316.016C221.867 317.096 222.091 318.396 222.067 319.916H220.627V319.436C220.587 317.66 220.187 316.308 219.427 315.38C218.667 314.452 217.579 313.988 216.163 313.988C214.699 313.988 213.567 314.472 212.767 315.44C211.975 316.4 211.579 317.76 211.579 319.52C211.579 321.264 211.975 322.616 212.767 323.576C213.567 324.536 214.691 325.016 216.139 325.016C217.139 325.016 218.011 324.784 218.755 324.32C219.507 323.848 220.103 323.176 220.543 322.304L221.791 322.856C221.271 323.976 220.519 324.84 219.535 325.448C218.551 326.056 217.427 326.36 216.163 326.36ZM211.051 319.916V318.668H221.287V319.916H211.051ZM224.001 326V313.04H225.261V316.148L224.949 315.74C225.093 315.372 225.273 315.032 225.489 314.72C225.713 314.4 225.941 314.14 226.173 313.94C226.517 313.62 226.921 313.38 227.385 313.22C227.849 313.052 228.317 312.956 228.789 312.932C229.261 312.9 229.689 312.936 230.073 313.04V314.348C229.561 314.228 229.017 314.204 228.441 314.276C227.865 314.348 227.325 314.596 226.821 315.02C226.381 315.404 226.061 315.852 225.861 316.364C225.661 316.868 225.533 317.4 225.477 317.96C225.421 318.512 225.393 319.052 225.393 319.58V326H224.001Z" fill="black"/>
<defs>
<filter id="filter0_d_502_1392" x="0" y="0" width="316" height="424" filterUnits="userSpaceOnUse" color-interpolation-filters="sRGB">
<feFlood flood-opacity="0" result="BackgroundImageFix"/>
<feColorMatrix in="SourceAlpha" type="matrix" values="0 0 0 0 0 0 0 0 0 0 0 0 0 0 0 0 0 0 127 0" result="hardAlpha"/>
<feOffset dy="2"/>
<feGaussianBlur stdDeviation="2"/>
<feComposite in2="hardAlpha" operator="out"/>
<feColorMatrix type="matrix" values="0 0 0 0 0 0 0 0 0 0 0 0 0 0 0 0 0 0 0.25 0"/>
<feBlend mode="normal" in2="BackgroundImageFix" result="effect1_dropShadow_502_1392"/>
<feBlend mode="normal" in="SourceGraphic" in2="effect1_dropShadow_502_1392" result="shape"/>
</filter>
</defs>
</svg>
