<svg width="316" height="424" viewBox="0 0 316 424" fill="none" xmlns="http://www.w3.org/2000/svg">
<g filter="url(#filter0_d_495_1175)">
<rect x="4" y="2" width="308" height="416" rx="30" fill="white"/>
</g>
<path d="M209.514 132.494C209.514 158.554 198.004 174.774 161.744 180.574C157.384 181.274 152.954 181.384 148.574 180.844C114.964 176.704 104.164 157.464 104.164 131.594C104.164 104.054 125.454 81.7345 156.614 81.7345C187.774 81.7345 209.514 104.944 209.514 132.484V132.494Z" fill="white" stroke="#221F1F" stroke-width="2.5" stroke-miterlimit="10"/>
<path d="M204.713 117.914C193.993 119.954 190.063 118.394 179.413 118.314C177.163 118.314 171.513 118.134 171.513 118.134C171.513 118.134 167.603 113.714 166.543 110.744C165.483 107.774 164.623 105.994 163.243 101.794C163.683 107.244 163.813 113.194 165.453 118.174C154.563 119.514 144.473 117.784 134.103 117.954C129.853 111.404 127.223 102.474 125.933 91.8645C124.363 100.624 126.223 109.454 128.163 118.174C120.443 118.374 115.763 120.504 108.093 119.274C106.943 135.804 108.963 146.774 111.993 160.684C117.723 187.044 130.143 205.954 130.143 205.954C130.143 205.954 129.703 206.414 128.873 207.054C122.013 212.354 111.733 211.014 106.103 204.424C101.243 198.734 96.3729 192.754 95.5129 174.854C94.9829 163.764 92.4629 158.424 90.4029 147.514C88.5129 137.564 85.9629 122.374 85.9629 112.244C85.9629 101.384 87.2129 91.3245 90.7129 81.4245C94.4529 70.8545 99.1929 60.3645 106.893 52.2145C115.393 43.2045 127.123 37.5845 139.293 35.2945C151.473 33.0145 164.093 33.9245 176.173 36.6345C183.933 38.3745 191.663 40.9145 198.143 45.5145C207.023 51.8145 214.443 59.5645 218.253 69.7645C225.773 89.9145 224.063 114.324 224.743 135.424C225.003 143.334 223.643 150.674 222.563 156.484C221.533 161.994 219.483 173.204 219.483 181.174C219.483 195.274 211.363 208.954 201.383 208.954C197.233 208.954 190.463 204.904 189.393 202.184C189.243 201.794 189.033 201.374 189.173 201.014C196.053 182.924 195.293 179.344 199.763 160.384C202.483 148.834 205.113 130.164 204.713 117.894V117.914Z" fill="#221F1F"/>
<path d="M86.8938 118.424C84.1638 116.754 81.5638 116.444 80.0538 119.274C78.5438 122.104 78.8538 128.314 79.7538 131.394C82.2138 139.754 85.9038 143.314 94.1738 146.054C91.5038 136.334 90.6338 129.284 86.8938 118.434V118.424Z" fill="white" stroke="#221F1F" stroke-width="3" stroke-miterlimit="10"/>
<path d="M220.843 117.654C221.233 115.094 224.813 113.254 226.753 112.764C228.583 112.304 231.873 112.094 233.913 113.574C236.133 115.184 237.073 118.644 236.953 121.374C236.883 122.914 236.343 124.404 235.673 125.794C232.383 132.684 226.123 137.664 219.653 141.714C219.463 141.434 219.473 141.074 219.483 140.744C219.773 133.344 219.613 125.704 220.843 117.644V117.654Z" fill="white" stroke="#221F1F" stroke-width="3" stroke-miterlimit="10"/>
<path d="M219.484 128.754C221.764 127.524 223.854 125.824 225.644 123.754L219.484 128.754Z" fill="#221F1F"/>
<path d="M219.484 128.754C221.764 127.524 223.854 125.824 225.644 123.754" stroke="#221F1F" stroke-width="3" stroke-miterlimit="10" stroke-linecap="round"/>
<path d="M91.0234 135.294C88.8034 134.184 86.7634 132.654 85.0234 130.794L91.0234 135.294Z" fill="#221F1F"/>
<path d="M91.0234 135.294C88.8034 134.184 86.7634 132.654 85.0234 130.794" stroke="#221F1F" stroke-width="3" stroke-miterlimit="10" stroke-linecap="round"/>
<path d="M114.325 127.644C114.375 126.624 116.875 126.474 124.065 126.494C131.255 126.514 135.825 128.744 135.775 129.774C135.725 130.794 130.345 130.294 124.505 130.274C118.465 130.254 114.275 128.664 114.325 127.644Z" fill="#221F1F" stroke="#221F1F" stroke-width="3" stroke-miterlimit="10"/>
<path d="M195.884 125.264C196.024 126.444 193.624 127.034 186.654 128.204C179.654 129.384 174.844 127.594 174.704 126.414C174.564 125.234 179.874 124.904 185.544 123.954C191.404 122.964 195.744 124.084 195.884 125.264Z" fill="#221F1F" stroke="#221F1F" stroke-width="3" stroke-miterlimit="10"/>
<path opacity="0.89" d="M108.094 143.764C107.894 140.604 114.784 136.604 125.354 136.054C135.924 135.504 144.824 138.614 145.794 141.484C147.304 145.964 138.784 152.924 129.444 152.924C118.454 152.924 108.374 148.064 108.094 143.764Z" stroke="#221F1F" stroke-width="2" stroke-miterlimit="10" stroke-linecap="round"/>
<path opacity="0.89" d="M202.364 140.114C203.304 142.534 196.834 150.764 182.854 150.734C172.274 150.714 165.684 146.284 164.734 143.194C163.254 138.374 175.694 133.224 185.034 133.384C196.024 133.564 200.714 135.844 202.364 140.114Z" stroke="#221F1F" stroke-width="2" stroke-miterlimit="10" stroke-linecap="round"/>
<path d="M146.584 141.214C150.484 140.274 151.274 139.614 155.254 139.594C158.034 139.574 162.154 140.174 164.714 141.484" stroke="#221F1F" stroke-width="2" stroke-miterlimit="10" stroke-linecap="round"/>
<path d="M154.783 150.734C153.183 153.744 153.053 156.504 156.833 157.174" stroke="#221F1F" stroke-width="1.5" stroke-miterlimit="10" stroke-linecap="round"/>
<path d="M185.623 138.274C186.503 144.524 178.183 148.834 177.993 141.234C177.973 140.524 178.413 139.834 179.123 139.504C180.953 138.644 182.573 138.514 185.293 138.064C185.453 138.034 185.603 138.134 185.623 138.274Z" fill="#221F1F" stroke="#221F1F" stroke-width="3" stroke-miterlimit="10"/>
<path d="M125.065 140.215C124.185 146.465 132.505 150.775 132.695 143.175C132.715 142.465 132.275 141.775 131.565 141.445C129.735 140.585 128.115 140.455 125.395 140.005C125.235 139.975 125.085 140.075 125.065 140.215Z" fill="#221F1F" stroke="#221F1F" stroke-width="3" stroke-miterlimit="10"/>
<path d="M155.773 164.894C154.563 163.764 152.223 164.394 151.763 165.994C151.303 167.594 152.913 169.384 154.543 169.084C153.583 169.524 152.713 170.224 152.263 171.184C151.813 172.144 151.863 173.364 152.563 174.154C153.263 174.944 154.633 175.104 155.383 174.364" stroke="#221F1F" stroke-width="1.5" stroke-linecap="round" stroke-linejoin="round"/>
<path d="M86.4245 296V278.72H93.5645C93.7325 278.72 93.9485 278.728 94.2125 278.744C94.4765 278.752 94.7205 278.776 94.9445 278.816C95.9445 278.968 96.7685 279.3 97.4165 279.812C98.0725 280.324 98.5565 280.972 98.8685 281.756C99.1885 282.532 99.3485 283.396 99.3485 284.348C99.3485 285.756 98.9925 286.968 98.2805 287.984C97.5685 288.992 96.4765 289.616 95.0045 289.856L93.7685 289.964H89.3165V296H86.4245ZM96.3485 296L92.9405 288.968L95.8805 288.32L99.6245 296H96.3485ZM89.3165 287.264H93.4445C93.6045 287.264 93.7845 287.256 93.9845 287.24C94.1845 287.224 94.3685 287.192 94.5365 287.144C95.0165 287.024 95.3925 286.812 95.6645 286.508C95.9445 286.204 96.1405 285.86 96.2525 285.476C96.3725 285.092 96.4325 284.716 96.4325 284.348C96.4325 283.98 96.3725 283.604 96.2525 283.22C96.1405 282.828 95.9445 282.48 95.6645 282.176C95.3925 281.872 95.0165 281.66 94.5365 281.54C94.3685 281.492 94.1845 281.464 93.9845 281.456C93.7845 281.44 93.6045 281.432 93.4445 281.432H89.3165V287.264ZM107.272 296.36C105.976 296.36 104.844 296.068 103.876 295.484C102.908 294.9 102.156 294.096 101.62 293.072C101.092 292.04 100.828 290.856 100.828 289.52C100.828 288.16 101.1 286.968 101.644 285.944C102.188 284.92 102.944 284.12 103.912 283.544C104.88 282.968 106 282.68 107.272 282.68C108.576 282.68 109.712 282.972 110.68 283.556C111.648 284.14 112.4 284.948 112.936 285.98C113.472 287.004 113.74 288.184 113.74 289.52C113.74 290.864 113.468 292.052 112.924 293.084C112.388 294.108 111.636 294.912 110.668 295.496C109.7 296.072 108.568 296.36 107.272 296.36ZM107.272 293.648C108.424 293.648 109.28 293.264 109.84 292.496C110.4 291.728 110.68 290.736 110.68 289.52C110.68 288.264 110.396 287.264 109.828 286.52C109.26 285.768 108.408 285.392 107.272 285.392C106.496 285.392 105.856 285.568 105.352 285.92C104.856 286.264 104.488 286.748 104.248 287.372C104.008 287.988 103.888 288.704 103.888 289.52C103.888 290.776 104.172 291.78 104.74 292.532C105.316 293.276 106.16 293.648 107.272 293.648ZM120.364 296.36C118.764 296.36 117.464 296 116.464 295.28C115.464 294.56 114.856 293.548 114.64 292.244L117.592 291.788C117.744 292.428 118.08 292.932 118.6 293.3C119.12 293.668 119.776 293.852 120.568 293.852C121.264 293.852 121.8 293.716 122.176 293.444C122.56 293.164 122.752 292.784 122.752 292.304C122.752 292.008 122.68 291.772 122.536 291.596C122.4 291.412 122.096 291.236 121.624 291.068C121.152 290.9 120.428 290.688 119.452 290.432C118.364 290.144 117.5 289.836 116.86 289.508C116.22 289.172 115.76 288.776 115.48 288.32C115.2 287.864 115.06 287.312 115.06 286.664C115.06 285.856 115.272 285.152 115.696 284.552C116.12 283.952 116.712 283.492 117.472 283.172C118.232 282.844 119.128 282.68 120.16 282.68C121.168 282.68 122.06 282.836 122.836 283.148C123.62 283.46 124.252 283.904 124.732 284.48C125.212 285.056 125.508 285.732 125.62 286.508L122.668 287.036C122.596 286.484 122.344 286.048 121.912 285.728C121.488 285.408 120.92 285.228 120.208 285.188C119.528 285.148 118.98 285.252 118.564 285.5C118.148 285.74 117.94 286.08 117.94 286.52C117.94 286.768 118.024 286.98 118.192 287.156C118.36 287.332 118.696 287.508 119.2 287.684C119.712 287.86 120.472 288.076 121.48 288.332C122.512 288.596 123.336 288.9 123.952 289.244C124.576 289.58 125.024 289.984 125.296 290.456C125.576 290.928 125.716 291.5 125.716 292.172C125.716 293.476 125.24 294.5 124.288 295.244C123.344 295.988 122.036 296.36 120.364 296.36ZM133.516 296.36C132.204 296.36 131.052 296.076 130.06 295.508C129.068 294.94 128.292 294.152 127.732 293.144C127.18 292.136 126.904 290.976 126.904 289.664C126.904 288.248 127.176 287.02 127.72 285.98C128.264 284.932 129.02 284.12 129.988 283.544C130.956 282.968 132.076 282.68 133.348 282.68C134.692 282.68 135.832 282.996 136.768 283.628C137.712 284.252 138.412 285.136 138.868 286.28C139.324 287.424 139.496 288.772 139.384 290.324H136.516V289.268C136.508 287.86 136.26 286.832 135.772 286.184C135.284 285.536 134.516 285.212 133.468 285.212C132.284 285.212 131.404 285.58 130.828 286.316C130.252 287.044 129.964 288.112 129.964 289.52C129.964 290.832 130.252 291.848 130.828 292.568C131.404 293.288 132.244 293.648 133.348 293.648C134.06 293.648 134.672 293.492 135.184 293.18C135.704 292.86 136.104 292.4 136.384 291.8L139.24 292.664C138.744 293.832 137.976 294.74 136.936 295.388C135.904 296.036 134.764 296.36 133.516 296.36ZM129.052 290.324V288.14H137.968V290.324H129.052ZM145.426 296V278.72H148.354L156.37 290.9V278.72H159.298V296H156.37L148.354 283.82V296H145.426ZM167.381 302.12C166.661 302.12 165.969 302.008 165.305 301.784C164.649 301.56 164.057 301.236 163.529 300.812C163.001 300.396 162.569 299.892 162.233 299.3L164.897 297.98C165.145 298.452 165.493 298.8 165.941 299.024C166.397 299.256 166.881 299.372 167.393 299.372C167.993 299.372 168.529 299.264 169.001 299.048C169.473 298.84 169.837 298.528 170.093 298.112C170.357 297.704 170.481 297.192 170.465 296.576V292.892H170.825V283.04H173.357V296.624C173.357 296.952 173.341 297.264 173.309 297.56C173.285 297.864 173.241 298.16 173.177 298.448C172.985 299.288 172.617 299.976 172.073 300.512C171.529 301.056 170.853 301.46 170.045 301.724C169.245 301.988 168.357 302.12 167.381 302.12ZM167.129 296.36C165.937 296.36 164.897 296.06 164.009 295.46C163.121 294.86 162.433 294.044 161.945 293.012C161.457 291.98 161.213 290.816 161.213 289.52C161.213 288.208 161.457 287.04 161.945 286.016C162.441 284.984 163.141 284.172 164.045 283.58C164.949 282.98 166.013 282.68 167.237 282.68C168.469 282.68 169.501 282.98 170.333 283.58C171.173 284.172 171.809 284.984 172.241 286.016C172.673 287.048 172.889 288.216 172.889 289.52C172.889 290.808 172.673 291.972 172.241 293.012C171.809 294.044 171.165 294.86 170.309 295.46C169.453 296.06 168.393 296.36 167.129 296.36ZM167.573 293.768C168.349 293.768 168.973 293.592 169.445 293.24C169.925 292.88 170.273 292.38 170.489 291.74C170.713 291.1 170.825 290.36 170.825 289.52C170.825 288.672 170.713 287.932 170.489 287.3C170.273 286.66 169.933 286.164 169.469 285.812C169.005 285.452 168.405 285.272 167.669 285.272C166.893 285.272 166.253 285.464 165.749 285.848C165.245 286.224 164.873 286.736 164.633 287.384C164.393 288.024 164.273 288.736 164.273 289.52C164.273 290.312 164.389 291.032 164.621 291.68C164.861 292.32 165.225 292.828 165.713 293.204C166.201 293.58 166.821 293.768 167.573 293.768ZM180.862 296.372C179.902 296.372 179.11 296.212 178.486 295.892C177.862 295.572 177.366 295.164 176.998 294.668C176.63 294.172 176.358 293.644 176.182 293.084C176.006 292.524 175.89 291.996 175.834 291.5C175.786 290.996 175.762 290.588 175.762 290.276V283.04H178.69V289.28C178.69 289.68 178.718 290.132 178.774 290.636C178.83 291.132 178.958 291.612 179.158 292.076C179.366 292.532 179.67 292.908 180.07 293.204C180.478 293.5 181.026 293.648 181.714 293.648C182.082 293.648 182.446 293.588 182.806 293.468C183.166 293.348 183.49 293.144 183.778 292.856C184.074 292.56 184.31 292.156 184.486 291.644C184.662 291.132 184.75 290.484 184.75 289.7L186.466 290.432C186.466 291.536 186.25 292.536 185.818 293.432C185.394 294.328 184.766 295.044 183.934 295.58C183.102 296.108 182.078 296.372 180.862 296.372ZM185.098 296V291.98H184.75V283.04H187.654V296H185.098ZM192.009 301.76L194.505 294.908L194.553 296.924L188.901 283.04H191.913L195.921 293.312H195.153L199.053 283.04H201.945L194.721 301.76H192.009ZM208.438 296.36C207.126 296.36 205.974 296.076 204.982 295.508C203.99 294.94 203.214 294.152 202.654 293.144C202.102 292.136 201.826 290.976 201.826 289.664C201.826 288.248 202.098 287.02 202.642 285.98C203.186 284.932 203.942 284.12 204.91 283.544C205.878 282.968 206.998 282.68 208.27 282.68C209.614 282.68 210.754 282.996 211.69 283.628C212.634 284.252 213.334 285.136 213.79 286.28C214.246 287.424 214.418 288.772 214.306 290.324H211.438V289.268C211.43 287.86 211.182 286.832 210.694 286.184C210.206 285.536 209.438 285.212 208.39 285.212C207.206 285.212 206.326 285.58 205.75 286.316C205.174 287.044 204.886 288.112 204.886 289.52C204.886 290.832 205.174 291.848 205.75 292.568C206.326 293.288 207.166 293.648 208.27 293.648C208.982 293.648 209.594 293.492 210.106 293.18C210.626 292.86 211.026 292.4 211.306 291.8L214.162 292.664C213.666 293.832 212.898 294.74 211.858 295.388C210.826 296.036 209.686 296.36 208.438 296.36ZM203.974 290.324V288.14H212.89V290.324H203.974ZM224.876 296V289.76C224.876 289.352 224.848 288.9 224.792 288.404C224.736 287.908 224.604 287.432 224.396 286.976C224.196 286.512 223.892 286.132 223.484 285.836C223.084 285.54 222.54 285.392 221.852 285.392C221.484 285.392 221.12 285.452 220.76 285.572C220.4 285.692 220.072 285.9 219.776 286.196C219.488 286.484 219.256 286.884 219.08 287.396C218.904 287.9 218.816 288.548 218.816 289.34L217.1 288.608C217.1 287.504 217.312 286.504 217.736 285.608C218.168 284.712 218.8 284 219.632 283.472C220.464 282.936 221.488 282.668 222.704 282.668C223.664 282.668 224.456 282.828 225.08 283.148C225.704 283.468 226.2 283.876 226.568 284.372C226.936 284.868 227.208 285.396 227.384 285.956C227.56 286.516 227.672 287.048 227.72 287.552C227.776 288.048 227.804 288.452 227.804 288.764V296H224.876ZM215.888 296V283.04H218.468V287.06H218.816V296H215.888ZM76.7878 333.36C75.4918 333.36 74.3398 333.092 73.3318 332.556C72.3318 332.012 71.5438 331.252 70.9678 330.276C70.3998 329.292 70.1158 328.14 70.1158 326.82V315.72H71.5078V326.532C71.5078 327.516 71.6718 328.36 71.9998 329.064C72.3358 329.76 72.7678 330.328 73.2958 330.768C73.8318 331.208 74.4038 331.532 75.0118 331.74C75.6278 331.948 76.2198 332.052 76.7878 332.052C77.3558 332.052 77.9478 331.948 78.5638 331.74C79.1798 331.532 79.7518 331.208 80.2798 330.768C80.8078 330.328 81.2358 329.76 81.5638 329.064C81.8998 328.36 82.0678 327.516 82.0678 326.532V315.72H83.4598V326.82C83.4598 328.132 83.1718 329.28 82.5958 330.264C82.0278 331.24 81.2398 332 80.2318 332.544C79.2318 333.088 78.0838 333.36 76.7878 333.36ZM84.6667 333L90.6907 324.24L84.8107 315.72H86.4787L91.4947 323.1L96.5227 315.72H98.1907L92.3107 324.24L98.3347 333H96.6667L91.4947 325.404L86.3347 333H84.6667ZM104.872 315.72H106.312L101.704 333H100.264L104.872 315.72ZM115.386 333.36C114.09 333.36 112.938 333.092 111.93 332.556C110.93 332.012 110.142 331.252 109.566 330.276C108.998 329.292 108.714 328.14 108.714 326.82V315.72H110.106V326.532C110.106 327.516 110.27 328.36 110.598 329.064C110.934 329.76 111.366 330.328 111.894 330.768C112.43 331.208 113.002 331.532 113.61 331.74C114.226 331.948 114.818 332.052 115.386 332.052C115.954 332.052 116.546 331.948 117.162 331.74C117.778 331.532 118.35 331.208 118.878 330.768C119.406 330.328 119.834 329.76 120.162 329.064C120.498 328.36 120.666 327.516 120.666 326.532V315.72H122.058V326.82C122.058 328.132 121.77 329.28 121.194 330.264C120.626 331.24 119.838 332 118.83 332.544C117.83 333.088 116.682 333.36 115.386 333.36ZM124.945 333V315.72H126.325V333H124.945ZM133.296 333V315.72H138.444C138.644 315.72 138.968 315.724 139.416 315.732C139.872 315.74 140.304 315.776 140.712 315.84C142.008 316.016 143.084 316.504 143.94 317.304C144.796 318.096 145.436 319.104 145.86 320.328C146.284 321.544 146.496 322.888 146.496 324.36C146.496 325.84 146.284 327.192 145.86 328.416C145.436 329.632 144.796 330.636 143.94 331.428C143.084 332.22 142.008 332.704 140.712 332.88C140.304 332.936 139.868 332.972 139.404 332.988C138.948 332.996 138.628 333 138.444 333H133.296ZM134.748 331.644H138.444C138.804 331.644 139.176 331.636 139.56 331.62C139.944 331.596 140.272 331.56 140.544 331.512C141.616 331.32 142.48 330.896 143.136 330.24C143.792 329.576 144.268 328.74 144.564 327.732C144.868 326.716 145.02 325.592 145.02 324.36C145.02 323.12 144.868 321.996 144.564 320.988C144.26 319.972 143.78 319.136 143.124 318.48C142.468 317.816 141.608 317.392 140.544 317.208C140.272 317.16 139.936 317.128 139.536 317.112C139.144 317.088 138.78 317.076 138.444 317.076H134.748V331.644ZM153.783 333.36C152.543 333.36 151.471 333.084 150.567 332.532C149.663 331.972 148.963 331.184 148.467 330.168C147.971 329.144 147.723 327.936 147.723 326.544C147.723 325.128 147.967 323.908 148.455 322.884C148.951 321.852 149.647 321.06 150.543 320.508C151.447 319.956 152.519 319.68 153.759 319.68C155.015 319.68 156.087 319.968 156.975 320.544C157.871 321.112 158.551 321.936 159.015 323.016C159.487 324.096 159.711 325.396 159.687 326.916H158.247V326.436C158.207 324.66 157.807 323.308 157.047 322.38C156.287 321.452 155.199 320.988 153.783 320.988C152.319 320.988 151.187 321.472 150.387 322.44C149.595 323.4 149.199 324.76 149.199 326.52C149.199 328.264 149.595 329.616 150.387 330.576C151.187 331.536 152.311 332.016 153.759 332.016C154.759 332.016 155.631 331.784 156.375 331.32C157.127 330.848 157.723 330.176 158.163 329.304L159.411 329.856C158.891 330.976 158.139 331.84 157.155 332.448C156.171 333.056 155.047 333.36 153.783 333.36ZM148.671 326.916V325.668H158.907V326.916H148.671ZM166.409 333.336C164.913 333.336 163.677 333.02 162.701 332.388C161.733 331.756 161.133 330.876 160.901 329.748L162.317 329.508C162.517 330.276 162.989 330.888 163.733 331.344C164.477 331.8 165.389 332.028 166.469 332.028C167.541 332.028 168.393 331.8 169.025 331.344C169.657 330.888 169.973 330.264 169.973 329.472C169.973 329.04 169.873 328.688 169.673 328.416C169.481 328.136 169.097 327.88 168.521 327.648C167.945 327.416 167.089 327.144 165.953 326.832C164.753 326.512 163.813 326.192 163.133 325.872C162.461 325.552 161.985 325.188 161.705 324.78C161.433 324.372 161.297 323.872 161.297 323.28C161.297 322.568 161.501 321.944 161.909 321.408C162.317 320.864 162.885 320.44 163.613 320.136C164.349 319.832 165.197 319.68 166.157 319.68C167.117 319.68 167.981 319.84 168.749 320.16C169.517 320.472 170.137 320.912 170.609 321.48C171.081 322.04 171.353 322.692 171.425 323.436L170.009 323.7C169.873 322.868 169.453 322.212 168.749 321.732C168.045 321.244 167.165 320.996 166.109 320.988C165.109 320.972 164.293 321.172 163.661 321.588C163.029 321.996 162.713 322.536 162.713 323.208C162.713 323.592 162.821 323.92 163.037 324.192C163.261 324.456 163.653 324.7 164.213 324.924C164.773 325.148 165.565 325.388 166.589 325.644C167.837 325.964 168.809 326.292 169.505 326.628C170.209 326.964 170.705 327.36 170.993 327.816C171.281 328.264 171.425 328.82 171.425 329.484C171.425 330.684 170.977 331.628 170.081 332.316C169.193 332.996 167.969 333.336 166.409 333.336ZM173.61 317.424V315.66H174.99V317.424H173.61ZM173.61 333V320.04H174.99V333H173.61ZM182.917 339.12C182.277 339.12 181.637 339.024 180.997 338.832C180.365 338.648 179.773 338.344 179.221 337.92C178.669 337.504 178.201 336.948 177.817 336.252L179.065 335.508C179.457 336.308 180.013 336.88 180.733 337.224C181.453 337.568 182.185 337.74 182.929 337.74C183.977 337.74 184.805 337.544 185.413 337.152C186.029 336.768 186.469 336.188 186.733 335.412C186.997 334.644 187.129 333.688 187.129 332.544V329.148H187.273V320.04H188.533V332.544C188.533 332.928 188.525 333.296 188.509 333.648C188.493 334 188.457 334.352 188.401 334.704C188.257 335.704 187.961 336.528 187.513 337.176C187.065 337.832 186.457 338.32 185.689 338.64C184.929 338.96 184.005 339.12 182.917 339.12ZM182.857 333.36C181.633 333.36 180.597 333.06 179.749 332.46C178.909 331.852 178.265 331.032 177.817 330C177.377 328.96 177.157 327.792 177.157 326.496C177.157 325.216 177.377 324.06 177.817 323.028C178.257 321.996 178.889 321.18 179.713 320.58C180.545 319.98 181.549 319.68 182.725 319.68C183.933 319.68 184.953 319.976 185.785 320.568C186.617 321.16 187.245 321.972 187.669 323.004C188.093 324.028 188.305 325.192 188.305 326.496C188.305 327.792 188.093 328.956 187.669 329.988C187.245 331.02 186.629 331.84 185.821 332.448C185.013 333.056 184.025 333.36 182.857 333.36ZM182.941 332.04C183.909 332.04 184.713 331.8 185.353 331.32C186.001 330.832 186.481 330.172 186.793 329.34C187.113 328.5 187.273 327.552 187.273 326.496C187.273 325.432 187.113 324.484 186.793 323.652C186.473 322.82 185.993 322.172 185.353 321.708C184.713 321.236 183.917 321 182.965 321C181.981 321 181.169 321.244 180.529 321.732C179.889 322.212 179.413 322.868 179.101 323.7C178.789 324.524 178.633 325.456 178.633 326.496C178.633 327.544 178.793 328.488 179.113 329.328C179.441 330.16 179.921 330.82 180.553 331.308C181.193 331.796 181.989 332.04 182.941 332.04ZM200.664 333V326.256C200.664 325.44 200.58 324.712 200.412 324.072C200.252 323.432 200.004 322.888 199.668 322.44C199.34 321.992 198.924 321.652 198.42 321.42C197.924 321.188 197.336 321.072 196.656 321.072C195.952 321.072 195.34 321.196 194.82 321.444C194.308 321.684 193.884 322.024 193.548 322.464C193.22 322.904 192.972 323.428 192.804 324.036C192.644 324.636 192.564 325.292 192.564 326.004L191.472 325.872C191.472 324.472 191.708 323.32 192.18 322.416C192.66 321.504 193.304 320.832 194.112 320.4C194.92 319.96 195.828 319.74 196.836 319.74C197.548 319.74 198.184 319.844 198.744 320.052C199.312 320.26 199.804 320.556 200.22 320.94C200.636 321.316 200.98 321.764 201.252 322.284C201.524 322.796 201.724 323.36 201.852 323.976C201.988 324.592 202.056 325.236 202.056 325.908V333H200.664ZM191.172 333V320.04H192.432V322.956H192.564V333H191.172ZM209.738 333.36C208.498 333.36 207.426 333.084 206.522 332.532C205.618 331.972 204.918 331.184 204.422 330.168C203.926 329.144 203.678 327.936 203.678 326.544C203.678 325.128 203.922 323.908 204.41 322.884C204.906 321.852 205.602 321.06 206.498 320.508C207.402 319.956 208.474 319.68 209.714 319.68C210.97 319.68 212.042 319.968 212.93 320.544C213.826 321.112 214.506 321.936 214.97 323.016C215.442 324.096 215.666 325.396 215.642 326.916H214.202V326.436C214.162 324.66 213.762 323.308 213.002 322.38C212.242 321.452 211.154 320.988 209.738 320.988C208.274 320.988 207.142 321.472 206.342 322.44C205.55 323.4 205.154 324.76 205.154 326.52C205.154 328.264 205.55 329.616 206.342 330.576C207.142 331.536 208.266 332.016 209.714 332.016C210.714 332.016 211.586 331.784 212.33 331.32C213.082 330.848 213.678 330.176 214.118 329.304L215.366 329.856C214.846 330.976 214.094 331.84 213.11 332.448C212.126 333.056 211.002 333.36 209.738 333.36ZM204.626 326.916V325.668H214.862V326.916H204.626ZM217.576 333V320.04H218.836V323.148L218.524 322.74C218.668 322.372 218.848 322.032 219.064 321.72C219.288 321.4 219.516 321.14 219.748 320.94C220.092 320.62 220.496 320.38 220.96 320.22C221.424 320.052 221.892 319.956 222.364 319.932C222.836 319.9 223.264 319.936 223.648 320.04V321.348C223.136 321.228 222.592 321.204 222.016 321.276C221.44 321.348 220.9 321.596 220.396 322.02C219.956 322.404 219.636 322.852 219.436 323.364C219.236 323.868 219.108 324.4 219.052 324.96C218.996 325.512 218.968 326.052 218.968 326.58V333H217.576ZM233.917 329.856V324.984H229.045V323.724H233.917V318.864H235.177V323.724H240.049V324.984H235.177V329.856H233.917ZM77.6862 370.36C76.4302 370.36 75.3142 370.144 74.3382 369.712C73.3702 369.28 72.5542 368.668 71.8902 367.876C71.2262 367.084 70.7222 366.136 70.3782 365.032C70.0342 363.928 69.8622 362.704 69.8622 361.36C69.8622 359.576 70.1622 358.012 70.7622 356.668C71.3702 355.316 72.2542 354.264 73.4142 353.512C74.5742 352.76 75.9982 352.384 77.6862 352.384C79.4302 352.384 80.8622 352.792 81.9822 353.608C83.1102 354.424 83.9022 355.496 84.3582 356.824L82.9902 357.244C82.5902 356.18 81.9382 355.332 81.0342 354.7C80.1382 354.06 79.0342 353.736 77.7222 353.728C76.3062 353.728 75.1262 354.052 74.1822 354.7C73.2462 355.34 72.5422 356.236 72.0702 357.388C71.5982 358.54 71.3542 359.864 71.3382 361.36C71.3222 362.856 71.5502 364.18 72.0222 365.332C72.5022 366.476 73.2182 367.376 74.1702 368.032C75.1222 368.68 76.3062 369.004 77.7222 369.004C79.0742 369.012 80.1782 368.748 81.0342 368.212C81.8982 367.676 82.5382 366.924 82.9542 365.956C83.3782 364.98 83.6062 363.84 83.6382 362.536H79.3422V361.276H85.0782C85.1022 361.476 85.1142 361.672 85.1142 361.864C85.1222 362.056 85.1262 362.204 85.1262 362.308C85.1262 363.836 84.8582 365.208 84.3222 366.424C83.7942 367.64 82.9782 368.6 81.8742 369.304C80.7782 370.008 79.3822 370.36 77.6862 370.36ZM86.8131 370V357.04H88.0731V360.148L87.7611 359.74C87.9051 359.372 88.0851 359.032 88.3011 358.72C88.5251 358.4 88.7531 358.14 88.9851 357.94C89.3291 357.62 89.7331 357.38 90.1971 357.22C90.6611 357.052 91.1291 356.956 91.6011 356.932C92.0731 356.9 92.5011 356.936 92.8851 357.04V358.348C92.3731 358.228 91.8291 358.204 91.2531 358.276C90.6771 358.348 90.1371 358.596 89.6331 359.02C89.1931 359.404 88.8731 359.852 88.6731 360.364C88.4731 360.868 88.3451 361.4 88.2891 361.96C88.2331 362.512 88.2051 363.052 88.2051 363.58V370H86.8131ZM97.6418 370.36C96.6418 370.36 95.8098 370.184 95.1458 369.832C94.4898 369.48 93.9978 369.016 93.6698 368.44C93.3418 367.856 93.1778 367.224 93.1778 366.544C93.1778 365.808 93.3298 365.192 93.6338 364.696C93.9458 364.2 94.3578 363.8 94.8698 363.496C95.3898 363.192 95.9618 362.964 96.5858 362.812C97.2978 362.652 98.0658 362.516 98.8898 362.404C99.7138 362.284 100.498 362.18 101.242 362.092C101.994 362.004 102.606 361.928 103.078 361.864L102.574 362.164C102.606 360.764 102.342 359.724 101.782 359.044C101.23 358.356 100.254 358.012 98.8538 358.012C97.8698 358.012 97.0578 358.236 96.4178 358.684C95.7858 359.124 95.3418 359.808 95.0858 360.736L93.6698 360.34C93.9658 359.164 94.5618 358.26 95.4578 357.628C96.3538 356.996 97.5018 356.68 98.9018 356.68C100.094 356.68 101.094 356.912 101.902 357.376C102.718 357.84 103.286 358.492 103.606 359.332C103.742 359.676 103.834 360.08 103.882 360.544C103.93 361 103.954 361.46 103.954 361.924V370H102.694V366.592L103.162 366.712C102.77 367.88 102.086 368.78 101.11 369.412C100.134 370.044 98.9778 370.36 97.6418 370.36ZM97.7138 369.088C98.5938 369.088 99.3658 368.932 100.03 368.62C100.694 368.3 101.23 367.856 101.638 367.288C102.054 366.712 102.318 366.036 102.43 365.26C102.51 364.828 102.554 364.36 102.562 363.856C102.57 363.352 102.574 362.98 102.574 362.74L103.174 363.124C102.654 363.188 102.03 363.256 101.302 363.328C100.582 363.4 99.8458 363.488 99.0938 363.592C98.3418 363.696 97.6618 363.828 97.0538 363.988C96.6778 364.092 96.2978 364.244 95.9138 364.444C95.5378 364.636 95.2218 364.904 94.9658 365.248C94.7178 365.592 94.5938 366.028 94.5938 366.556C94.5938 366.948 94.6898 367.34 94.8818 367.732C95.0818 368.124 95.4098 368.448 95.8658 368.704C96.3218 368.96 96.9378 369.088 97.7138 369.088ZM112.026 370.36C110.858 370.36 109.87 370.056 109.062 369.448C108.254 368.84 107.638 368.02 107.214 366.988C106.79 365.956 106.578 364.792 106.578 363.496C106.578 362.192 106.79 361.028 107.214 360.004C107.638 358.972 108.266 358.16 109.098 357.568C109.93 356.976 110.95 356.68 112.158 356.68C113.334 356.68 114.338 356.98 115.17 357.58C116.002 358.18 116.634 358.996 117.066 360.028C117.506 361.06 117.726 362.216 117.726 363.496C117.726 364.792 117.502 365.96 117.054 367C116.614 368.032 115.97 368.852 115.122 369.46C114.282 370.06 113.25 370.36 112.026 370.36ZM106.35 375.76V357.04H107.61V367.024H107.73V375.76H106.35ZM111.942 369.04C112.894 369.04 113.686 368.796 114.318 368.308C114.958 367.82 115.438 367.16 115.758 366.328C116.086 365.488 116.25 364.544 116.25 363.496C116.25 362.456 116.09 361.524 115.77 360.7C115.458 359.868 114.982 359.212 114.342 358.732C113.71 358.244 112.902 358 111.918 358C110.966 358 110.17 358.236 109.53 358.708C108.89 359.172 108.41 359.82 108.09 360.652C107.77 361.484 107.61 362.432 107.61 363.496C107.61 364.552 107.766 365.5 108.078 366.34C108.398 367.172 108.878 367.832 109.518 368.32C110.166 368.8 110.974 369.04 111.942 369.04ZM129.137 370V363.256C129.137 362.44 129.053 361.712 128.885 361.072C128.725 360.432 128.477 359.888 128.141 359.44C127.813 358.992 127.397 358.652 126.893 358.42C126.397 358.188 125.809 358.072 125.129 358.072C124.425 358.072 123.813 358.196 123.293 358.444C122.781 358.684 122.357 359.024 122.021 359.464C121.693 359.904 121.445 360.428 121.277 361.036C121.117 361.636 121.037 362.292 121.037 363.004L119.945 362.872C119.945 361.472 120.181 360.32 120.653 359.416C121.133 358.504 121.777 357.832 122.585 357.4C123.393 356.96 124.301 356.74 125.309 356.74C126.021 356.74 126.657 356.844 127.217 357.052C127.785 357.26 128.277 357.556 128.693 357.94C129.109 358.316 129.453 358.764 129.725 359.284C129.997 359.796 130.197 360.36 130.325 360.976C130.461 361.592 130.529 362.236 130.529 362.908V370H129.137ZM119.645 370V352.72H120.905V362.704H121.037V370H119.645ZM133.158 354.424V352.66H134.538V354.424H133.158ZM133.158 370V357.04H134.538V370H133.158ZM142.716 370.36C141.42 370.36 140.328 370.072 139.44 369.496C138.552 368.912 137.876 368.108 137.412 367.084C136.956 366.052 136.72 364.864 136.704 363.52C136.72 362.152 136.96 360.956 137.424 359.932C137.896 358.9 138.576 358.1 139.464 357.532C140.352 356.964 141.44 356.68 142.728 356.68C143.984 356.68 145.088 356.984 146.04 357.592C147 358.192 147.664 359.02 148.032 360.076L146.688 360.568C146.36 359.76 145.844 359.136 145.14 358.696C144.436 358.248 143.628 358.024 142.716 358.024C141.692 358.024 140.848 358.26 140.184 358.732C139.52 359.196 139.024 359.84 138.696 360.664C138.368 361.488 138.196 362.44 138.18 363.52C138.204 365.176 138.592 366.508 139.344 367.516C140.104 368.516 141.228 369.016 142.716 369.016C143.636 369.016 144.432 368.804 145.104 368.38C145.784 367.956 146.304 367.34 146.664 366.532L148.032 367C147.528 368.096 146.824 368.932 145.92 369.508C145.016 370.076 143.948 370.36 142.716 370.36ZM153.914 370V352.72H159.062C159.262 352.72 159.586 352.724 160.034 352.732C160.49 352.74 160.922 352.776 161.33 352.84C162.626 353.016 163.702 353.504 164.558 354.304C165.414 355.096 166.054 356.104 166.478 357.328C166.902 358.544 167.114 359.888 167.114 361.36C167.114 362.84 166.902 364.192 166.478 365.416C166.054 366.632 165.414 367.636 164.558 368.428C163.702 369.22 162.626 369.704 161.33 369.88C160.922 369.936 160.486 369.972 160.022 369.988C159.566 369.996 159.246 370 159.062 370H153.914ZM155.366 368.644H159.062C159.422 368.644 159.794 368.636 160.178 368.62C160.562 368.596 160.89 368.56 161.162 368.512C162.234 368.32 163.098 367.896 163.754 367.24C164.41 366.576 164.886 365.74 165.182 364.732C165.486 363.716 165.638 362.592 165.638 361.36C165.638 360.12 165.486 358.996 165.182 357.988C164.878 356.972 164.398 356.136 163.742 355.48C163.086 354.816 162.226 354.392 161.162 354.208C160.89 354.16 160.554 354.128 160.154 354.112C159.762 354.088 159.398 354.076 159.062 354.076H155.366V368.644ZM174.401 370.36C173.161 370.36 172.089 370.084 171.185 369.532C170.281 368.972 169.581 368.184 169.085 367.168C168.589 366.144 168.341 364.936 168.341 363.544C168.341 362.128 168.585 360.908 169.073 359.884C169.569 358.852 170.265 358.06 171.161 357.508C172.065 356.956 173.137 356.68 174.377 356.68C175.633 356.68 176.705 356.968 177.593 357.544C178.489 358.112 179.169 358.936 179.633 360.016C180.105 361.096 180.329 362.396 180.305 363.916H178.865V363.436C178.825 361.66 178.425 360.308 177.665 359.38C176.905 358.452 175.817 357.988 174.401 357.988C172.937 357.988 171.805 358.472 171.005 359.44C170.213 360.4 169.817 361.76 169.817 363.52C169.817 365.264 170.213 366.616 171.005 367.576C171.805 368.536 172.929 369.016 174.377 369.016C175.377 369.016 176.249 368.784 176.993 368.32C177.745 367.848 178.341 367.176 178.781 366.304L180.029 366.856C179.509 367.976 178.757 368.84 177.773 369.448C176.789 370.056 175.665 370.36 174.401 370.36ZM169.289 363.916V362.668H179.525V363.916H169.289ZM187.027 370.336C185.531 370.336 184.295 370.02 183.319 369.388C182.351 368.756 181.751 367.876 181.519 366.748L182.935 366.508C183.135 367.276 183.607 367.888 184.351 368.344C185.095 368.8 186.007 369.028 187.087 369.028C188.159 369.028 189.011 368.8 189.643 368.344C190.275 367.888 190.591 367.264 190.591 366.472C190.591 366.04 190.491 365.688 190.291 365.416C190.099 365.136 189.715 364.88 189.139 364.648C188.563 364.416 187.707 364.144 186.571 363.832C185.371 363.512 184.431 363.192 183.751 362.872C183.079 362.552 182.603 362.188 182.323 361.78C182.051 361.372 181.915 360.872 181.915 360.28C181.915 359.568 182.119 358.944 182.527 358.408C182.935 357.864 183.503 357.44 184.231 357.136C184.967 356.832 185.815 356.68 186.775 356.68C187.735 356.68 188.599 356.84 189.367 357.16C190.135 357.472 190.755 357.912 191.227 358.48C191.699 359.04 191.971 359.692 192.043 360.436L190.627 360.7C190.491 359.868 190.071 359.212 189.367 358.732C188.663 358.244 187.783 357.996 186.727 357.988C185.727 357.972 184.911 358.172 184.279 358.588C183.647 358.996 183.331 359.536 183.331 360.208C183.331 360.592 183.439 360.92 183.655 361.192C183.879 361.456 184.271 361.7 184.831 361.924C185.391 362.148 186.183 362.388 187.207 362.644C188.455 362.964 189.427 363.292 190.123 363.628C190.827 363.964 191.323 364.36 191.611 364.816C191.899 365.264 192.043 365.82 192.043 366.484C192.043 367.684 191.595 368.628 190.699 369.316C189.811 369.996 188.587 370.336 187.027 370.336ZM194.228 354.424V352.66H195.608V354.424H194.228ZM194.228 370V357.04H195.608V370H194.228ZM203.535 376.12C202.895 376.12 202.255 376.024 201.615 375.832C200.983 375.648 200.391 375.344 199.839 374.92C199.287 374.504 198.819 373.948 198.435 373.252L199.683 372.508C200.075 373.308 200.631 373.88 201.351 374.224C202.071 374.568 202.803 374.74 203.547 374.74C204.595 374.74 205.423 374.544 206.031 374.152C206.647 373.768 207.087 373.188 207.351 372.412C207.615 371.644 207.747 370.688 207.747 369.544V366.148H207.891V357.04H209.151V369.544C209.151 369.928 209.143 370.296 209.127 370.648C209.111 371 209.075 371.352 209.019 371.704C208.875 372.704 208.579 373.528 208.131 374.176C207.683 374.832 207.075 375.32 206.307 375.64C205.547 375.96 204.623 376.12 203.535 376.12ZM203.475 370.36C202.251 370.36 201.215 370.06 200.367 369.46C199.527 368.852 198.883 368.032 198.435 367C197.995 365.96 197.775 364.792 197.775 363.496C197.775 362.216 197.995 361.06 198.435 360.028C198.875 358.996 199.507 358.18 200.331 357.58C201.163 356.98 202.167 356.68 203.343 356.68C204.551 356.68 205.571 356.976 206.403 357.568C207.235 358.16 207.863 358.972 208.287 360.004C208.711 361.028 208.923 362.192 208.923 363.496C208.923 364.792 208.711 365.956 208.287 366.988C207.863 368.02 207.247 368.84 206.439 369.448C205.631 370.056 204.643 370.36 203.475 370.36ZM203.559 369.04C204.527 369.04 205.331 368.8 205.971 368.32C206.619 367.832 207.099 367.172 207.411 366.34C207.731 365.5 207.891 364.552 207.891 363.496C207.891 362.432 207.731 361.484 207.411 360.652C207.091 359.82 206.611 359.172 205.971 358.708C205.331 358.236 204.535 358 203.583 358C202.599 358 201.787 358.244 201.147 358.732C200.507 359.212 200.031 359.868 199.719 360.7C199.407 361.524 199.251 362.456 199.251 363.496C199.251 364.544 199.411 365.488 199.731 366.328C200.059 367.16 200.539 367.82 201.171 368.308C201.811 368.796 202.607 369.04 203.559 369.04ZM221.282 370V363.256C221.282 362.44 221.198 361.712 221.03 361.072C220.87 360.432 220.622 359.888 220.286 359.44C219.958 358.992 219.542 358.652 219.038 358.42C218.542 358.188 217.954 358.072 217.274 358.072C216.57 358.072 215.958 358.196 215.438 358.444C214.926 358.684 214.502 359.024 214.166 359.464C213.838 359.904 213.59 360.428 213.422 361.036C213.262 361.636 213.182 362.292 213.182 363.004L212.09 362.872C212.09 361.472 212.326 360.32 212.798 359.416C213.278 358.504 213.922 357.832 214.73 357.4C215.538 356.96 216.446 356.74 217.454 356.74C218.166 356.74 218.802 356.844 219.362 357.052C219.93 357.26 220.422 357.556 220.838 357.94C221.254 358.316 221.598 358.764 221.87 359.284C222.142 359.796 222.342 360.36 222.47 360.976C222.606 361.592 222.674 362.236 222.674 362.908V370H221.282ZM211.79 370V357.04H213.05V359.956H213.182V370H211.79ZM230.356 370.36C229.116 370.36 228.044 370.084 227.14 369.532C226.236 368.972 225.536 368.184 225.04 367.168C224.544 366.144 224.296 364.936 224.296 363.544C224.296 362.128 224.54 360.908 225.028 359.884C225.524 358.852 226.22 358.06 227.116 357.508C228.02 356.956 229.092 356.68 230.332 356.68C231.588 356.68 232.66 356.968 233.548 357.544C234.444 358.112 235.124 358.936 235.588 360.016C236.06 361.096 236.284 362.396 236.26 363.916H234.82V363.436C234.78 361.66 234.38 360.308 233.62 359.38C232.86 358.452 231.772 357.988 230.356 357.988C228.892 357.988 227.76 358.472 226.96 359.44C226.168 360.4 225.772 361.76 225.772 363.52C225.772 365.264 226.168 366.616 226.96 367.576C227.76 368.536 228.884 369.016 230.332 369.016C231.332 369.016 232.204 368.784 232.948 368.32C233.7 367.848 234.296 367.176 234.736 366.304L235.984 366.856C235.464 367.976 234.712 368.84 233.728 369.448C232.744 370.056 231.62 370.36 230.356 370.36ZM225.244 363.916V362.668H235.48V363.916H225.244ZM238.194 370V357.04H239.454V360.148L239.142 359.74C239.286 359.372 239.466 359.032 239.682 358.72C239.906 358.4 240.134 358.14 240.366 357.94C240.71 357.62 241.114 357.38 241.578 357.22C242.042 357.052 242.51 356.956 242.982 356.932C243.454 356.9 243.882 356.936 244.266 357.04V358.348C243.754 358.228 243.21 358.204 242.634 358.276C242.058 358.348 241.518 358.596 241.014 359.02C240.574 359.404 240.254 359.852 240.054 360.364C239.854 360.868 239.726 361.4 239.67 361.96C239.614 362.512 239.586 363.052 239.586 363.58V370H238.194Z" fill="black"/>
<defs>
<filter id="filter0_d_495_1175" x="0" y="0" width="316" height="424" filterUnits="userSpaceOnUse" color-interpolation-filters="sRGB">
<feFlood flood-opacity="0" result="BackgroundImageFix"/>
<feColorMatrix in="SourceAlpha" type="matrix" values="0 0 0 0 0 0 0 0 0 0 0 0 0 0 0 0 0 0 127 0" result="hardAlpha"/>
<feOffset dy="2"/>
<feGaussianBlur stdDeviation="2"/>
<feComposite in2="hardAlpha" operator="out"/>
<feColorMatrix type="matrix" values="0 0 0 0 0 0 0 0 0 0 0 0 0 0 0 0 0 0 0.25 0"/>
<feBlend mode="normal" in2="BackgroundImageFix" result="effect1_dropShadow_495_1175"/>
<feBlend mode="normal" in="SourceGraphic" in2="effect1_dropShadow_495_1175" result="shape"/>
</filter>
</defs>
</svg>
