<svg width="316" height="424" viewBox="0 0 316 424" fill="none" xmlns="http://www.w3.org/2000/svg">
<g filter="url(#filter0_d_502_1376)">
<rect x="4" y="2" width="308" height="416" rx="30" fill="white"/>
</g>
<path d="M102.285 105.602C102.355 100.942 103.335 71.1116 115.425 57.6616C135.535 35.2816 173.625 35.4516 193.585 58.0216C205.525 71.5116 212.905 99.2416 213.045 105.402C213.675 133.312 200.935 155.102 162.335 161.912C131.615 167.332 101.815 138.992 102.295 105.602H102.285Z" fill="white" stroke="#221F1F" stroke-width="2.73" stroke-miterlimit="10"/>
<path d="M131.585 207.242C125.475 180.512 133.075 172.552 117.455 134.382C114.455 127.052 112.795 119.212 112.715 111.292C112.555 96.2816 117.275 93.2416 129.625 88.5616C143.345 83.3716 146.905 74.7416 156.035 69.9416C157.235 69.3116 158.705 69.5716 159.675 70.5116C168.465 79.0516 176.385 85.1416 186.965 89.3116C196.935 93.2416 203.625 102.722 204.015 113.422C204.205 118.502 204.125 114.912 204.185 120.652C204.475 148.682 184.075 159.092 180.175 207.992C192.925 189.142 205.925 180.212 216.245 167.622C230.265 149.912 229.695 122.832 226.215 94.4616C217.805 59.6416 204.655 28.9616 157.475 36.0016C152.955 34.3916 141.565 31.0316 127.845 34.5416C122.975 35.7816 114.365 38.7816 106.435 46.1416C104.255 48.1716 99.9552 52.5316 95.7052 60.6416C86.2152 78.7716 86.7452 96.8716 87.2452 113.542C87.5152 122.802 88.5052 133.522 92.1552 147.362C94.0452 154.522 96.9852 161.352 100.785 167.702C106.915 177.942 118.485 195.602 131.585 207.232V207.242Z" fill="#221F1F"/>
<path d="M167.746 121.892C167.746 117.882 173.106 116.572 179.116 116.212C188.176 115.652 189.546 115.362 189.056 121.892C188.756 125.872 184.286 129.142 178.406 129.142C172.526 129.142 167.756 125.892 167.756 121.892H167.746Z" fill="#221F1F"/>
<path d="M146.245 122.222C146.245 118.212 140.955 116.902 135.025 116.542C126.085 115.982 124.735 115.692 125.215 122.222C125.505 126.202 129.925 129.472 135.725 129.472C141.535 129.472 146.235 126.222 146.235 122.222H146.245Z" fill="#221F1F"/>
<path d="M167.856 107.322C169.476 103.742 173.146 103.012 180.816 102.002C191.926 100.552 196.496 104.372 194.266 105.922C191.996 107.502 190.946 107.912 181.316 109.032C174.066 109.872 166.756 109.732 167.856 107.312V107.322Z" fill="#221F1F"/>
<path d="M144.416 107.262C143.236 104.322 138.586 103.232 130.436 102.642C118.636 101.782 114.016 105.832 116.456 107.262C118.936 108.722 120.076 109.072 130.306 109.692C138.006 110.152 145.376 109.632 144.426 107.262H144.416Z" fill="#221F1F"/>
<path d="M156.406 125.262C156.966 127.362 156.336 129.542 155.666 131.622C154.996 133.702 154.276 135.842 154.656 137.972C155.036 140.102 156.836 142.222 159.436 142.562" stroke="#221F1F" stroke-width="1.37" stroke-linecap="round" stroke-linejoin="round"/>
<path d="M150.236 152.082C156.606 153.822 161.596 153.392 167.536 150.302" stroke="#221F1F" stroke-width="1.82" stroke-linecap="round" stroke-linejoin="round"/>
<path d="M102.166 98.5216C98.506 94.3516 90.766 93.5116 85.696 96.1816C80.626 98.8516 78.316 104.302 79.176 109.342C80.036 114.382 83.666 118.972 88.286 122.442C92.906 125.912 98.466 128.362 104.086 130.532C102.266 120.402 101.736 110.162 102.176 98.5216H102.166Z" fill="white" stroke="#221F1F" stroke-width="2.73" stroke-miterlimit="10"/>
<path d="M101.885 116.472C98.2052 114.862 94.6752 112.492 91.5352 109.502L101.885 116.472Z" fill="#221F1F"/>
<path d="M101.885 116.472C98.2052 114.862 94.6752 112.492 91.5352 109.502" stroke="#221F1F" stroke-width="2.03" stroke-miterlimit="10" stroke-linecap="round"/>
<path d="M211.797 95.6216C215.327 91.1216 223.427 89.5716 228.977 91.7816C234.527 93.9816 237.377 99.2016 236.857 104.312C236.337 109.422 232.867 114.332 228.267 118.212C223.667 122.092 217.997 125.052 212.247 127.732C213.387 117.462 213.157 107.192 211.797 95.6316V95.6216Z" fill="white" stroke="#221F1F" stroke-width="2.73" stroke-miterlimit="10"/>
<path d="M211.797 114.062C215.957 112.452 219.957 109.802 223.547 106.272L211.797 114.062Z" fill="#221F1F"/>
<path d="M211.797 114.062C215.957 112.452 219.957 109.802 223.547 106.272" stroke="#221F1F" stroke-width="2.42" stroke-miterlimit="10" stroke-linecap="round"/>
<path d="M103.982 294V279.432H98.3895V276.72H112.466V279.432H106.874V294H103.982ZM122.628 294V287.76C122.628 287.352 122.6 286.9 122.544 286.404C122.488 285.908 122.356 285.432 122.148 284.976C121.948 284.512 121.644 284.132 121.236 283.836C120.836 283.54 120.292 283.392 119.604 283.392C119.236 283.392 118.872 283.452 118.512 283.572C118.152 283.692 117.824 283.9 117.528 284.196C117.24 284.484 117.008 284.884 116.832 285.396C116.656 285.9 116.568 286.548 116.568 287.34L114.852 286.608C114.852 285.504 115.064 284.504 115.488 283.608C115.92 282.712 116.552 282 117.384 281.472C118.216 280.936 119.24 280.668 120.456 280.668C121.416 280.668 122.208 280.828 122.832 281.148C123.456 281.468 123.952 281.876 124.32 282.372C124.688 282.868 124.96 283.396 125.136 283.956C125.312 284.516 125.424 285.048 125.472 285.552C125.528 286.048 125.556 286.452 125.556 286.764V294H122.628ZM113.64 294V276.72H116.22V285.816H116.568V294H113.64ZM131.592 294.36C130.656 294.36 129.864 294.184 129.216 293.832C128.568 293.472 128.076 292.996 127.74 292.404C127.412 291.812 127.248 291.16 127.248 290.448C127.248 289.824 127.352 289.264 127.56 288.768C127.768 288.264 128.088 287.832 128.52 287.472C128.952 287.104 129.512 286.804 130.2 286.572C130.72 286.404 131.328 286.252 132.024 286.116C132.728 285.98 133.488 285.856 134.304 285.744C135.128 285.624 135.988 285.496 136.884 285.36L135.852 285.948C135.86 285.052 135.66 284.392 135.252 283.968C134.844 283.544 134.156 283.332 133.188 283.332C132.604 283.332 132.04 283.468 131.496 283.74C130.952 284.012 130.572 284.48 130.356 285.144L127.716 284.316C128.036 283.22 128.644 282.34 129.54 281.676C130.444 281.012 131.66 280.68 133.188 280.68C134.34 280.68 135.352 280.868 136.224 281.244C137.104 281.62 137.756 282.236 138.18 283.092C138.412 283.548 138.552 284.016 138.6 284.496C138.648 284.968 138.672 285.484 138.672 286.044V294H136.14V291.192L136.56 291.648C135.976 292.584 135.292 293.272 134.508 293.712C133.732 294.144 132.76 294.36 131.592 294.36ZM132.168 292.056C132.824 292.056 133.384 291.94 133.848 291.708C134.312 291.476 134.68 291.192 134.952 290.856C135.232 290.52 135.42 290.204 135.516 289.908C135.668 289.54 135.752 289.12 135.768 288.648C135.792 288.168 135.804 287.78 135.804 287.484L136.692 287.748C135.82 287.884 135.072 288.004 134.448 288.108C133.824 288.212 133.288 288.312 132.84 288.408C132.392 288.496 131.996 288.596 131.652 288.708C131.316 288.828 131.032 288.968 130.8 289.128C130.568 289.288 130.388 289.472 130.26 289.68C130.14 289.888 130.08 290.132 130.08 290.412C130.08 290.732 130.16 291.016 130.32 291.264C130.48 291.504 130.712 291.696 131.016 291.84C131.328 291.984 131.712 292.056 132.168 292.056ZM156.64 294V286.128C156.64 285.24 156.42 284.548 155.98 284.052C155.54 283.548 154.944 283.296 154.192 283.296C153.728 283.296 153.312 283.404 152.944 283.62C152.576 283.828 152.284 284.14 152.068 284.556C151.852 284.964 151.744 285.452 151.744 286.02L150.46 285.264C150.452 284.368 150.652 283.58 151.06 282.9C151.476 282.212 152.036 281.676 152.74 281.292C153.444 280.908 154.228 280.716 155.092 280.716C156.524 280.716 157.62 281.148 158.38 282.012C159.148 282.868 159.532 283.996 159.532 285.396V294H156.64ZM141.052 294V281.04H143.608V285.06H143.968V294H141.052ZM148.864 294V286.164C148.864 285.26 148.644 284.556 148.204 284.052C147.764 283.548 147.164 283.296 146.404 283.296C145.668 283.296 145.076 283.548 144.628 284.052C144.188 284.556 143.968 285.212 143.968 286.02L142.672 285.156C142.672 284.316 142.88 283.56 143.296 282.888C143.712 282.216 144.272 281.688 144.976 281.304C145.688 280.912 146.484 280.716 147.364 280.716C148.332 280.716 149.14 280.924 149.788 281.34C150.444 281.748 150.932 282.308 151.252 283.02C151.58 283.724 151.744 284.52 151.744 285.408V294H148.864ZM165.566 294.36C164.63 294.36 163.838 294.184 163.19 293.832C162.542 293.472 162.05 292.996 161.714 292.404C161.386 291.812 161.222 291.16 161.222 290.448C161.222 289.824 161.326 289.264 161.534 288.768C161.742 288.264 162.062 287.832 162.494 287.472C162.926 287.104 163.486 286.804 164.174 286.572C164.694 286.404 165.302 286.252 165.998 286.116C166.702 285.98 167.462 285.856 168.278 285.744C169.102 285.624 169.962 285.496 170.858 285.36L169.826 285.948C169.834 285.052 169.634 284.392 169.226 283.968C168.818 283.544 168.13 283.332 167.162 283.332C166.578 283.332 166.014 283.468 165.47 283.74C164.926 284.012 164.546 284.48 164.33 285.144L161.69 284.316C162.01 283.22 162.618 282.34 163.514 281.676C164.418 281.012 165.634 280.68 167.162 280.68C168.314 280.68 169.326 280.868 170.198 281.244C171.078 281.62 171.73 282.236 172.154 283.092C172.386 283.548 172.526 284.016 172.574 284.496C172.622 284.968 172.646 285.484 172.646 286.044V294H170.114V291.192L170.534 291.648C169.95 292.584 169.266 293.272 168.482 293.712C167.706 294.144 166.734 294.36 165.566 294.36ZM166.142 292.056C166.798 292.056 167.358 291.94 167.822 291.708C168.286 291.476 168.654 291.192 168.926 290.856C169.206 290.52 169.394 290.204 169.49 289.908C169.642 289.54 169.726 289.12 169.742 288.648C169.766 288.168 169.778 287.78 169.778 287.484L170.666 287.748C169.794 287.884 169.046 288.004 168.422 288.108C167.798 288.212 167.262 288.312 166.814 288.408C166.366 288.496 165.97 288.596 165.626 288.708C165.29 288.828 165.006 288.968 164.774 289.128C164.542 289.288 164.362 289.472 164.234 289.68C164.114 289.888 164.054 290.132 164.054 290.412C164.054 290.732 164.134 291.016 164.294 291.264C164.454 291.504 164.686 291.696 164.99 291.84C165.302 291.984 165.686 292.056 166.142 292.056ZM180.054 294.36C178.454 294.36 177.154 294 176.154 293.28C175.154 292.56 174.546 291.548 174.33 290.244L177.282 289.788C177.434 290.428 177.77 290.932 178.29 291.3C178.81 291.668 179.466 291.852 180.258 291.852C180.954 291.852 181.49 291.716 181.866 291.444C182.25 291.164 182.442 290.784 182.442 290.304C182.442 290.008 182.37 289.772 182.226 289.596C182.09 289.412 181.786 289.236 181.314 289.068C180.842 288.9 180.118 288.688 179.142 288.432C178.054 288.144 177.19 287.836 176.55 287.508C175.91 287.172 175.45 286.776 175.17 286.32C174.89 285.864 174.75 285.312 174.75 284.664C174.75 283.856 174.962 283.152 175.386 282.552C175.81 281.952 176.402 281.492 177.162 281.172C177.922 280.844 178.818 280.68 179.85 280.68C180.858 280.68 181.75 280.836 182.526 281.148C183.31 281.46 183.942 281.904 184.422 282.48C184.902 283.056 185.198 283.732 185.31 284.508L182.358 285.036C182.286 284.484 182.034 284.048 181.602 283.728C181.178 283.408 180.61 283.228 179.898 283.188C179.218 283.148 178.67 283.252 178.254 283.5C177.838 283.74 177.63 284.08 177.63 284.52C177.63 284.768 177.714 284.98 177.882 285.156C178.05 285.332 178.386 285.508 178.89 285.684C179.402 285.86 180.162 286.076 181.17 286.332C182.202 286.596 183.026 286.9 183.642 287.244C184.266 287.58 184.714 287.984 184.986 288.456C185.266 288.928 185.406 289.5 185.406 290.172C185.406 291.476 184.93 292.5 183.978 293.244C183.034 293.988 181.726 294.36 180.054 294.36ZM196.278 294V287.76C196.278 287.352 196.25 286.9 196.194 286.404C196.138 285.908 196.006 285.432 195.798 284.976C195.598 284.512 195.294 284.132 194.886 283.836C194.486 283.54 193.942 283.392 193.254 283.392C192.886 283.392 192.522 283.452 192.162 283.572C191.802 283.692 191.474 283.9 191.178 284.196C190.89 284.484 190.658 284.884 190.482 285.396C190.306 285.9 190.218 286.548 190.218 287.34L188.502 286.608C188.502 285.504 188.714 284.504 189.138 283.608C189.57 282.712 190.202 282 191.034 281.472C191.866 280.936 192.89 280.668 194.106 280.668C195.066 280.668 195.858 280.828 196.482 281.148C197.106 281.468 197.602 281.876 197.97 282.372C198.338 282.868 198.61 283.396 198.786 283.956C198.962 284.516 199.074 285.048 199.122 285.552C199.178 286.048 199.206 286.452 199.206 286.764V294H196.278ZM187.29 294V276.72H189.87V285.816H190.218V294H187.29ZM205.242 294.36C204.306 294.36 203.514 294.184 202.866 293.832C202.218 293.472 201.726 292.996 201.39 292.404C201.062 291.812 200.898 291.16 200.898 290.448C200.898 289.824 201.002 289.264 201.21 288.768C201.418 288.264 201.738 287.832 202.17 287.472C202.602 287.104 203.162 286.804 203.85 286.572C204.37 286.404 204.978 286.252 205.674 286.116C206.378 285.98 207.138 285.856 207.954 285.744C208.778 285.624 209.638 285.496 210.534 285.36L209.502 285.948C209.51 285.052 209.31 284.392 208.902 283.968C208.494 283.544 207.806 283.332 206.838 283.332C206.254 283.332 205.69 283.468 205.146 283.74C204.602 284.012 204.222 284.48 204.006 285.144L201.366 284.316C201.686 283.22 202.294 282.34 203.19 281.676C204.094 281.012 205.31 280.68 206.838 280.68C207.99 280.68 209.002 280.868 209.874 281.244C210.754 281.62 211.406 282.236 211.83 283.092C212.062 283.548 212.202 284.016 212.25 284.496C212.298 284.968 212.322 285.484 212.322 286.044V294H209.79V291.192L210.21 291.648C209.626 292.584 208.942 293.272 208.158 293.712C207.382 294.144 206.41 294.36 205.242 294.36ZM205.818 292.056C206.474 292.056 207.034 291.94 207.498 291.708C207.962 291.476 208.33 291.192 208.602 290.856C208.882 290.52 209.07 290.204 209.166 289.908C209.318 289.54 209.402 289.12 209.418 288.648C209.442 288.168 209.454 287.78 209.454 287.484L210.342 287.748C209.47 287.884 208.722 288.004 208.098 288.108C207.474 288.212 206.938 288.312 206.49 288.408C206.042 288.496 205.646 288.596 205.302 288.708C204.966 288.828 204.682 288.968 204.45 289.128C204.218 289.288 204.038 289.472 203.91 289.68C203.79 289.888 203.73 290.132 203.73 290.412C203.73 290.732 203.81 291.016 203.97 291.264C204.13 291.504 204.362 291.696 204.666 291.84C204.978 291.984 205.362 292.056 205.818 292.056ZM86.1308 331L91.5788 313.72H95.8148L101.263 331H98.2868L93.3428 315.496H93.9908L89.1068 331H86.1308ZM89.1668 327.256V324.556H98.2388V327.256H89.1668ZM118.276 331V323.128C118.276 322.24 118.056 321.548 117.616 321.052C117.176 320.548 116.58 320.296 115.828 320.296C115.364 320.296 114.948 320.404 114.58 320.62C114.212 320.828 113.92 321.14 113.704 321.556C113.488 321.964 113.38 322.452 113.38 323.02L112.096 322.264C112.088 321.368 112.288 320.58 112.696 319.9C113.112 319.212 113.672 318.676 114.376 318.292C115.08 317.908 115.864 317.716 116.728 317.716C118.16 317.716 119.256 318.148 120.016 319.012C120.784 319.868 121.168 320.996 121.168 322.396V331H118.276ZM102.688 331V318.04H105.244V322.06H105.604V331H102.688ZM110.5 331V323.164C110.5 322.26 110.28 321.556 109.84 321.052C109.4 320.548 108.8 320.296 108.04 320.296C107.304 320.296 106.712 320.548 106.264 321.052C105.824 321.556 105.604 322.212 105.604 323.02L104.308 322.156C104.308 321.316 104.516 320.56 104.932 319.888C105.348 319.216 105.908 318.688 106.612 318.304C107.324 317.912 108.12 317.716 109 317.716C109.968 317.716 110.776 317.924 111.424 318.34C112.08 318.748 112.568 319.308 112.888 320.02C113.216 320.724 113.38 321.52 113.38 322.408V331H110.5ZM127.202 331.36C126.266 331.36 125.474 331.184 124.826 330.832C124.178 330.472 123.686 329.996 123.35 329.404C123.022 328.812 122.858 328.16 122.858 327.448C122.858 326.824 122.962 326.264 123.17 325.768C123.378 325.264 123.698 324.832 124.13 324.472C124.562 324.104 125.122 323.804 125.81 323.572C126.33 323.404 126.938 323.252 127.634 323.116C128.338 322.98 129.098 322.856 129.914 322.744C130.738 322.624 131.598 322.496 132.494 322.36L131.462 322.948C131.47 322.052 131.27 321.392 130.862 320.968C130.454 320.544 129.766 320.332 128.798 320.332C128.214 320.332 127.65 320.468 127.106 320.74C126.562 321.012 126.182 321.48 125.966 322.144L123.326 321.316C123.646 320.22 124.254 319.34 125.15 318.676C126.054 318.012 127.27 317.68 128.798 317.68C129.95 317.68 130.962 317.868 131.834 318.244C132.714 318.62 133.366 319.236 133.79 320.092C134.022 320.548 134.162 321.016 134.21 321.496C134.258 321.968 134.282 322.484 134.282 323.044V331H131.75V328.192L132.17 328.648C131.586 329.584 130.902 330.272 130.118 330.712C129.342 331.144 128.37 331.36 127.202 331.36ZM127.778 329.056C128.434 329.056 128.994 328.94 129.458 328.708C129.922 328.476 130.29 328.192 130.562 327.856C130.842 327.52 131.03 327.204 131.126 326.908C131.278 326.54 131.362 326.12 131.378 325.648C131.402 325.168 131.414 324.78 131.414 324.484L132.302 324.748C131.43 324.884 130.682 325.004 130.058 325.108C129.434 325.212 128.898 325.312 128.45 325.408C128.002 325.496 127.606 325.596 127.262 325.708C126.926 325.828 126.642 325.968 126.41 326.128C126.178 326.288 125.998 326.472 125.87 326.68C125.75 326.888 125.69 327.132 125.69 327.412C125.69 327.732 125.77 328.016 125.93 328.264C126.09 328.504 126.322 328.696 126.626 328.84C126.938 328.984 127.322 329.056 127.778 329.056ZM136.686 331V318.04H139.242V321.196L138.93 320.788C139.09 320.356 139.302 319.964 139.566 319.612C139.838 319.252 140.162 318.956 140.538 318.724C140.858 318.508 141.21 318.34 141.594 318.22C141.986 318.092 142.386 318.016 142.794 317.992C143.202 317.96 143.598 317.976 143.982 318.04V320.74C143.598 320.628 143.154 320.592 142.65 320.632C142.154 320.672 141.706 320.812 141.306 321.052C140.906 321.268 140.578 321.544 140.322 321.88C140.074 322.216 139.89 322.6 139.77 323.032C139.65 323.456 139.59 323.916 139.59 324.412V331H136.686ZM148.872 331.36C147.936 331.36 147.144 331.184 146.496 330.832C145.848 330.472 145.356 329.996 145.02 329.404C144.692 328.812 144.528 328.16 144.528 327.448C144.528 326.824 144.632 326.264 144.84 325.768C145.048 325.264 145.368 324.832 145.8 324.472C146.232 324.104 146.792 323.804 147.48 323.572C148 323.404 148.608 323.252 149.304 323.116C150.008 322.98 150.768 322.856 151.584 322.744C152.408 322.624 153.268 322.496 154.164 322.36L153.132 322.948C153.14 322.052 152.94 321.392 152.532 320.968C152.124 320.544 151.436 320.332 150.468 320.332C149.884 320.332 149.32 320.468 148.776 320.74C148.232 321.012 147.852 321.48 147.636 322.144L144.996 321.316C145.316 320.22 145.924 319.34 146.82 318.676C147.724 318.012 148.94 317.68 150.468 317.68C151.62 317.68 152.632 317.868 153.504 318.244C154.384 318.62 155.036 319.236 155.46 320.092C155.692 320.548 155.832 321.016 155.88 321.496C155.928 321.968 155.952 322.484 155.952 323.044V331H153.42V328.192L153.84 328.648C153.256 329.584 152.572 330.272 151.788 330.712C151.012 331.144 150.04 331.36 148.872 331.36ZM149.448 329.056C150.104 329.056 150.664 328.94 151.128 328.708C151.592 328.476 151.96 328.192 152.232 327.856C152.512 327.52 152.7 327.204 152.796 326.908C152.948 326.54 153.032 326.12 153.048 325.648C153.072 325.168 153.084 324.78 153.084 324.484L153.972 324.748C153.1 324.884 152.352 325.004 151.728 325.108C151.104 325.212 150.568 325.312 150.12 325.408C149.672 325.496 149.276 325.596 148.932 325.708C148.596 325.828 148.312 325.968 148.08 326.128C147.848 326.288 147.668 326.472 147.54 326.68C147.42 326.888 147.36 327.132 147.36 327.412C147.36 327.732 147.44 328.016 147.6 328.264C147.76 328.504 147.992 328.696 148.296 328.84C148.608 328.984 148.992 329.056 149.448 329.056ZM163.36 331.36C161.76 331.36 160.46 331 159.46 330.28C158.46 329.56 157.852 328.548 157.636 327.244L160.588 326.788C160.74 327.428 161.076 327.932 161.596 328.3C162.116 328.668 162.772 328.852 163.564 328.852C164.26 328.852 164.796 328.716 165.172 328.444C165.556 328.164 165.748 327.784 165.748 327.304C165.748 327.008 165.676 326.772 165.532 326.596C165.396 326.412 165.092 326.236 164.62 326.068C164.148 325.9 163.424 325.688 162.448 325.432C161.36 325.144 160.496 324.836 159.856 324.508C159.216 324.172 158.756 323.776 158.476 323.32C158.196 322.864 158.056 322.312 158.056 321.664C158.056 320.856 158.268 320.152 158.692 319.552C159.116 318.952 159.708 318.492 160.468 318.172C161.228 317.844 162.124 317.68 163.156 317.68C164.164 317.68 165.056 317.836 165.832 318.148C166.616 318.46 167.248 318.904 167.728 319.48C168.208 320.056 168.504 320.732 168.616 321.508L165.664 322.036C165.592 321.484 165.34 321.048 164.908 320.728C164.484 320.408 163.916 320.228 163.204 320.188C162.524 320.148 161.976 320.252 161.56 320.5C161.144 320.74 160.936 321.08 160.936 321.52C160.936 321.768 161.02 321.98 161.188 322.156C161.356 322.332 161.692 322.508 162.196 322.684C162.708 322.86 163.468 323.076 164.476 323.332C165.508 323.596 166.332 323.9 166.948 324.244C167.572 324.58 168.02 324.984 168.292 325.456C168.572 325.928 168.712 326.5 168.712 327.172C168.712 328.476 168.236 329.5 167.284 330.244C166.34 330.988 165.032 331.36 163.36 331.36ZM176.512 331.36C175.2 331.36 174.048 331.076 173.056 330.508C172.064 329.94 171.288 329.152 170.728 328.144C170.176 327.136 169.9 325.976 169.9 324.664C169.9 323.248 170.172 322.02 170.716 320.98C171.26 319.932 172.016 319.12 172.984 318.544C173.952 317.968 175.072 317.68 176.344 317.68C177.688 317.68 178.828 317.996 179.764 318.628C180.708 319.252 181.408 320.136 181.864 321.28C182.32 322.424 182.492 323.772 182.38 325.324H179.512V324.268C179.504 322.86 179.256 321.832 178.768 321.184C178.28 320.536 177.512 320.212 176.464 320.212C175.28 320.212 174.4 320.58 173.824 321.316C173.248 322.044 172.96 323.112 172.96 324.52C172.96 325.832 173.248 326.848 173.824 327.568C174.4 328.288 175.24 328.648 176.344 328.648C177.056 328.648 177.668 328.492 178.18 328.18C178.7 327.86 179.1 327.4 179.38 326.8L182.236 327.664C181.74 328.832 180.972 329.74 179.932 330.388C178.9 331.036 177.76 331.36 176.512 331.36ZM172.048 325.324V323.14H180.964V325.324H172.048ZM184.314 331L184.338 313.72H187.266V324.28L192.006 318.04H195.618L190.59 324.52L196.05 331H192.222L187.266 324.76V331H184.314ZM200.156 331.36C199.22 331.36 198.428 331.184 197.78 330.832C197.132 330.472 196.64 329.996 196.304 329.404C195.976 328.812 195.812 328.16 195.812 327.448C195.812 326.824 195.916 326.264 196.124 325.768C196.332 325.264 196.652 324.832 197.084 324.472C197.516 324.104 198.076 323.804 198.764 323.572C199.284 323.404 199.892 323.252 200.588 323.116C201.292 322.98 202.052 322.856 202.868 322.744C203.692 322.624 204.552 322.496 205.448 322.36L204.416 322.948C204.424 322.052 204.224 321.392 203.816 320.968C203.408 320.544 202.72 320.332 201.752 320.332C201.168 320.332 200.604 320.468 200.06 320.74C199.516 321.012 199.136 321.48 198.92 322.144L196.28 321.316C196.6 320.22 197.208 319.34 198.104 318.676C199.008 318.012 200.224 317.68 201.752 317.68C202.904 317.68 203.916 317.868 204.788 318.244C205.668 318.62 206.32 319.236 206.744 320.092C206.976 320.548 207.116 321.016 207.164 321.496C207.212 321.968 207.236 322.484 207.236 323.044V331H204.704V328.192L205.124 328.648C204.54 329.584 203.856 330.272 203.072 330.712C202.296 331.144 201.324 331.36 200.156 331.36ZM200.732 329.056C201.388 329.056 201.948 328.94 202.412 328.708C202.876 328.476 203.244 328.192 203.516 327.856C203.796 327.52 203.984 327.204 204.08 326.908C204.232 326.54 204.316 326.12 204.332 325.648C204.356 325.168 204.368 324.78 204.368 324.484L205.256 324.748C204.384 324.884 203.636 325.004 203.012 325.108C202.388 325.212 201.852 325.312 201.404 325.408C200.956 325.496 200.56 325.596 200.216 325.708C199.88 325.828 199.596 325.968 199.364 326.128C199.132 326.288 198.952 326.472 198.824 326.68C198.704 326.888 198.644 327.132 198.644 327.412C198.644 327.732 198.724 328.016 198.884 328.264C199.044 328.504 199.276 328.696 199.58 328.84C199.892 328.984 200.276 329.056 200.732 329.056ZM209.64 331V318.04H212.196V321.196L211.884 320.788C212.044 320.356 212.256 319.964 212.52 319.612C212.792 319.252 213.116 318.956 213.492 318.724C213.812 318.508 214.164 318.34 214.548 318.22C214.94 318.092 215.34 318.016 215.748 317.992C216.156 317.96 216.552 317.976 216.936 318.04V320.74C216.552 320.628 216.108 320.592 215.604 320.632C215.108 320.672 214.66 320.812 214.26 321.052C213.86 321.268 213.532 321.544 213.276 321.88C213.028 322.216 212.844 322.6 212.724 323.032C212.604 323.456 212.544 323.916 212.544 324.412V331H209.64ZM221.825 331.36C220.889 331.36 220.097 331.184 219.449 330.832C218.801 330.472 218.309 329.996 217.973 329.404C217.645 328.812 217.481 328.16 217.481 327.448C217.481 326.824 217.585 326.264 217.793 325.768C218.001 325.264 218.321 324.832 218.753 324.472C219.185 324.104 219.745 323.804 220.433 323.572C220.953 323.404 221.561 323.252 222.257 323.116C222.961 322.98 223.721 322.856 224.537 322.744C225.361 322.624 226.221 322.496 227.117 322.36L226.085 322.948C226.093 322.052 225.893 321.392 225.485 320.968C225.077 320.544 224.389 320.332 223.421 320.332C222.837 320.332 222.273 320.468 221.729 320.74C221.185 321.012 220.805 321.48 220.589 322.144L217.949 321.316C218.269 320.22 218.877 319.34 219.773 318.676C220.677 318.012 221.893 317.68 223.421 317.68C224.573 317.68 225.585 317.868 226.457 318.244C227.337 318.62 227.989 319.236 228.413 320.092C228.645 320.548 228.785 321.016 228.833 321.496C228.881 321.968 228.905 322.484 228.905 323.044V331H226.373V328.192L226.793 328.648C226.209 329.584 225.525 330.272 224.741 330.712C223.965 331.144 222.993 331.36 221.825 331.36ZM222.401 329.056C223.057 329.056 223.617 328.94 224.081 328.708C224.545 328.476 224.913 328.192 225.185 327.856C225.465 327.52 225.653 327.204 225.749 326.908C225.901 326.54 225.985 326.12 226.001 325.648C226.025 325.168 226.037 324.78 226.037 324.484L226.925 324.748C226.053 324.884 225.305 325.004 224.681 325.108C224.057 325.212 223.521 325.312 223.073 325.408C222.625 325.496 222.229 325.596 221.885 325.708C221.549 325.828 221.265 325.968 221.033 326.128C220.801 326.288 220.621 326.472 220.493 326.68C220.373 326.888 220.313 327.132 220.313 327.412C220.313 327.732 220.393 328.016 220.553 328.264C220.713 328.504 220.945 328.696 221.249 328.84C221.561 328.984 221.945 329.056 222.401 329.056ZM90.407 368.36C89.111 368.36 87.959 368.092 86.951 367.556C85.951 367.012 85.163 366.252 84.587 365.276C84.019 364.292 83.735 363.14 83.735 361.82V350.72H85.127V361.532C85.127 362.516 85.291 363.36 85.619 364.064C85.955 364.76 86.387 365.328 86.915 365.768C87.451 366.208 88.023 366.532 88.631 366.74C89.247 366.948 89.839 367.052 90.407 367.052C90.975 367.052 91.567 366.948 92.183 366.74C92.799 366.532 93.371 366.208 93.899 365.768C94.427 365.328 94.855 364.76 95.183 364.064C95.519 363.36 95.687 362.516 95.687 361.532V350.72H97.079V361.82C97.079 363.132 96.791 364.28 96.215 365.264C95.647 366.24 94.859 367 93.851 367.544C92.851 368.088 91.703 368.36 90.407 368.36ZM98.2859 368L104.31 359.24L98.4299 350.72H100.098L105.114 358.1L110.142 350.72H111.81L105.93 359.24L111.954 368H110.286L105.114 360.404L99.9539 368H98.2859ZM117.247 368V350.72H123.763C123.931 350.72 124.111 350.728 124.303 350.744C124.503 350.752 124.711 350.776 124.927 350.816C125.791 350.952 126.531 351.264 127.147 351.752C127.771 352.232 128.247 352.84 128.575 353.576C128.903 354.304 129.067 355.108 129.067 355.988C129.067 357.26 128.727 358.368 128.047 359.312C127.367 360.256 126.419 360.856 125.203 361.112L124.807 361.268H118.627V368H117.247ZM127.891 368L124.483 360.968L125.767 360.32L129.511 368H127.891ZM118.627 359.912H123.739C123.883 359.912 124.047 359.904 124.231 359.888C124.423 359.872 124.615 359.848 124.807 359.816C125.431 359.688 125.951 359.436 126.367 359.06C126.783 358.676 127.095 358.216 127.303 357.68C127.511 357.144 127.615 356.58 127.615 355.988C127.615 355.396 127.511 354.836 127.303 354.308C127.095 353.772 126.783 353.316 126.367 352.94C125.951 352.556 125.431 352.3 124.807 352.172C124.615 352.132 124.423 352.104 124.231 352.088C124.047 352.072 123.883 352.064 123.739 352.064H118.627V359.912ZM136.773 368.36C135.533 368.36 134.461 368.084 133.557 367.532C132.653 366.972 131.953 366.184 131.457 365.168C130.961 364.144 130.713 362.936 130.713 361.544C130.713 360.128 130.957 358.908 131.445 357.884C131.941 356.852 132.637 356.06 133.533 355.508C134.437 354.956 135.509 354.68 136.749 354.68C138.005 354.68 139.077 354.968 139.965 355.544C140.861 356.112 141.541 356.936 142.005 358.016C142.477 359.096 142.701 360.396 142.677 361.916H141.237V361.436C141.197 359.66 140.797 358.308 140.037 357.38C139.277 356.452 138.189 355.988 136.773 355.988C135.309 355.988 134.177 356.472 133.377 357.44C132.585 358.4 132.189 359.76 132.189 361.52C132.189 363.264 132.585 364.616 133.377 365.576C134.177 366.536 135.301 367.016 136.749 367.016C137.749 367.016 138.621 366.784 139.365 366.32C140.117 365.848 140.713 365.176 141.153 364.304L142.401 364.856C141.881 365.976 141.129 366.84 140.145 367.448C139.161 368.056 138.037 368.36 136.773 368.36ZM131.661 361.916V360.668H141.897V361.916H131.661ZM149.4 368.336C147.904 368.336 146.668 368.02 145.692 367.388C144.724 366.756 144.124 365.876 143.892 364.748L145.308 364.508C145.508 365.276 145.98 365.888 146.724 366.344C147.468 366.8 148.38 367.028 149.46 367.028C150.532 367.028 151.384 366.8 152.016 366.344C152.648 365.888 152.964 365.264 152.964 364.472C152.964 364.04 152.864 363.688 152.664 363.416C152.472 363.136 152.088 362.88 151.512 362.648C150.936 362.416 150.08 362.144 148.944 361.832C147.744 361.512 146.804 361.192 146.124 360.872C145.452 360.552 144.976 360.188 144.696 359.78C144.424 359.372 144.288 358.872 144.288 358.28C144.288 357.568 144.492 356.944 144.9 356.408C145.308 355.864 145.876 355.44 146.604 355.136C147.34 354.832 148.188 354.68 149.148 354.68C150.108 354.68 150.972 354.84 151.74 355.16C152.508 355.472 153.128 355.912 153.6 356.48C154.072 357.04 154.344 357.692 154.416 358.436L153 358.7C152.864 357.868 152.444 357.212 151.74 356.732C151.036 356.244 150.156 355.996 149.1 355.988C148.1 355.972 147.284 356.172 146.652 356.588C146.02 356.996 145.704 357.536 145.704 358.208C145.704 358.592 145.812 358.92 146.028 359.192C146.252 359.456 146.644 359.7 147.204 359.924C147.764 360.148 148.556 360.388 149.58 360.644C150.828 360.964 151.8 361.292 152.496 361.628C153.2 361.964 153.696 362.36 153.984 362.816C154.272 363.264 154.416 363.82 154.416 364.484C154.416 365.684 153.968 366.628 153.072 367.316C152.184 367.996 150.96 368.336 149.4 368.336ZM161.7 368.36C160.46 368.36 159.388 368.084 158.484 367.532C157.58 366.972 156.88 366.184 156.384 365.168C155.888 364.144 155.64 362.936 155.64 361.544C155.64 360.128 155.884 358.908 156.372 357.884C156.868 356.852 157.564 356.06 158.46 355.508C159.364 354.956 160.436 354.68 161.676 354.68C162.932 354.68 164.004 354.968 164.892 355.544C165.788 356.112 166.468 356.936 166.932 358.016C167.404 359.096 167.628 360.396 167.604 361.916H166.164V361.436C166.124 359.66 165.724 358.308 164.964 357.38C164.204 356.452 163.116 355.988 161.7 355.988C160.236 355.988 159.104 356.472 158.304 357.44C157.512 358.4 157.116 359.76 157.116 361.52C157.116 363.264 157.512 364.616 158.304 365.576C159.104 366.536 160.228 367.016 161.676 367.016C162.676 367.016 163.548 366.784 164.292 366.32C165.044 365.848 165.64 365.176 166.08 364.304L167.328 364.856C166.808 365.976 166.056 366.84 165.072 367.448C164.088 368.056 162.964 368.36 161.7 368.36ZM156.588 361.916V360.668H166.824V361.916H156.588ZM173.048 368.36C172.048 368.36 171.216 368.184 170.552 367.832C169.896 367.48 169.404 367.016 169.076 366.44C168.748 365.856 168.584 365.224 168.584 364.544C168.584 363.808 168.736 363.192 169.04 362.696C169.352 362.2 169.764 361.8 170.276 361.496C170.796 361.192 171.368 360.964 171.992 360.812C172.704 360.652 173.472 360.516 174.296 360.404C175.12 360.284 175.904 360.18 176.648 360.092C177.4 360.004 178.012 359.928 178.484 359.864L177.98 360.164C178.012 358.764 177.748 357.724 177.188 357.044C176.636 356.356 175.66 356.012 174.26 356.012C173.276 356.012 172.464 356.236 171.824 356.684C171.192 357.124 170.748 357.808 170.492 358.736L169.076 358.34C169.372 357.164 169.968 356.26 170.864 355.628C171.76 354.996 172.908 354.68 174.308 354.68C175.5 354.68 176.5 354.912 177.308 355.376C178.124 355.84 178.692 356.492 179.012 357.332C179.148 357.676 179.24 358.08 179.288 358.544C179.336 359 179.36 359.46 179.36 359.924V368H178.1V364.592L178.568 364.712C178.176 365.88 177.492 366.78 176.516 367.412C175.54 368.044 174.384 368.36 173.048 368.36ZM173.12 367.088C174 367.088 174.772 366.932 175.436 366.62C176.1 366.3 176.636 365.856 177.044 365.288C177.46 364.712 177.724 364.036 177.836 363.26C177.916 362.828 177.96 362.36 177.968 361.856C177.976 361.352 177.98 360.98 177.98 360.74L178.58 361.124C178.06 361.188 177.436 361.256 176.708 361.328C175.988 361.4 175.252 361.488 174.5 361.592C173.748 361.696 173.068 361.828 172.46 361.988C172.084 362.092 171.704 362.244 171.32 362.444C170.944 362.636 170.628 362.904 170.372 363.248C170.124 363.592 170 364.028 170 364.556C170 364.948 170.096 365.34 170.288 365.732C170.488 366.124 170.816 366.448 171.272 366.704C171.728 366.96 172.344 367.088 173.12 367.088ZM181.756 368V355.04H183.016V358.148L182.704 357.74C182.848 357.372 183.028 357.032 183.244 356.72C183.468 356.4 183.696 356.14 183.928 355.94C184.272 355.62 184.676 355.38 185.14 355.22C185.604 355.052 186.072 354.956 186.544 354.932C187.016 354.9 187.444 354.936 187.828 355.04V356.348C187.316 356.228 186.772 356.204 186.196 356.276C185.62 356.348 185.08 356.596 184.576 357.02C184.136 357.404 183.816 357.852 183.616 358.364C183.416 358.868 183.288 359.4 183.232 359.96C183.176 360.512 183.148 361.052 183.148 361.58V368H181.756ZM194.438 368.36C193.142 368.36 192.05 368.072 191.162 367.496C190.274 366.912 189.598 366.108 189.134 365.084C188.678 364.052 188.442 362.864 188.426 361.52C188.442 360.152 188.682 358.956 189.146 357.932C189.618 356.9 190.298 356.1 191.186 355.532C192.074 354.964 193.162 354.68 194.45 354.68C195.706 354.68 196.81 354.984 197.762 355.592C198.722 356.192 199.386 357.02 199.754 358.076L198.41 358.568C198.082 357.76 197.566 357.136 196.862 356.696C196.158 356.248 195.35 356.024 194.438 356.024C193.414 356.024 192.57 356.26 191.906 356.732C191.242 357.196 190.746 357.84 190.418 358.664C190.09 359.488 189.918 360.44 189.902 361.52C189.926 363.176 190.314 364.508 191.066 365.516C191.826 366.516 192.95 367.016 194.438 367.016C195.358 367.016 196.154 366.804 196.826 366.38C197.506 365.956 198.026 365.34 198.386 364.532L199.754 365C199.25 366.096 198.546 366.932 197.642 367.508C196.738 368.076 195.67 368.36 194.438 368.36ZM211.043 368V361.256C211.043 360.44 210.959 359.712 210.791 359.072C210.631 358.432 210.383 357.888 210.047 357.44C209.719 356.992 209.303 356.652 208.799 356.42C208.303 356.188 207.715 356.072 207.035 356.072C206.331 356.072 205.719 356.196 205.199 356.444C204.687 356.684 204.263 357.024 203.927 357.464C203.599 357.904 203.351 358.428 203.183 359.036C203.023 359.636 202.943 360.292 202.943 361.004L201.851 360.872C201.851 359.472 202.087 358.32 202.559 357.416C203.039 356.504 203.683 355.832 204.491 355.4C205.299 354.96 206.207 354.74 207.215 354.74C207.927 354.74 208.563 354.844 209.123 355.052C209.691 355.26 210.183 355.556 210.599 355.94C211.015 356.316 211.359 356.764 211.631 357.284C211.903 357.796 212.103 358.36 212.231 358.976C212.367 359.592 212.435 360.236 212.435 360.908V368H211.043ZM201.551 368V350.72H202.811V360.704H202.943V368H201.551ZM220.163 368.36C218.923 368.36 217.851 368.084 216.947 367.532C216.043 366.972 215.343 366.184 214.847 365.168C214.351 364.144 214.103 362.936 214.103 361.544C214.103 360.128 214.347 358.908 214.835 357.884C215.331 356.852 216.027 356.06 216.923 355.508C217.827 354.956 218.899 354.68 220.139 354.68C221.395 354.68 222.467 354.968 223.355 355.544C224.251 356.112 224.931 356.936 225.395 358.016C225.867 359.096 226.091 360.396 226.067 361.916H224.627V361.436C224.587 359.66 224.187 358.308 223.427 357.38C222.667 356.452 221.579 355.988 220.163 355.988C218.699 355.988 217.567 356.472 216.767 357.44C215.975 358.4 215.579 359.76 215.579 361.52C215.579 363.264 215.975 364.616 216.767 365.576C217.567 366.536 218.691 367.016 220.139 367.016C221.139 367.016 222.011 366.784 222.755 366.32C223.507 365.848 224.103 365.176 224.543 364.304L225.791 364.856C225.271 365.976 224.519 366.84 223.535 367.448C222.551 368.056 221.427 368.36 220.163 368.36ZM215.051 361.916V360.668H225.287V361.916H215.051ZM228.001 368V355.04H229.261V358.148L228.949 357.74C229.093 357.372 229.273 357.032 229.489 356.72C229.713 356.4 229.941 356.14 230.173 355.94C230.517 355.62 230.921 355.38 231.385 355.22C231.849 355.052 232.317 354.956 232.789 354.932C233.261 354.9 233.689 354.936 234.073 355.04V356.348C233.561 356.228 233.017 356.204 232.441 356.276C231.865 356.348 231.325 356.596 230.821 357.02C230.381 357.404 230.061 357.852 229.861 358.364C229.661 358.868 229.533 359.4 229.477 359.96C229.421 360.512 229.393 361.052 229.393 361.58V368H228.001Z" fill="black"/>
<defs>
<filter id="filter0_d_502_1376" x="0" y="0" width="316" height="424" filterUnits="userSpaceOnUse" color-interpolation-filters="sRGB">
<feFlood flood-opacity="0" result="BackgroundImageFix"/>
<feColorMatrix in="SourceAlpha" type="matrix" values="0 0 0 0 0 0 0 0 0 0 0 0 0 0 0 0 0 0 127 0" result="hardAlpha"/>
<feOffset dy="2"/>
<feGaussianBlur stdDeviation="2"/>
<feComposite in2="hardAlpha" operator="out"/>
<feColorMatrix type="matrix" values="0 0 0 0 0 0 0 0 0 0 0 0 0 0 0 0 0 0 0.25 0"/>
<feBlend mode="normal" in2="BackgroundImageFix" result="effect1_dropShadow_502_1376"/>
<feBlend mode="normal" in="SourceGraphic" in2="effect1_dropShadow_502_1376" result="shape"/>
</filter>
</defs>
</svg>
