<svg width="30" height="35" viewBox="0 0 30 35" fill="none" xmlns="http://www.w3.org/2000/svg">
<path d="M24.9455 24.4313C25.5301 23.6832 25.795 23.0353 26.0514 22.4068C26.1894 22.0689 26.3726 21.5573 26.1979 21.0164C26.1486 20.8634 26.0683 20.6173 25.8739 20.5436C25.5414 20.4185 24.9638 20.7939 24.5257 21.4711C23.9509 22.3595 23.2366 23.54 22.6478 24.1435C22.0589 24.7469 20.8727 25.8078 19.9669 26.2834C19.6062 26.4725 19.2089 26.681 18.8948 26.9202C19.3061 26.9508 19.757 26.9647 20.25 26.9647C21.9617 26.9647 23.5959 25.8106 24.9455 24.4313Z" fill="#629560"/>
<path d="M28.7802 25.6646C28.0603 26.5503 27.1869 27.7697 26.212 28.2814C25.2484 28.7875 25.6767 28.1479 25.8697 27.9227C27.5799 25.9232 31.2188 21.2694 29.5931 19.5606C29.5705 19.537 29.5438 19.5175 29.5142 19.505C29.3494 19.4313 28.7915 19.2505 28.3294 19.9346C28.0181 20.3962 26.7304 22.6084 24.9455 24.4299C23.5945 25.8092 21.9603 26.9633 20.25 26.9633C19.757 26.9633 19.3062 26.948 18.8948 26.9188C16.0279 26.7074 15.1164 25.7355 15.4461 23.6513C15.4531 23.6081 15.47 23.5678 15.4982 23.5345C15.7659 23.2021 17.262 21.3125 17.5114 20.2058C17.7847 18.9891 18.0594 17.0967 16.142 16.2861C16.142 16.2861 15.594 15.8801 15.4574 16.6921C15.3207 17.5041 15.2024 19.8303 13.6767 20.2058C12.1679 20.5784 9.99975 22.2942 9.02206 24.3437C8.94739 24.4994 8.74312 24.5397 8.61914 24.4174C7.69217 23.5122 4.66047 20.1919 4.77599 15.609C4.87883 11.5545 7.58369 9.32422 8.89667 8.97522C10.6985 8.49691 10.0476 8.51221 8.81074 8.50943C8.21342 8.50804 7.44563 8.5136 6.48484 8.64847C4.81121 8.88345 2.79101 9.59396 1.55833 11.7575C0.683477 13.2897 -0.223778 15.1376 0.0495253 18.6526C0.322829 22.1677 0.734193 23.248 1.83023 25.8162C2.92626 28.3843 6.3496 31.6282 7.58228 32.3039C8.81496 32.9797 13.0695 35.609 17.8523 34.8721C22.235 34.1963 24.4257 32.9797 27.0277 30.6827C28.8028 29.1157 29.548 27.4277 29.8016 26.1304C29.9157 25.5464 29.1578 25.203 28.7802 25.6674V25.6646Z" fill="#629560"/>
<path d="M9.69409 0C9.11649 0 9.2137 0.991379 9.69409 1.60317C10.1745 2.21496 12.8991 5.96496 13.0597 7.83927C13.0597 7.83927 12.7385 4.77197 11.9383 3.23832C11.4847 2.3693 10.6563 0 9.69409 0Z" fill="#629560"/>
<path d="M20.5755 1.05676C20.5755 1.05676 20.0683 1.99948 18.9286 2.22473C17.5199 2.50281 16.9563 2.36377 15.6884 3.33707C14.398 4.32706 14.5516 6.01783 13.657 6.87851C13.9472 6.76171 14.4262 6.56427 15.1249 6.25699C16.3928 5.70081 16.8155 5.42272 17.8016 4.72751C18.4694 4.25615 19.7739 2.7809 19.7739 2.7809C19.7739 2.7809 19.3273 4.30064 18.0834 5.28368C16.9268 6.1972 14.4544 6.77562 13.6049 6.95498C13.8176 6.97306 15.1813 7.08012 16.252 6.9522C17.417 6.81316 18.2722 6.44191 19.2104 5.42272C20.6192 3.89325 20.5755 1.05676 20.5755 1.05676Z" fill="#629560"/>
</svg>
